<svg width="106" height="60" viewBox="0 0 106 60" fill="none" xmlns="http://www.w3.org/2000/svg">
<path fill-rule="evenodd" clip-rule="evenodd" d="M1.30219 14.7231L34.9992 0L68.6963 14.7231L70 25.9417L34.9992 11.2175L0 25.9417L1.30219 14.7231ZM34.9992 12.9402L12.0403 22.5986V57.5115H27.4563V42.1531C27.4563 37.9873 30.8335 34.6101 34.9992 34.6101C39.1665 34.6101 42.5422 37.9883 42.5422 42.1531V57.5115H57.9582V22.5986L34.9992 12.9402ZM46.8434 28.3896C46.8434 29.9719 45.5614 31.2546 43.979 31.2546C42.3967 31.2546 41.1147 29.9729 41.1147 28.3896C41.1147 28.2068 41.1326 28.0276 41.1653 27.854H28.8324C28.8651 28.0276 28.8837 28.2068 28.8837 28.3896C28.8837 29.9712 27.6018 31.2546 26.0202 31.2546C24.4378 31.2546 23.1559 29.9719 23.1559 28.3896C23.1559 27.3132 23.7521 26.3752 24.6316 25.8865C23.7521 25.3977 23.1559 24.4597 23.1559 23.3826C23.1559 21.8008 24.4378 20.5181 26.0202 20.5181C27.6018 20.5181 28.8837 21.8 28.8837 23.3826C28.8837 23.5662 28.8658 23.7451 28.8324 23.9187H41.1653C41.1326 23.7451 41.1147 23.5662 41.1147 23.3826C41.1147 21.8008 42.3967 20.5181 43.979 20.5181C45.5614 20.5181 46.8434 21.8 46.8434 23.3826C46.8434 24.4604 46.2471 25.397 45.3676 25.8865C46.2471 26.3752 46.8434 27.3132 46.8434 28.3896ZM99.1812 43.1892C101.312 43.9475 102.683 44.9941 103.003 46.283L106 54.0269C106 57.324 98.8414 60 89.0008 60C79.1601 60 72 57.324 72 54.0269L74.9986 46.283C75.8617 43.6394 81.2674 41.8115 89.0011 41.8115C90.5267 41.8115 91.9403 41.8926 93.2754 42.0203L94.1001 40.8582L94.6532 40.0823C93.819 39.0137 93.7584 37.5259 94.5763 36.3787C95.1922 35.5154 96.2123 35 97.3033 35C97.9718 35 98.6178 35.1917 99.1705 35.5579C99.6954 35.9041 100.1 36.3804 100.342 36.9382C100.971 36.9556 101.586 37.1526 102.122 37.5068C103.623 38.4983 104.006 40.481 102.974 41.925C102.359 42.7888 101.34 43.3042 100.25 43.3042C99.8916 43.3042 99.5377 43.2493 99.2117 43.1465L99.1812 43.1892ZM89.2293 43.2344C83.2721 43.2344 78.4474 44.6301 78.4474 46.3503C78.4474 47.7173 81.515 48.8665 85.7569 49.2864C85.8353 48.8547 85.9999 48.428 86.2757 48.0422C86.8924 47.1782 87.9113 46.6621 89.0019 46.6621C89.3017 46.6621 89.5992 46.7021 89.8952 46.7837L92.3109 43.3789C91.3297 43.2932 90.3081 43.2344 89.2293 43.2344ZM89.2598 49.4646C90.0673 49.4646 90.8513 49.436 91.6074 49.3867C91.7143 49.3801 91.8177 49.3723 91.9211 49.3643L92.1136 49.3501C92.5204 49.3171 92.9113 49.2734 93.2971 49.2273L94.1188 48.0774L97.4271 43.406L98.334 42.1345C98.3589 42.1001 98.3829 42.0659 98.4063 42.0325C98.5616 41.8115 98.6907 41.6274 98.8867 41.6274C98.9492 41.6274 99.0178 41.6448 99.0974 41.687L99.1758 41.7346L99.1998 41.7451C99.5259 41.9407 99.8908 42.0366 100.251 42.0366C100.883 42.0366 101.504 41.7451 101.889 41.2065C102.509 40.3376 102.28 39.1492 101.375 38.5525C101.031 38.325 100.633 38.2041 100.244 38.2041C100.217 38.2041 100.188 38.2048 100.162 38.2073L100.11 38.2173C100.074 38.2231 100.039 38.2246 100.002 38.2246C99.8406 38.2246 99.679 38.1794 99.5377 38.0864C99.3751 37.9788 99.2631 37.8235 99.2139 37.6538L99.1671 37.5322C99.0311 37.1685 98.7808 36.8398 98.4243 36.6052C98.0822 36.3767 97.6899 36.269 97.3033 36.269C96.6694 36.269 96.0485 36.5583 95.6645 37.0984C95.0836 37.9106 95.2467 39.0005 96.0074 39.6284L96.0904 39.6899C96.3761 39.9236 96.2113 40.1489 96.0005 40.4373C95.9775 40.4688 95.954 40.501 95.9304 40.5339L95.1861 41.5747L91.5377 46.7224L90.7941 47.7644C90.7702 47.7979 90.7471 47.8311 90.7246 47.8635C90.5702 48.0857 90.441 48.2715 90.2422 48.2715C90.1812 48.2715 90.1111 48.2527 90.0327 48.2119L89.9424 48.1582C89.6464 48.0049 89.3234 47.9297 89.0023 47.9297C88.3703 47.9297 87.7487 48.2209 87.3647 48.7605C87.2242 48.9551 87.1423 49.168 87.0874 49.384C87.7849 49.427 88.488 49.4658 89.2293 49.4658H89.2411H89.2465L89.2525 49.4653C89.2548 49.4648 89.2572 49.4646 89.2598 49.4646ZM95.2055 48.7954L95.0905 48.9563C98.0441 48.4011 100.01 47.4446 100.01 46.3508C100.01 45.7097 99.3099 45.1194 98.1603 44.6238L95.2055 48.7954Z" fill="black"/>
</svg>
