<svg width="64" height="64" viewBox="0 0 64 64" fill="none" xmlns="http://www.w3.org/2000/svg">
<path fill-rule="evenodd" clip-rule="evenodd" d="M33 58.9817C47.1166 58.4678 58.4678 47.1167 58.9818 33H63C63.5523 33 64 32.5522 64 32C64 31.4478 63.5523 31 63 31H58.9818C58.4678 16.8833 47.1166 5.53223 33 5.01831V1C33 0.447754 32.5523 0 32 0C31.4477 0 31 0.447754 31 1V5.01831C16.8834 5.53223 5.53217 16.8833 5.01819 31H1C0.447693 31 0 31.4478 0 32C0 32.5522 0.447693 33 1 33H5.01819C5.53217 47.1167 16.8834 58.4678 31 58.9817V63C31 63.5522 31.4477 64 32 64C32.5523 64 33 63.5522 33 63V58.9817ZM53 33H56.9803C56.4685 46.0117 46.0118 56.4685 33 56.9805V53C33 52.4478 32.5523 52 32 52C31.4477 52 31 52.4478 31 53V56.9805C17.9882 56.4685 7.53149 46.0117 7.01965 33H11C11.5523 33 12 32.5522 12 32C12 31.4478 11.5523 31 11 31H7.01965C7.53149 17.9883 17.9882 7.53149 31 7.01953V11C31 11.5522 31.4477 12 32 12C32.5523 12 33 11.5522 33 11V7.01953C46.0118 7.53149 56.4685 17.9883 56.9803 31H53C52.4477 31 52 31.4478 52 32C52 32.5522 52.4477 33 53 33ZM50.8604 21.2822C51.1733 21.0586 51.6205 21.1035 51.844 21.4165C52.1123 21.6848 52.0229 22.1318 51.6652 22.3552C50.4132 23.2942 48.1776 24.6804 48.0882 24.7251C48.0882 24.7251 48.0435 24.7698 47.9988 24.7698L42.2756 27.0947C42.1862 27.1394 42.1415 27.1394 42.0521 27.1394L37.5362 27.4077C37.9833 28.302 38.4304 29.2856 38.7881 30.2693C38.7881 30.3142 38.8328 30.3142 38.8328 30.3142L42.8122 32.8181C42.9016 32.8628 42.9463 32.9075 42.991 32.9521L46.7021 37.5574C46.7021 37.5796 46.7133 37.5908 46.7244 37.6021C46.7356 37.6133 46.7468 37.6245 46.7468 37.647L49.6084 42.7439C49.7873 43.0569 49.6531 43.5042 49.3401 43.6831C49.3121 43.6924 49.2861 43.7017 49.2612 43.7107C49.1667 43.7444 49.0886 43.7725 48.9824 43.7725C48.7142 43.7725 48.4906 43.6382 48.3565 43.4148L45.4949 38.407L41.8732 33.9358L39.6823 32.4602C39.7571 32.6099 39.8007 32.791 39.8391 32.9507L39.8612 33.0415L43.0357 37.5127C43.0357 37.5352 43.0469 37.5461 43.0581 37.5574C43.0693 37.5686 43.0805 37.5796 43.0805 37.6021L46.0314 43.5042C46.0314 43.5264 46.0426 43.5376 46.0538 43.5488C46.0649 43.5601 46.0762 43.5713 46.0762 43.5935L47.7305 48.4226C47.8199 48.7803 47.6411 49.1826 47.2834 49.3167C47.194 49.3613 47.1493 49.3613 47.0598 49.3613C46.7468 49.3613 46.4786 49.1379 46.3891 48.8696L44.7348 44.0854L41.8285 38.2727L40.4872 36.395L40.4985 36.5303C40.5391 37.0144 40.5766 37.4612 40.5766 37.8704C40.5766 42.4309 36.8655 46.0974 32.2601 46.0974C27.6548 46.0974 23.9437 42.4309 23.9437 37.8704C23.9437 37.4612 23.9811 37.0144 24.0218 36.5303L24.0331 36.395L22.6918 38.2727L19.7855 44.0854L18.1311 48.8696C18.0417 49.1826 17.7287 49.3613 17.4605 49.3613C17.371 49.3613 17.3263 49.3613 17.2369 49.3167C16.8792 49.1826 16.6556 48.7803 16.7898 48.4226L18.4441 43.5935C18.4441 43.5713 18.4553 43.5601 18.4664 43.5488C18.4776 43.5376 18.4888 43.5264 18.4888 43.5042L21.4398 37.6021C21.4398 37.5796 21.4509 37.5686 21.4622 37.5574C21.4733 37.5461 21.4845 37.5352 21.4845 37.5127L24.6591 33.0415C24.678 32.9658 24.705 32.8899 24.7332 32.8108C24.7715 32.7031 24.8121 32.5891 24.8379 32.4602L22.6471 33.9358L19.0254 38.407L16.1638 43.4148C16.0297 43.6382 15.7614 43.7725 15.5378 43.7725C15.4037 43.7725 15.2696 43.7278 15.1801 43.6831C14.8224 43.5042 14.733 43.0569 14.9119 42.7439L17.7734 37.647C17.7734 37.6279 17.7734 37.6169 17.7769 37.6072C17.7815 37.594 17.7925 37.583 17.8182 37.5574L21.2163 32.9521C21.2386 32.9297 21.2722 32.9075 21.3057 32.8853C21.3392 32.8628 21.3727 32.8403 21.3951 32.8181L25.1062 30.3589C25.1062 30.3142 25.1509 30.3142 25.1509 30.3142C25.5086 29.3303 25.9557 28.3467 26.4029 27.4524L21.887 27.1841C21.7975 27.1841 21.7528 27.1841 21.6634 27.1394L15.9402 24.8145C15.9178 24.8145 15.9067 24.8032 15.8955 24.7922C15.8843 24.781 15.8732 24.7698 15.8508 24.7698C15.8221 24.7412 15.5739 24.5845 15.2084 24.3538C14.4315 23.8633 13.1252 23.0386 12.2739 22.4001C11.9609 22.1765 11.9162 21.7295 12.1397 21.4165C12.3633 21.1035 12.8104 21.0586 13.1234 21.2822C13.8621 21.8142 14.9915 22.5217 15.7628 23.0051C16.1585 23.2532 16.46 23.4419 16.5662 23.5178L22.1552 25.7981L27.2524 26.0664C27.3641 25.9099 27.4648 25.7534 27.5654 25.5969C27.666 25.4404 27.7666 25.2839 27.8784 25.1274L23.586 23.7861C23.5413 23.7639 23.5079 23.7415 23.4744 23.7192C23.4408 23.6968 23.4072 23.6746 23.3624 23.6521L19.1595 20.1196C19.1371 20.0972 19.1148 20.0637 19.0924 20.0303C19.0701 19.9968 19.0477 19.9634 19.0254 19.9409C19.0203 19.9307 18.9966 19.8911 18.9581 19.8262C18.6581 19.3218 17.4543 17.2986 17.058 15.8721C16.9686 15.5144 17.1922 15.1121 17.5499 15.0227C17.9076 14.9331 18.31 15.1567 18.3994 15.5144C18.7571 16.7664 19.8749 18.689 20.1432 19.136L24.1673 22.4895L28.862 23.9204C29.488 23.2942 30.114 22.8025 30.7846 22.5342C30.5611 22.2659 30.3822 21.8635 30.3822 21.4612C30.3822 20.5669 31.0976 19.8516 31.9919 19.8516C32.8861 19.8516 33.6015 20.5669 33.6015 21.4612C33.6015 21.8635 33.4674 22.2659 33.1991 22.5342C33.8698 22.8025 34.4957 23.2942 35.1217 23.9204L39.8165 22.4895L43.8406 19.136C43.8885 19.04 43.9796 18.8765 44.0967 18.666C44.5256 17.8953 45.3033 16.4978 45.5843 15.5144C45.6738 15.1121 46.0762 14.9331 46.4339 15.0227C46.8363 15.1121 47.0151 15.5144 46.9257 15.8721C46.5296 17.2979 45.3265 19.3203 45.0259 19.8257C44.9872 19.8909 44.9635 19.9307 44.9584 19.9409C44.9136 20.0303 44.8689 20.075 44.8242 20.1196L40.6213 23.6521C40.5766 23.6968 40.4872 23.7415 40.3977 23.7861L36.1054 25.1274C36.235 25.2832 36.3497 25.469 36.4669 25.6587C36.5515 25.7959 36.6375 25.9351 36.7313 26.0664L41.8285 25.7981L47.4175 23.5178C47.7752 23.3391 49.7425 22.0872 50.8604 21.2822Z" fill="black"/>
</svg>
