<svg width="85" height="71" viewBox="0 0 85 71" fill="none" xmlns="http://www.w3.org/2000/svg">
<path fill-rule="evenodd" clip-rule="evenodd" d="M72.6035 10.4341L79.5491 33.7638L85 33.7646V38.5583H77.7627C76.7034 38.5583 75.7681 37.8604 75.4653 36.8451L68.5208 13.5162H16.7021L9.75488 36.891C9.45215 37.9095 8.51855 38.6068 7.45752 38.6068H0V33.8123H5.66846L12.6157 10.4358C12.9185 9.41809 13.8528 8.72253 14.9141 8.72253H32.5879V2.39685C32.5879 1.07385 33.6602 0 34.9846 0H50.3333C51.6562 0 52.73 1.07385 52.73 2.39685V8.72253H70.3062C71.3665 8.72253 72.3008 9.41809 72.6035 10.4341ZM47.9365 4.79285H37.3816V8.72168H47.9365V4.79285ZM58.1462 34.7908L48.2163 30.0686V16.543L69.2053 26.5452L66.2354 32.9227L58.1462 32.9364V34.7908ZM50.041 48.132H36.8394L42.7263 58.0347C43.7119 59.6909 43.1694 61.8462 41.5215 62.8291C39.8577 63.813 37.7185 63.2712 36.7339 61.6177L30.4124 50.9445L30.4199 59.9197C30.4199 61.8455 28.8582 63.3987 26.9314 63.3987C25.0049 63.3987 23.4429 61.8455 23.4429 59.9197V37.0049L18.6621 34.2637C17.6936 33.7059 17.3579 32.4799 17.9062 31.5098C18.4553 30.5397 19.6892 30.1979 20.6602 30.7548L23.6843 32.4646H47.1306L58.1606 37.8594V46.65C58.1606 47.4484 58.0603 48.132 57.0181 48.132V59.9197C57.0181 61.8455 55.4485 63.3987 53.5227 63.3987C51.5969 63.3987 50.041 61.8455 50.041 59.9197V48.132ZM70.3062 70.5647H14.9141C13.8528 70.5647 12.9185 69.8657 12.6157 68.8513L5.66846 45.4733H0V40.6787H7.45752C8.51855 40.6787 9.45215 41.3751 9.75488 42.3928L16.7021 65.771H68.5208L75.4653 42.4396C75.7681 41.4261 76.7034 40.728 77.7627 40.728H85V45.5217H79.55L72.6045 68.8513C72.3008 69.8691 71.3672 70.5647 70.3062 70.5647Z" fill="black"/>
</svg>
