<svg width="90" height="70" viewBox="0 0 90 70" fill="none" xmlns="http://www.w3.org/2000/svg">
<path fill-rule="evenodd" clip-rule="evenodd" d="M15.1331 26.6416L17.9881 23.0352L45.229 21.0173L49.7152 18.7742L51.9334 21.1123L69.5477 0.389904C70.0907 -0.249012 70.5348 -0.0851944 70.5348 0.752941V7.86988C70.5348 8.70997 71.2107 9.50782 72.0387 9.64601L76.6557 10.416C77.4837 10.5549 78.5407 11.2378 79.0057 11.9358L79.8567 13.21C80.3217 13.908 81.3828 14.564 82.2157 14.668L88.4477 15.5598C90.2336 15.7849 90.1887 17.815 89.7317 19.125C89.3405 20.2505 88.5295 21.0337 87.7014 21.8335C87.5429 21.9863 87.3838 22.1401 87.2268 22.2969C86.738 22.7857 86.6289 23.6231 86.529 24.3872C86.4873 24.7068 86.4472 25.0137 86.3818 25.2769C85.8703 27.3391 83.9062 27.429 82.1198 27.5108L82.0991 27.5117C81.7999 27.5256 81.506 27.5391 81.2247 27.562C79.2098 27.7268 77.1949 27.8987 75.1805 28.0706L73.8637 28.1829L73.125 28.2437L73.1163 28.2444C72.7629 28.2732 72.4093 28.302 72.0558 28.332C71.2187 28.4019 70.1548 29.0288 69.6897 29.728L65.7347 35.6597L69.2978 39.4153L65.025 45.2903L66.0796 59H60.3687V59.978C60.3687 60.8159 60.9947 61.783 61.7607 62.126C61.7607 62.126 64.1808 63.21 64.1808 65.3149C64.1808 67.4209 62.4737 69.1279 60.3687 69.1279H51.7268C50.8877 69.1279 50.3717 68.343 50.2008 67.603L48.5859 59H44.4997V53.9155L29.2785 52.5725L27.7794 59.0684L22.6026 58.637L22.2417 59.9768C22.0918 60.5659 22.8687 61.782 23.6338 62.125C23.6338 62.125 26.0548 63.209 26.0548 65.314C26.0548 67.4199 24.3477 69.127 22.2417 69.127H13.5997C12.7617 69.127 12.0747 68.4399 12.0747 67.6018V57.7598L7.99973 57.4202V35.6521L10.7331 32.1995L0.444672 21.9099C-0.148224 21.3169 -0.148224 20.3469 0.444672 19.7529L0.829681 19.3689C1.4227 18.7759 2.48666 18.6589 3.19467 19.1099L14.6018 26.3689C14.7558 26.4671 14.9364 26.5588 15.1331 26.6416ZM49.2843 21.2258L66.7016 39.5847L62.9745 44.7095L63.9199 57H46.4997V52.0845L27.7209 50.4275L26.2201 56.9317L9.99973 55.5798V36.3479L19.0113 24.9649L45.7705 22.9827L49.2843 21.2258Z" fill="black"/>
</svg>
