<svg width="68" height="51" viewBox="0 0 68 51" fill="none" xmlns="http://www.w3.org/2000/svg">
<path fill-rule="evenodd" clip-rule="evenodd" d="M30.2 50.8H10.5C7.84778 50.8 5.30432 49.7463 3.42896 47.8711C1.55359 45.9956 0.5 43.4521 0.5 40.8V10C0.5 7.3479 1.55359 4.8042 3.42896 2.92896C5.30432 1.05347 7.84778 0 10.5 0H30.2C31.5132 0 32.8136 0.258545 34.0269 0.76123C35.2401 1.26367 36.3425 2.00024 37.2711 2.92896C38.1997 3.85742 38.9363 4.95996 39.4388 6.1731C39.9413 7.38647 40.2 8.68677 40.2 10V15.3999C40.2 15.9304 39.9893 16.4392 39.6143 16.8142C39.2391 17.1892 38.7305 17.3999 38.2 17.3999C37.6696 17.3999 37.1609 17.1892 36.7858 16.8142C36.4108 16.4392 36.2 15.9304 36.2 15.3999V10C36.2 8.40869 35.5679 6.88257 34.4426 5.75732C33.3174 4.63208 31.7913 4 30.2 4H10.5C8.90869 4 7.38257 4.63208 6.25732 5.75732C5.13208 6.88257 4.5 8.40869 4.5 10V40.8C4.5 42.3914 5.13208 43.9175 6.25732 45.0427C7.38257 46.168 8.90869 46.8 10.5 46.8H30.2C31.7913 46.8 33.3174 46.168 34.4426 45.0427C35.5679 43.9175 36.2 42.3914 36.2 40.8V35.3999C36.2 34.8696 36.4108 34.3608 36.7858 33.9858C37.1609 33.6106 37.6696 33.3999 38.2 33.3999C38.7305 33.3999 39.2391 33.6106 39.6143 33.9858C39.9893 34.3608 40.2 34.8696 40.2 35.3999V40.8C40.2 42.1133 39.9413 43.4136 39.4388 44.627C38.9363 45.8401 38.1997 46.9424 37.2711 47.8711C36.3425 48.7996 35.2401 49.5361 34.0269 50.0388C32.8136 50.5413 31.5132 50.8 30.2 50.8ZM52.4 9.5L66.9 24C67.2665 24.374 67.4717 24.8767 67.4717 25.4001C67.4717 25.9236 67.2665 26.4263 66.9 26.8L52.4 41.3C52.228 41.5293 52.0089 41.719 51.7573 41.8562C51.5057 41.9932 51.2277 42.0747 50.9418 42.095C50.656 42.1155 50.3691 42.074 50.1006 41.9739C49.8322 41.8735 49.5884 41.717 49.3857 41.5144C49.1832 41.3118 49.0265 41.0679 48.9263 40.7996C48.826 40.531 48.7847 40.2441 48.8051 39.9583C48.8253 39.6726 48.9069 39.3943 49.0439 39.1428C49.1812 38.8911 49.3707 38.6721 49.6 38.5L60.7 27.4001H19.5C18.9696 27.4001 18.4608 27.1895 18.0858 26.8142C17.7107 26.4392 17.5 25.9304 17.5 25.4001C17.5 24.8696 17.7107 24.3608 18.0858 23.9858C18.4608 23.6108 18.9696 23.4001 19.5 23.4001H60.7L49.6 12.3C49.3112 11.915 49.1709 11.4385 49.2051 10.9583C49.2391 10.478 49.4453 10.0264 49.7858 9.68579C50.1262 9.34546 50.578 9.13916 51.0582 9.10522C51.5385 9.07104 52.0149 9.21118 52.4 9.5Z" fill="#6468A1"/>
</svg>
