<svg width="66" height="70" viewBox="0 0 66 70" fill="none" xmlns="http://www.w3.org/2000/svg">
<path fill-rule="evenodd" clip-rule="evenodd" d="M28.0635 3.58545C28.0635 5.5625 26.4558 7.17102 24.4788 7.17102C22.5017 7.17102 20.8933 5.5625 20.8933 3.58545C20.8933 1.60852 22.5017 0 24.4788 0C26.4551 0 28.0635 1.60852 28.0635 3.58545ZM33.957 15.3624C35.9341 15.3624 37.5417 13.7539 37.5417 11.7769C37.5417 9.79993 35.9331 8.19141 33.957 8.19141C31.9807 8.19141 30.3723 9.79993 30.3723 11.7769C30.3723 13.7539 31.9807 15.3624 33.957 15.3624ZM44.8818 67.9131H28.4033C30.4829 64.7146 34.5654 57.0522 34.8674 45.8638H26.4775V50.0228C26.4775 54.2755 23.0183 57.7349 18.7654 57.7349C14.5129 57.7349 11.0535 54.2755 11.0535 50.0228V45.8638H2.42603C2.39111 53.2781 4.03223 60.9705 8.72656 67.9131H0V69.947H44.8818V67.9131ZM26.4775 43.83H34.8787C34.8521 41.962 34.7185 40.0062 34.4541 37.9624H26.4775V43.83ZM13.0876 33.9205C13.0876 30.7898 15.635 28.2424 18.7656 28.2424C21.8965 28.2424 24.4438 30.7891 24.4438 33.9205V50.024C24.4438 53.1548 21.8965 55.702 18.7656 55.702C15.635 55.702 13.0876 53.1548 13.0876 50.024V33.9205ZM24.7 11.5953L24.4038 11.103H12.7002L12.4023 11.5887C12.3586 11.6595 11.4221 13.2184 10.1406 15.8488H27.0984C26.3606 14.4518 25.5664 13.0353 24.7 11.5953ZM3.05933 37.9624H11.0537V43.83H2.47754C2.56714 41.84 2.77124 39.8776 3.05933 37.9624ZM11.0535 33.9204C11.0535 29.6677 14.5129 26.2083 18.7654 26.2083C23.0181 26.2083 26.4775 29.6677 26.4775 33.9204V35.9291H34.1489C33.2288 30.4642 31.3689 24.4274 28.1406 17.8828H9.18384C7.17432 22.3071 4.73022 28.7109 3.40161 35.9291H11.0535V33.9204ZM48 43.8759V17.627C48 16.7299 48.7927 16.0024 49.7698 16H58.0718C59.05 16 59.842 16.7273 59.842 17.6244V17.6871H65.0139C65.3525 17.6871 65.6272 17.9399 65.6272 18.2498C65.6272 18.5607 65.3518 18.8129 65.0139 18.8129H59.842V20.8123H65.0139C65.3525 20.8123 65.6272 21.0651 65.6272 21.3749C65.6272 21.6859 65.3518 21.9374 65.0139 21.9374H59.842V23.9375H65.0139C65.3525 23.9375 65.6272 24.189 65.6272 24.5C65.6272 24.8112 65.3518 25.0626 65.0139 25.0626H59.842V27.0627H65.0139C65.3525 27.0627 65.6272 27.3142 65.6272 27.6252C65.6272 27.9363 65.3518 28.1877 65.0139 28.1877H59.842V30.1879H65.0139C65.3525 30.1879 65.6272 30.4395 65.6272 30.7504C65.6272 31.0615 65.3518 31.313 65.0139 31.313H59.842V33.3131H65.0139C65.3525 33.3131 65.6272 33.5652 65.6272 33.8756C65.6272 34.1862 65.3518 34.4382 65.0139 34.4382H59.842V36.4376H65.0139C65.3525 36.4376 65.6272 36.6904 65.6272 37.0009C65.6272 37.3113 65.3518 37.5634 65.0139 37.5634H59.842V39.5627H65.0139C65.3525 39.5627 65.6272 39.8156 65.6272 40.1254C65.6272 40.4365 65.3518 40.6886 65.0139 40.6886H59.842V42.688H65.0139C65.3525 42.688 65.6272 42.9402 65.6272 43.2506C65.6272 43.561 65.3518 43.8132 65.0139 43.8132H59.842V43.8759C59.842 44.7736 59.05 45.5009 58.0718 45.5009H57.0513V66.375C57.0513 67.2727 56.26 68 55.2815 68H52.5598C51.5828 68 50.7908 67.2727 50.7908 66.375V45.5009H49.7698C48.792 45.5009 48 44.7736 48 43.8759Z" fill="black"/>
</svg>
