<svg width="61" height="61" viewBox="0 0 61 61" fill="none" xmlns="http://www.w3.org/2000/svg">
<path fill-rule="evenodd" clip-rule="evenodd" d="M26.7473 20.2832C28.0151 20.4147 29.3142 19.8754 30.0971 18.7575C31.2465 17.1167 30.8481 14.8543 29.207 13.705C27.5664 12.5559 25.3039 12.954 24.1545 14.5951C24.0209 14.7855 23.9101 14.985 23.8181 15.1895L11.0236 6.22817C11.1845 6.07192 11.3339 5.89955 11.4675 5.70912C12.6169 4.06801 12.2182 1.80593 10.5773 0.656755C8.93623 -0.492781 6.67427 -0.0942214 5.52485 1.54689C4.74189 2.66481 4.6789 4.07033 5.23628 5.21681C3.96845 5.08473 2.66914 5.62441 1.88594 6.7422C0.736766 8.38307 1.1352 10.6454 2.77632 11.7948C4.41719 12.9441 6.67915 12.5455 7.82856 10.9044C7.96186 10.714 8.07295 10.5145 8.16474 10.3101L20.9592 19.2713C20.7988 19.4279 20.6489 19.6 20.5156 19.7904C19.3662 21.4317 19.7648 23.6939 21.4057 24.843C23.0468 25.9926 25.3085 25.5943 26.4584 23.9528C27.2414 22.835 27.3046 21.4291 26.7473 20.2832ZM9.80073 1.74855C8.76753 1.0248 7.33784 1.27638 6.61396 2.30971C6.51972 2.44447 6.33418 2.47707 6.19941 2.38283C6.0644 2.28822 6.03218 2.10292 6.12641 1.96828C7.03852 0.665788 8.84004 0.348772 10.1423 1.26088C10.277 1.35524 10.3098 1.54079 10.2155 1.67555C10.121 1.8102 9.9355 1.84291 9.80073 1.74855ZM25.8569 23.5315C24.9445 24.8339 23.1433 25.151 21.8408 24.2388C21.7062 24.1445 21.6735 23.9589 21.7678 23.8242C21.862 23.6896 22.0478 23.6569 22.1823 23.7512C23.2158 24.475 24.6452 24.2232 25.3686 23.1901C25.4631 23.0554 25.6486 23.0227 25.7832 23.117C25.9179 23.2113 25.9511 23.3969 25.8569 23.5315ZM4.42646 28.1989C3.95234 27.4938 3.12129 27.0592 2.21455 27.1359C0.883982 27.2486 -0.103811 28.4187 0.00873818 29.7497C0.121287 31.0802 1.29145 32.0683 2.62251 31.9557C2.7768 31.9426 2.92646 31.9142 3.07026 31.8739L3.94819 42.2505C3.79975 42.235 3.64765 42.2321 3.49311 42.2451C2.16206 42.3578 1.17451 43.528 1.28706 44.8587C1.39961 46.1897 2.57002 47.1773 3.90083 47.0647C4.80757 46.9881 5.5539 46.4199 5.90254 45.645C6.37666 46.3502 7.20771 46.7849 8.11445 46.7081C9.44526 46.5956 10.4331 45.4254 10.3205 44.0944C10.208 42.7637 9.03755 41.7761 7.70674 41.8887C7.5522 41.9018 7.40278 41.9301 7.25874 41.9704L6.38081 31.5938C6.52949 31.6091 6.68159 31.6122 6.83613 31.5991C8.16694 31.4866 9.15473 30.3161 9.04194 28.9854C8.92939 27.6544 7.75947 26.6668 6.42817 26.7794C5.52168 26.8561 4.7751 27.4242 4.42646 28.1989ZM2.17768 44.7899C2.24873 45.6279 2.98799 46.2523 3.82612 46.1814C3.93525 46.1721 4.03144 46.2532 4.04072 46.3624C4.05 46.4719 3.9687 46.5676 3.85957 46.5769C2.80342 46.6663 1.87153 45.8797 1.78218 44.8234C1.7729 44.7143 1.85395 44.6182 1.96333 44.6089C2.07246 44.5997 2.16841 44.6807 2.17768 44.7899ZM6.46943 27.2674C7.52583 27.1779 8.45747 27.9645 8.54682 29.0206C8.5561 29.13 8.47505 29.226 8.36592 29.2352C8.25679 29.2445 8.16059 29.1633 8.15132 29.0542C8.08052 28.2161 7.34101 27.5921 6.50312 27.663C6.39399 27.6721 6.29804 27.5912 6.28877 27.482C6.27949 27.3727 6.3603 27.2765 6.46943 27.2674ZM32.923 59.6426C31.538 58.4624 30.986 56.6699 31.3205 55.0037C29.7292 55.5989 27.8713 55.3374 26.4863 54.157C24.4526 52.4241 24.2092 49.3716 25.9421 47.3383C27.6745 45.3053 30.7277 45.0614 32.7609 46.7942C32.9968 46.9953 33.2067 47.216 33.394 47.4485L46.9033 31.5967C46.6435 31.4489 46.3928 31.2764 46.1567 31.0755C44.1235 29.3425 43.8798 26.2898 45.6123 24.2569C47.3452 22.2236 50.3984 21.9802 52.4311 23.7128C53.8164 24.8932 54.3686 26.6859 54.0334 28.3522C55.6254 27.757 57.4829 28.018 58.8681 29.1984C60.9013 30.9312 61.145 33.9839 59.4123 36.0172C57.6796 38.0502 54.6269 38.2937 52.5937 36.5609C52.3576 36.3599 52.1477 36.1395 51.9604 35.9066L38.4514 51.7586C38.7111 51.9063 38.9619 52.0786 39.1979 52.2798C41.2312 54.0127 41.4741 57.0662 39.7419 59.0986C38.009 61.1319 34.956 61.3753 32.923 59.6426ZM57.718 30.5477C58.9985 31.6389 59.152 33.5683 58.061 34.8486C57.9187 35.0154 57.9387 35.2659 58.1057 35.4081C58.2724 35.5502 58.5229 35.5303 58.665 35.3634C60.0402 33.7498 59.8466 31.3187 58.2331 29.9436C58.0661 29.8015 57.8159 29.8211 57.6735 29.9883C57.5312 30.155 57.5512 30.4057 57.718 30.5477ZM26.6892 47.9921C25.3142 49.6057 25.5078 52.0366 27.1213 53.4119C27.2883 53.554 27.5385 53.5335 27.6809 53.3665C27.8229 53.1997 27.8029 52.9492 27.6362 52.8069C26.3562 51.7163 26.2023 49.7872 27.2934 48.5069C27.4355 48.3401 27.4155 48.0896 27.2487 47.9474C27.082 47.8053 26.8315 47.8252 26.6892 47.9921Z" fill="black"/>
</svg>
