<svg width="70" height="68" viewBox="0 0 70 68" fill="none" xmlns="http://www.w3.org/2000/svg">
<path d="M9.93897 64.7863C10.2368 64.617 10.5506 64.4039 10.8776 64.1368C10.8776 64.1368 9.58425 63.3762 7.77563 64.3645C6.56696 65.0257 7.54791 65.3907 8.14056 65.3688C8.50112 65.3542 9.01203 65.2491 9.61199 64.9586C9.61199 64.9586 10.4908 65.3235 10.3754 66.3278L8.9843 67.2168C8.9843 67.2168 7.77563 67.8328 6.40639 67.2168C5.03715 66.6008 4.26203 65.9395 4.85468 63.9776C5.44734 62.0157 9.00619 61.5603 9.78132 61.6056C10.5564 61.6508 13.3621 62.153 14.1153 61.7194L16.8523 60.1677C16.8523 60.1677 15.5108 58.3839 16.6698 57.1563C17.0976 56.7023 19.3587 55.844 19.8171 55.6279C20.2053 55.4454 20.4564 55.9476 20.4564 55.9476C20.4564 55.9476 30.1944 53.2223 37.4347 48.5336C43.8211 44.3981 52.7007 39.2014 52.7007 39.2014C54.6465 37.6804 56.7427 36.4629 58.4784 34.5784C58.4784 34.5784 55.1516 29.2007 47.0442 30.0167C36.156 31.1115 29.8878 38.6175 18.6405 44.493C15.9648 45.8914 9.00035 46.8957 3.73944 43.8244C0.0900798 41.6947 0.576174 40.5998 0.0900799 38.0453C0.0900799 38.0453 -0.518634 33.9098 1.42866 30.443C3.37596 26.9761 8.84854 24.5427 14.9313 21.7458C21.014 18.9489 25.0882 16.3929 28.6164 15.4207C32.1446 14.4485 32.5095 14.7536 34.9415 12.9552C34.9415 12.9552 41.3278 0 55.2874 0C69.2469 0 69.5753 4.62593 69.8848 5.47404C70.3154 6.65935 69.4264 10.4912 69.0615 11.221C68.6966 11.9509 65.7056 20.5576 50.3578 20.8013C47.2559 20.851 39.1353 19.5241 37.7675 19.2496C36.3997 18.9752 35.0305 18.7927 33.3883 19.1577C31.7461 19.5226 10.8542 28.1001 8.11721 29.6503C5.38019 31.2006 -3.83517 34.9419 5.74513 39.6861C15.3254 44.4302 25.3612 35.0324 27.3683 34.212C29.3755 33.3916 41.2694 22.4129 52.0015 25.4535C54.8436 26.2593 59.7907 27.7205 60.122 31.1101C60.487 34.8514 59.7571 37.4964 59.7571 37.4964C59.7571 37.4964 58.8652 42.6099 48.8995 48.8094C38.6361 55.1958 26.1815 60.3969 25.4517 60.8523C25.4517 60.8523 25.5203 61.6056 25.3831 61.9705L22.7599 63.1792C22.7599 63.1792 21.8023 63.5441 20.525 63.1792C19.2478 62.8142 18.7456 61.9019 18.7456 61.9019L15.1415 64.0462C15.1415 64.0462 15.2787 65.2097 14.3197 65.506C13.3606 65.8023 13.2249 65.3688 13.0876 65.1177C13.0876 65.1177 12.5402 65.1863 12.2658 64.9352L10.6236 66.1891C10.6265 66.1891 10.5769 64.9907 9.93897 64.7863ZM54.8378 14.3537C63.278 14.1216 66.688 9.13945 66.688 9.13945C66.688 9.13945 65.6413 5.17625 56.1939 5.02152C44.494 4.83029 39.4272 13.2691 39.4272 13.2691C44.9246 13.7318 46.3975 14.5858 54.8378 14.3537Z" fill="black"/>
</svg>
