<svg width="30" height="65" viewBox="0 0 30 65" fill="none" xmlns="http://www.w3.org/2000/svg">
<path fill-rule="evenodd" clip-rule="evenodd" d="M27.5 15C27.5 12.2388 25.2612 10 22.5 10H21.25C19.8687 10 18.75 8.88135 18.75 7.5V3.75C18.75 1.67871 17.0712 0 15 0C12.9288 0 11.25 1.67871 11.25 3.75V7.5C11.25 8.88135 10.1313 10 8.75 10H7.5C4.73877 10 2.5 12.2388 2.5 15H27.5ZM26.25 17.5C28.3212 17.5 30 19.1787 30 21.25C30 23.3213 28.3212 25 26.25 25H3.75C1.67877 25 0 23.3213 0 21.25C0 19.1787 1.67877 17.5 3.75 17.5H26.25ZM2.5 60V27.5H27.5V60C27.5 62.7612 25.2612 65 22.5 65H7.5C4.73877 65 2.5 62.7612 2.5 60ZM21.25 56.25V62.5H23.75V30H21.25V35H16.25V37.5H21.25V41.25H16.25V43.75H21.25V47.5H16.25V50H21.25V53.75H16.25V56.25H21.25Z" fill="black"/>
</svg>
