<svg width="109" height="67" viewBox="0 0 109 67" fill="none" xmlns="http://www.w3.org/2000/svg">
<path fill-rule="evenodd" clip-rule="evenodd" d="M93.2271 0.0234201C92.3636 -0.12575 91.5428 0.45323 91.3936 1.31663L91.0393 3.36827C89.6062 3.23948 88.1714 3.33763 86.7869 3.64744L86.5332 2.56505C86.3333 1.71202 85.4795 1.18272 84.6265 1.38267C83.7735 1.58262 83.2442 2.43638 83.4441 3.28941L83.7742 4.69713C81.2564 5.9149 79.0838 7.90684 77.6519 10.555C76.7422 12.2372 76.2178 14.0243 76.0484 15.8153C76.0943 15.7235 76.1419 15.6322 76.191 15.5414C78.6997 10.902 84.48 9.16661 89.1018 11.6656C93.7234 14.1647 95.4363 19.9518 92.9275 24.5913C91.0848 27.999 87.4771 29.8402 83.8597 29.5869C87.3006 31.2292 91.1175 31.3209 94.4803 30.1095L95.971 31.8533C96.6961 32.7014 97.9715 32.8014 98.8196 32.0763C99.6678 31.3512 99.7676 30.0758 99.0425 29.2276L98.1163 28.144C99.2837 27.264 100.325 26.187 101.185 24.9291L104.376 26.2828C105.403 26.7186 106.589 26.2391 107.025 25.212C107.461 24.1848 106.981 22.9986 105.954 22.5628L102.96 21.2926C103.358 20.0417 103.568 18.7615 103.601 17.4883L106.676 17.2954C107.79 17.2254 108.636 16.2661 108.566 15.1523C108.496 14.0388 107.537 13.1925 106.423 13.2624L103.111 13.4702C102.728 12.0738 102.127 10.7383 101.324 9.51866L103.207 7.51524C103.972 6.70225 103.932 5.42369 103.119 4.65928C102.306 3.89488 101.028 3.93419 100.263 4.74705L98.6172 6.49754C97.9302 5.92845 97.1778 5.41783 96.3631 4.9774C95.6412 4.58702 94.8997 4.26756 94.147 4.01671L94.5203 1.85667C94.6695 0.993269 94.0904 0.172468 93.2271 0.0234201ZM46.7957 26.733C45.958 25.3033 46.438 23.4654 47.8675 22.6279C49.2972 21.7904 51.135 22.2704 51.9725 23.6998L60.5662 38.3679C61.4036 39.7975 60.9239 41.6354 59.4942 42.4729C58.0645 43.3104 56.2268 42.8304 55.3892 41.401L46.7957 26.733ZM56.3247 21.4136C54.8953 22.2512 54.4153 24.0891 55.253 25.5185L61.8245 36.7352C62.6619 38.1649 64.4998 38.6448 65.9295 37.8072C67.3589 36.9697 67.8389 35.1317 67.0015 33.7023L60.4297 22.4856C59.5923 21.056 57.7544 20.576 56.3247 21.4136ZM63.71 24.3043C62.8726 22.8746 63.3526 21.0367 64.782 20.1992C66.2117 19.3617 68.0496 19.8417 68.887 21.2711L74.4478 30.7622C75.2852 32.1918 74.8052 34.0296 73.3758 34.8673C71.9461 35.7047 70.1084 35.2248 69.2708 33.7953L63.71 24.3043ZM72.4768 17.7938C71.0474 18.6312 70.5674 20.4691 71.4051 21.8988L76.46 30.527C77.2976 31.9565 79.1355 32.4365 80.565 31.5989C81.9947 30.7613 82.4746 28.9234 81.637 27.4939L76.5818 18.8657C75.7444 17.436 73.9065 16.9562 72.4768 17.7938ZM31.7864 60.3625C33.8846 59.9592 35.8921 59.2312 37.7413 58.2219L38.5462 59.6616C39.1812 60.7971 40.6165 61.2031 41.752 60.5681C42.8875 59.9331 43.2933 58.498 42.6582 57.3625L41.6109 55.4895C44.7056 52.72 46.9903 48.987 47.949 44.6208C50.3775 33.5625 43.3816 22.6294 32.3233 20.2009C26.3877 18.8976 20.4883 20.3092 15.9207 23.6069L13.0779 21.7284C11.6958 20.8148 9.83476 21.1948 8.92118 22.577C8.00761 23.9593 8.38749 25.8204 9.76982 26.7339L11.5367 27.9017C10.2312 29.6357 9.18681 31.5992 8.47465 33.7466L3.36454 33.1214C1.72001 32.9203 0.223673 34.0904 0.0225009 35.7351C-0.178671 37.3797 0.991495 38.876 2.63603 39.0771L7.43022 39.6636C7.3748 41.6116 7.59965 43.5245 8.07426 45.355L3.76322 46.8905C2.20243 47.4465 1.38798 49.1625 1.94389 50.7232C2.4998 52.284 4.21562 53.0986 5.77641 52.5427L10.419 50.8891C11.5379 52.7254 12.9434 54.3856 14.5892 55.7975L12.7215 59.4282C11.9634 60.9016 12.5435 62.7102 14.0169 63.4682C15.49 64.2261 17.2989 63.6462 18.0567 62.1728L19.6888 59.0005C20.9026 59.5315 22.1861 59.9519 23.5293 60.2468C24.7195 60.5083 25.9082 60.6601 27.0852 60.7099L27.4375 63.9448C27.5787 65.2383 28.7413 66.1723 30.0345 66.0315C31.3277 65.8906 32.262 64.728 32.1211 63.4348L31.7864 60.3625ZM27.7749 52.5685C35.8665 54.3456 43.8392 49.3496 45.5828 41.4104C47.3262 33.4709 42.1802 25.5945 34.0887 23.8176C25.9971 22.0408 18.0245 27.0364 16.281 34.9758C14.5376 42.915 19.6836 50.7915 27.7749 52.5685Z" fill="black"/>
</svg>
