<svg width="70" height="70" viewBox="0 0 70 70" fill="none" xmlns="http://www.w3.org/2000/svg">
<path fill-rule="evenodd" clip-rule="evenodd" d="M60.1685 18.7606V14.7473C62.5715 14.7473 64.5381 12.7812 64.5381 10.3778V4.36963C64.5381 1.96606 62.5715 0 60.1685 0H39.4128C37.0098 0 35.0432 1.96606 35.0432 4.36963V10.3778C35.0432 12.7812 37.0098 14.7473 39.4128 14.7473V18.7606C33.825 19.7618 29.5813 24.6738 29.5813 30.5872V65.5437C29.5813 67.9568 31.5244 69.9133 33.9216 69.9133H65.6597C68.0569 69.9133 70 67.9568 70 65.5437V30.5872C70 24.6738 65.7561 19.7618 60.1685 18.7606ZM59.0759 6.28125C59.0759 5.97937 59.3206 5.73511 59.6223 5.73511C59.9238 5.73511 60.1685 5.97937 60.1685 6.28125V8.46606C60.1685 8.76794 59.9238 9.01221 59.6223 9.01221C59.3206 9.01221 59.0759 8.76794 59.0759 8.46606V6.28125ZM55.7988 6.28125C55.7988 5.97937 56.0435 5.73511 56.345 5.73511C56.6465 5.73511 56.8911 5.97937 56.8911 6.28125V8.46606C56.8911 8.76794 56.6465 9.01221 56.345 9.01221C56.0435 9.01221 55.7988 8.76794 55.7988 8.46606V6.28125ZM52.5215 6.28125C52.5215 5.97937 52.7661 5.73511 53.0679 5.73511C53.3694 5.73511 53.614 5.97937 53.614 6.28125V8.46606C53.614 8.76794 53.3694 9.01221 53.0679 9.01221C52.7661 9.01221 52.5215 8.76794 52.5215 8.46606V6.28125ZM49.2444 6.28125C49.2444 5.97937 49.489 5.73511 49.7905 5.73511C50.0923 5.73511 50.3369 5.97937 50.3369 6.28125V8.46606C50.3369 8.76794 50.0923 9.01221 49.7905 9.01221C49.489 9.01221 49.2444 8.76794 49.2444 8.46606V6.28125ZM45.9673 6.28125C45.9673 5.97937 46.2119 5.73511 46.5134 5.73511C46.8149 5.73511 47.0596 5.97937 47.0596 6.28125V8.46606C47.0596 8.76794 46.8149 9.01221 46.5134 9.01221C46.2119 9.01221 45.9673 8.76794 45.9673 8.46606V6.28125ZM42.6902 6.28125C42.6902 5.97937 42.9346 5.73511 43.2363 5.73511C43.5378 5.73511 43.7825 5.97937 43.7825 6.28125V8.46606C43.7825 8.76794 43.5378 9.01221 43.2363 9.01221C42.9346 9.01221 42.6902 8.76794 42.6902 8.46606V6.28125ZM41.5977 14.7473H57.9836V18.5707H41.5977V14.7473ZM39.4128 6.28125C39.4128 5.97937 39.6575 5.73511 39.959 5.73511C40.2607 5.73511 40.5054 5.97937 40.5054 6.28125V8.46606C40.5054 8.76794 40.2607 9.01221 39.959 9.01221C39.6575 9.01221 39.4128 8.76794 39.4128 8.46606V6.28125ZM63.4456 51.3427C63.4456 52.5443 62.4624 53.5273 61.2607 53.5273H38.3206C37.1187 53.5273 36.1357 52.5443 36.1357 51.3427V40.4186C36.1357 39.2169 37.1187 38.2338 38.3206 38.2338H61.2607C62.4624 38.2338 63.4456 39.2169 63.4456 40.4186V51.3427ZM24.7227 45.6525C23.5147 44.3392 21.8689 43.6799 20.2022 43.6799C18.5964 43.6799 16.9707 44.2924 15.6995 45.5223L2.06617 58.7128C-0.524411 61.219 -0.70361 65.3792 1.66822 67.957C2.87647 69.2703 4.52198 69.9294 6.18872 69.9294C7.79444 69.9294 9.42017 69.3171 10.6914 68.0872L24.3247 54.8967C26.9155 52.3904 27.0945 48.2305 24.7227 45.6525ZM16.2422 60.3037L9.6836 53.7451L11.2283 52.2004L17.7871 58.759L16.2422 60.3037ZM24.6655 61.7202H20.4138L24.998 57.2852C26.1499 58.6239 26.8503 60.3618 26.8503 62.2664C26.8503 66.4893 23.4272 69.9133 19.2034 69.9133C17.2083 69.9133 15.3977 69.1426 14.0361 67.8911L19.2849 62.8127H24.6655V61.7202Z" fill="black"/>
</svg>
