<svg width="50" height="80" viewBox="0 0 50 80" fill="none" xmlns="http://www.w3.org/2000/svg">
<path fill-rule="evenodd" clip-rule="evenodd" d="M25 20C38.8071 20 50 15.5229 50 10C50 4.47705 38.8071 0 25 0C11.1929 0 0 4.47705 0 10C0 15.5229 11.1929 20 25 20ZM46 9C46 13.4182 36.3741 17 24.5 17C12.6259 17 3 13.4182 3 9C3 4.58179 12.6259 1 24.5 1C36.3741 1 46 4.58179 46 9ZM43.6499 11.363C44.6152 10.5139 45 9.71289 45 9C45 8.28711 44.6152 7.48608 43.6499 6.63696C42.6863 5.78906 41.2344 4.97998 39.354 4.28027C35.6012 2.88403 30.3496 2 24.5 2C18.6504 2 13.3988 2.88403 9.646 4.28027C7.76562 4.97998 6.31372 5.78906 5.3501 6.63696C4.38477 7.48608 4 8.28711 4 9C4 9.71289 4.38477 10.5139 5.3501 11.363C6.31372 12.2109 7.76562 13.02 9.646 13.7197C13.3988 15.116 18.6504 16 24.5 16C30.3496 16 35.6012 15.116 39.354 13.7197C41.2344 13.02 42.6863 12.2109 43.6499 11.363ZM0 70V58C0 63.5229 11.1929 68 25 68C38.8071 68 50 63.5229 50 58V70C50 75.5229 38.8071 80 25 80C11.1929 80 0 75.5229 0 70ZM50 14C50 19.5229 38.8071 24 25 24C11.1929 24 0 19.5229 0 14V20V22V56C0 61.5229 11.1929 66 25 66C38.8071 66 50 61.5229 50 56V22V20V14ZM8.78638 36.8572C6.83008 41.0625 8.64856 46.0588 12.8569 48.0183C18.4703 50.6306 25.2747 49.4363 28.2135 47.7744L33.5975 50.2803C33.3696 50.5186 33.1661 50.7861 33.0211 51.1023C32.3027 52.6533 32.9724 54.4961 34.5242 55.2158C36.0726 55.9365 37.9113 55.2654 38.6344 53.7144C39.1217 52.6653 38.9579 51.4866 38.3247 50.6079C39.4087 50.5251 40.4164 49.8928 40.9037 48.8372C41.6268 47.2896 40.9547 45.4485 39.403 44.7261C37.8562 44.0037 36.0126 44.6765 35.2952 46.2275C35.1451 46.5461 35.069 46.8801 35.0356 47.2126L29.6631 44.7124C29.1183 41.4719 25.9517 35.582 19.9442 32.7876C15.7383 30.8296 10.7427 32.6472 8.78638 36.8572Z" fill="black"/>
</svg>
