<svg width="26" height="23" viewBox="0 0 26 23" fill="none" xmlns="http://www.w3.org/2000/svg">
<path d="M25.92 5.26716L23.1343 12.5303C22.9531 13.0027 22.4912 13.3158 21.975 13.3158H9.37646L9.86364 14.8792C10.0232 15.3922 10.4996 15.7368 11.0479 15.7368H22.2857V18.1579H11.0479C9.40238 18.1579 7.97446 17.1241 7.49506 15.5849L3.64173 3.21901C3.48273 2.75383 3.01059 2.42105 2.47678 2.42105H0V0H2.47678C4.0776 0 5.49404 0.997739 6.00064 2.48312L6.35853 3.63158H24.7608C25.6253 3.63158 26.2236 4.47579 25.92 5.26716ZM9.2857 19.3684C8.26003 19.3684 7.42856 20.1814 7.42856 21.1842C7.42856 22.187 8.26003 23 9.2857 23C10.3114 23 11.1428 22.187 11.1428 21.1842C11.1428 20.1814 10.3114 19.3684 9.2857 19.3684ZM21.6667 19.3684C20.641 19.3684 19.8095 20.1814 19.8095 21.1842C19.8095 22.187 20.641 23 21.6667 23C22.6923 23 23.5238 22.187 23.5238 21.1842C23.5238 20.1814 22.6923 19.3684 21.6667 19.3684Z" fill="#fff"/>
</svg>
