<svg width="91" height="91" viewBox="0 0 91 91" fill="none" xmlns="http://www.w3.org/2000/svg">
<path fill-rule="evenodd" clip-rule="evenodd" d="M56.9 45.125L88.3 76.525C91.4 79.625 91.4 84.825 88.3 87.925C85.2 91.025 80 91.025 76.9 87.925L45.5 56.525L14.1 87.825C11 90.925 5.8 90.925 2.7 87.825C-0.4 84.725 -0.4 79.525 2.7 76.425L34.1 45.025L2.7 13.725C-0.4 10.625 -0.4 5.425 2.7 2.325C5.8 -0.775 11 -0.775 14.1 2.325L45.5 33.725L76.8 2.325C79.9 -0.775 85.1 -0.775 88.2 2.325C91.3 5.425 91.3 10.625 88.2 13.725L56.9 45.125Z" fill="white"/>
</svg>
