<svg width="512" height="512" viewBox="0 0 512 512" fill="none" xmlns="http://www.w3.org/2000/svg">
<path fill-rule="evenodd" clip-rule="evenodd" d="M336.471 126.832L419.404 58.936C375.068 22.126 318.115 0 256 0C157.06 0 71.23 56.123 28.624 138.268C10.324 173.517 0 213.549 0 256C0 299.9 11.042 341.211 30.509 377.318C73.748 457.509 158.509 512 256 512C316.666 512 372.396 490.901 416.268 455.638C461.377 419.376 493.94 368.134 506.402 309.451C510.073 292.206 512 274.328 512 256C512 239.655 510.467 223.662 507.527 208.176H400.515H261.628V309.451H398.518C386.196 342.337 362.804 369.808 332.872 387.362C310.323 400.598 284.047 408.18 256 408.18C190.748 408.18 135.089 367.107 113.47 309.408C107.225 292.797 103.821 274.792 103.819 256C103.819 238.685 106.717 222.045 112.035 206.544C132.571 146.777 189.271 103.82 256 103.82C285.552 103.82 313.136 112.246 336.471 126.832Z" fill="white"/>
</svg>
