<svg width="512" height="512" viewBox="0 0 512 512" fill="none" xmlns="http://www.w3.org/2000/svg">
<path d="M113.47 171.14L95.648 237.672L30.509 239.05C11.042 202.943 0 161.632 0 117.732C0 75.281 10.324 35.249 28.624 0H28.638L86.63 10.632L112.034 68.276C106.717 83.777 103.819 100.417 103.819 117.732C103.821 136.524 107.225 154.529 113.47 171.14Z" transform="translate(0 138.268)" fill="#FBBB00"/>
<path d="M245.899 0C248.839 15.486 250.372 31.479 250.372 47.824C250.372 66.152 248.445 84.03 244.774 101.275C232.312 159.958 199.749 211.2 154.64 247.462L154.626 247.448L81.582 243.721L71.244 179.186C101.176 161.632 124.568 134.161 136.89 101.275H0V0H138.887H245.899Z" transform="translate(261.628 208.176)" fill="#518EF8"/>
<path d="M385.744 146.215L385.758 146.229C341.887 181.492 286.157 202.591 225.491 202.591C128 202.591 43.239 148.1 0 67.91L82.961 0C104.58 57.698 160.239 98.771 225.491 98.771C253.538 98.771 279.814 91.189 302.361 77.953L385.744 146.215Z" transform="translate(30.509 309.409)" fill="#28B446"/>
<path d="M390.78 58.936L307.847 126.832C284.512 112.246 256.928 103.82 227.376 103.82C160.647 103.82 103.947 146.777 83.411 206.544L0.0139999 138.268H0C42.606 56.123 128.436 0 227.376 0C289.491 0 346.444 22.126 390.78 58.936Z" transform="translate(28.624)" fill="#F14336"/>
</svg>
