<svg width="932" height="422" viewBox="0 0 932 422" fill="none" xmlns="http://www.w3.org/2000/svg">
<path fill-rule="evenodd" clip-rule="evenodd" d="M95.7706 18.6199C93.9656 17.48 93.0156 15.865 93.0156 13.6799C93.0156 12.635 93.3007 11.5898 93.9656 10.5449C94.8207 9.21484 96.0557 8.35986 97.6707 8.07495L100.711 7.40991C102.991 6.93506 105.556 6.55493 108.311 6.45996L109.495 6.41553C111.553 6.3374 113.33 6.27002 114.771 6.27002L118.951 6.07983C119.192 6.06567 119.422 6.05151 119.642 6.03784C120.897 5.96069 121.819 5.90405 122.466 5.98486H124.271C125.886 5.98486 127.216 6.55493 128.356 7.69482C129.496 8.92993 130.066 10.26 130.066 11.875C130.066 13.49 129.496 14.8198 128.356 15.96C127.216 17.0999 125.886 17.6699 124.271 17.6699H121.611L119.806 17.7649H118.666V20.8049L118.856 29.7349C118.951 33.7249 118.951 38.3799 118.951 43.7949C118.951 49.21 118.856 53.4849 118.666 56.8101C118.476 60.135 118.096 63.0798 117.621 65.4548C117.146 67.8298 116.671 69.54 116.291 70.585L115.911 71.6299C115.436 73.1499 114.391 74.29 112.966 74.9548C112.016 75.335 111.161 75.5249 110.306 75.5249C109.641 75.5249 109.071 75.4299 108.406 75.24C107.551 74.9548 106.886 74.385 106.221 73.72C106.126 73.8149 105.936 73.8149 105.746 73.8149C104.131 73.8149 102.801 73.2449 101.661 72.105C100.521 70.8699 99.9507 69.54 99.9507 67.925V67.26L100.046 64.4099V59.375C100.141 57.4749 100.141 53.865 100.141 48.6399V33.6299C100.141 28.8799 100.236 25.0798 100.331 22.135C100.331 20.8999 100.331 19.95 100.426 19.4749H100.046C99.6656 19.5698 99.2856 19.5698 98.9056 19.5698C97.7656 19.5698 96.7206 19.2849 95.7706 18.6199ZM169.06 67.519C168.866 67.6492 168.667 67.783 168.468 67.925C167.898 69.54 166.853 70.7749 165.333 71.4399L164.288 71.8198C162.863 72.4849 160.963 72.77 158.588 72.77C156.213 72.77 153.838 72.2949 151.653 71.345C150.228 70.7749 149.278 70.395 148.708 70.2048C148.233 70.0149 147.758 69.825 147.283 69.54C146.808 69.2549 146.428 68.97 146.143 68.5898C145.763 68.3049 145.478 68.02 145.383 67.8298L144.528 66.7849C144.148 66.3101 143.863 66.0249 143.673 65.9299C141.868 63.6499 140.633 61.4648 140.158 59.47C139.778 57.855 139.588 56.05 139.588 54.1499V49.4949C139.588 47.595 139.683 45.6948 139.968 43.7949C140.253 41.6099 140.918 39.0449 142.058 36.0999L144.338 30.4949C145.003 29.0698 146.048 27.3599 147.568 25.365C148.993 23.5601 150.418 21.9448 151.843 20.71C154.123 18.6199 156.688 17.575 159.633 17.575H163.338C165.143 17.575 166.948 17.9548 168.848 18.7148C170.843 19.5698 172.648 20.71 174.073 22.325C175.213 23.5601 176.163 24.7949 176.923 26.03C177.778 27.2649 178.538 28.7849 179.013 30.3999C179.678 32.2048 179.963 33.8198 179.963 35.4351C179.963 36.48 179.963 38.4749 179.868 41.325C179.773 44.5549 179.203 48.165 178.063 52.25C176.923 56.5249 175.498 59.9448 173.693 62.415C172.078 64.5999 170.938 65.9299 170.273 66.595C169.94 66.9277 169.514 67.2139 169.06 67.519ZM164.573 29.6399C164.098 29.45 163.718 29.355 163.433 29.355C163.148 30.3999 162.578 31.3499 161.723 32.1099C160.868 32.9648 159.918 33.4399 158.873 33.6299C158.84 33.7937 158.796 33.98 158.749 34.1812C158.658 34.5635 158.555 34.9993 158.493 35.4351C158.208 37.335 157.923 39.71 157.638 42.655C157.353 45.5999 157.258 48.355 157.258 50.825V55.9548C157.258 56.24 157.258 56.6199 157.353 57C157.463 57.0735 157.573 57.1609 157.694 57.2573C157.886 57.4102 158.106 57.585 158.398 57.76C158.873 58.0449 159.443 58.3298 160.203 58.425H160.678C161.058 58.425 161.343 58.425 161.533 58.3298L162.293 58.0449C162.569 57.7136 162.877 57.2861 163.254 56.7627C163.526 56.385 163.835 55.9575 164.193 55.48C165.143 54.2449 165.998 52.155 166.853 49.21C167.708 46.075 168.088 43.3198 168.183 40.9448C168.278 38.1899 168.278 36.385 168.278 35.4351C168.278 35.1499 168.183 34.675 167.993 34.2C167.708 33.4399 167.423 32.7749 167.138 32.3C166.758 31.635 166.188 30.97 165.523 30.3049C165.238 30.02 164.858 29.7349 164.573 29.6399ZM199.76 72.105C198.525 71.0601 197.67 69.825 197.29 68.3999C197.195 68.4949 197.1 68.4949 196.91 68.4949C196.625 68.5898 196.245 68.5898 195.96 68.5898C194.725 68.5898 193.585 68.21 192.54 67.45C191.21 66.595 190.45 65.3599 190.07 63.7449L189.88 62.7C189.69 61.655 189.595 60.325 189.595 58.8049V54.8149C189.595 53.4849 189.595 52.345 189.5 51.3C189.5 49.97 189.5 47.595 189.69 44.175C189.88 40.8499 190.165 37.6199 190.545 34.5798C191.02 31.825 191.305 29.5449 191.495 27.835C191.78 25.7449 192.16 24.0349 192.635 22.6099L193.205 21.0898C193.775 19.5698 194.82 18.4299 196.245 17.7649C197.1 17.385 197.86 17.1948 198.715 17.1948C199.38 17.1948 200.045 17.29 200.71 17.575C201.47 17.8599 202.04 18.24 202.61 18.7148C202.99 18.6199 203.37 18.5249 203.75 18.5249C204.035 18.5249 204.32 18.5249 204.51 18.6199L205.935 18.8101C206.79 18.905 207.645 19.095 208.595 19.3799L208.603 19.3823C209.455 19.6667 210.308 19.9512 211.16 20.3298C212.87 20.9949 214.675 21.9448 216.48 22.99C218.285 23.9399 220.28 25.175 222.465 26.5999C225.03 28.2148 227.12 29.925 228.735 31.635L229.305 32.2048L229.308 32.2073C229.591 32.4912 229.78 32.6802 229.78 32.7749L230.35 33.345C230.635 33.6299 230.825 33.915 230.825 34.01L231.3 34.675C231.49 34.96 231.68 35.2449 231.68 35.53L231.965 36.385C232.155 36.6699 232.25 37.05 232.25 37.335L232.44 38.4749C232.535 39.8999 232.345 41.325 231.965 42.845C231.585 44.7449 230.445 46.55 228.545 48.355C227.215 49.5898 225.98 50.635 224.84 51.395C226.36 52.8198 227.405 54.3398 227.975 56.05C228.545 57.3799 228.83 58.8049 228.83 60.135C228.83 61.1799 228.64 62.2249 228.26 63.27C227.595 65.3599 226.55 66.9749 225.03 68.21C224.27 68.875 223.13 69.635 221.8 70.49C220.28 71.345 218.285 72.2 215.72 72.96C213.155 73.8149 210.685 74.1948 208.215 74.1948C206.22 74.0999 204.605 74.0049 203.37 73.8149C202.23 73.625 200.995 73.0549 199.76 72.105ZM209.545 44.5549L210.4 44.365C210.97 44.27 211.92 44.0798 213.345 43.7C214.865 43.3198 215.91 42.9399 216.48 42.655C217.24 42.3699 218 41.99 218.57 41.5149C219.14 41.23 219.71 40.6599 220.375 39.9949L220.47 39.8999L220.28 39.71C219.33 38.665 217.905 37.5249 216.195 36.385L215.487 35.946C213.771 34.8811 212.202 33.9077 210.78 33.155L210.21 32.8699V32.9648C210.02 34.96 209.83 38.1899 209.64 42.655L209.545 44.5549ZM210.115 56.05L209.07 55.7649C209.07 56.3948 209.045 57 209.021 57.593C208.998 58.1628 208.975 58.7214 208.975 59.28L208.785 62.51C209.925 62.415 211.065 62.2249 212.3 61.845C213.915 61.3699 215.055 60.895 215.72 60.4199C216.1 60.23 216.48 60.04 216.765 59.7549L216.48 59.5649C215.435 58.71 214.77 58.2349 214.39 58.0449L212.87 57.2849L210.78 56.335L210.115 56.05ZM247.712 39.8999C246.667 39.8999 245.717 39.71 244.767 39.1399C242.962 38.095 241.917 36.385 241.917 34.105C241.917 33.0601 242.202 32.1099 242.772 31.1599L243.152 30.3999L244.007 29.165C244.2 28.9075 244.437 28.6934 244.658 28.4937C244.764 28.3984 244.865 28.3066 244.957 28.2148L245.812 27.55C245.996 27.4885 246.18 27.3877 246.389 27.2729C246.504 27.2097 246.627 27.1423 246.762 27.075L247.617 26.79C247.807 26.6948 248.092 26.5999 248.472 26.5049L249.232 26.3149C250.087 25.365 251.037 24.7 252.177 24.415C253.678 24.0234 254.663 23.7439 255.376 23.542C256.738 23.1555 257.102 23.0522 258.162 22.99C259.492 22.895 260.917 22.8 262.342 22.8C263.197 22.8 263.957 22.895 264.812 23.085C266.617 23.4648 268.232 24.3198 269.847 25.6499C271.937 27.2649 273.362 29.0698 274.122 31.0649C274.597 32.49 275.167 35.1499 275.737 39.0449C276.307 42.9399 276.592 46.3599 276.687 49.4949V65.4548C276.687 67.0698 276.117 68.3999 274.977 69.54C273.837 70.6799 272.507 71.25 270.892 71.25C268.707 71.25 267.092 70.3 265.952 68.4949C264.812 69.1599 263.482 69.825 262.057 70.395C260.157 71.0601 258.257 71.4399 256.262 71.4399C254.077 71.4399 251.987 71.0601 250.087 70.395L249.612 70.2048C249.528 70.177 249.461 70.1572 249.406 70.1411C249.271 70.1018 249.204 70.082 249.137 70.0149L248.662 69.825C248.578 69.7971 248.511 69.7776 248.456 69.7612C248.321 69.7219 248.254 69.7021 248.187 69.635L247.712 69.3499C247.427 69.2549 247.237 69.0649 247.142 68.97L246.667 68.5898C246.382 68.4949 246.192 68.3049 246.097 68.115L245.622 67.6399C245.432 67.45 245.242 67.26 245.052 66.9749C244.007 65.645 243.532 63.8398 243.532 61.75C243.532 60.4199 243.627 58.9949 243.817 57.4749C244.102 55.8599 244.482 54.3398 245.147 52.915C245.622 51.6799 246.382 50.3499 247.332 48.925C248.187 47.5 249.422 45.885 251.037 44.0798C252.937 41.99 254.837 40.5649 256.642 39.8049C258.352 39.0449 259.872 38.665 261.202 38.5698L260.822 37.8101C260.632 37.5249 260.442 37.24 260.157 36.9548H257.212C254.932 36.9548 254.837 36.9548 252.462 37.5249C251.322 39.0449 249.707 39.8999 247.712 39.8999ZM263.102 50.2549H261.867L261.392 50.4448C261.012 50.73 260.442 51.2048 259.682 51.9648C258.849 52.9495 258.136 53.8738 257.545 54.6414C257.394 54.8364 257.252 55.0215 257.117 55.1948C256.547 56.145 256.072 57 255.787 57.665C255.597 58.1399 254.837 60.7048 254.837 61.2749C254.742 61.4648 254.742 61.5601 254.742 61.75C254.932 61.845 255.217 61.845 255.502 61.845C256.167 61.845 256.832 61.75 257.497 61.5601C258.257 61.2749 258.827 60.99 259.207 60.6099L261.772 59.28L263.292 58.3298L263.102 50.2549ZM301.655 83.4099C300.8 84.1699 299.755 84.645 298.615 84.835L298.805 86.26L298.9 87.02C299.09 88.54 298.71 89.9648 297.76 91.2949C296.525 92.8149 295.005 93.575 293.01 93.575C291.775 93.575 290.635 93.1948 289.59 92.3398C288.26 91.2949 287.5 90.0601 287.31 88.4448L287.215 87.6851L286.74 85.2148C286.36 83.5999 286.17 80.1799 286.17 74.9548C286.17 67.355 286.455 61.655 287.025 57.665C287.472 54.7173 287.834 51.0137 288.271 46.554L288.355 45.6948C288.83 40.7549 289.305 36.0049 289.97 31.54C290.635 26.5049 291.49 23.085 292.345 21.0898L293.39 18.8101C294.055 17.385 295.1 16.3398 296.62 15.675C297.38 15.3899 298.14 15.2949 298.805 15.2949C299.565 15.2949 300.325 15.4849 301.085 15.77C301.655 16.0549 302.225 16.4351 302.7 16.9099C304.22 17.0999 305.455 17.7649 306.5 19C307.545 20.2349 307.925 21.6599 307.83 23.2749V23.3699C309.16 23.2749 310.395 23.5601 311.535 24.2249L312.39 24.7949C312.865 25.175 313.625 25.6499 314.48 26.125L314.624 26.2258C315.554 26.8762 316.741 27.7065 318.185 28.8799C319.8 30.115 321.415 31.54 323.03 33.155C325.12 35.3398 326.545 37.6199 327.4 40.1851C328.065 42.3699 328.445 44.6499 328.445 46.835C328.35 48.925 328.065 51.2048 327.4 53.675C326.735 56.24 325.69 58.52 324.36 60.6099C323.125 62.605 321.89 64.22 320.655 65.645C319.04 67.26 317.33 68.4949 315.525 69.2549C314.1 69.825 312.675 70.1099 311.06 70.1099C310.3 70.1099 309.54 70.0149 308.78 69.9199C306.975 69.635 305.645 69.0649 304.6 68.4949C304.505 68.78 304.505 69.1599 304.505 69.4448C304.419 72.6252 304.255 74.8721 304.154 76.2563L304.125 76.665C303.935 78.0898 303.745 79.135 303.555 79.8L303.365 80.5601C303.08 81.7 302.51 82.6499 301.655 83.4099ZM306.025 52.8198L305.835 54.9099C307.64 55.1948 308.97 56.145 309.825 57.665L310.3 58.3298C310.395 58.3298 310.585 58.3298 310.68 58.425H311.06C311.345 58.3298 311.725 58.0449 312.2 57.5698C312.865 56.8101 313.625 55.7649 314.48 54.53C315.145 53.2949 315.715 52.0601 316.095 50.635C316.57 49.115 316.76 47.7849 316.76 46.74C316.76 45.6948 316.57 44.7449 316.285 43.7C316 42.9399 315.525 42.1799 314.765 41.4199C313.53 40.1851 312.295 39.0449 311.06 38.095L308.02 35.9099L307.165 35.3398C307.07 37.5249 306.975 39.8999 306.88 42.3699C306.785 45.885 306.5 49.3999 306.025 52.8198ZM386.863 31.635C386.767 31.73 386.767 31.825 386.767 31.9199C388.478 33.155 389.238 34.865 389.047 36.9548V37.905C388.953 38.4749 388.953 39.1399 388.953 39.9949V62.415C388.953 63.8398 388.478 65.075 387.623 66.1199C386.672 67.165 385.532 67.8298 384.108 68.115C383.062 69.1599 381.733 69.635 380.307 69.635C379.167 69.635 378.123 69.2549 377.172 68.5898C375.938 67.8298 375.177 66.7849 374.797 65.4548L374.417 65.835C373.373 66.7849 372.233 67.6399 370.807 68.3049C369.573 68.97 367.863 69.54 365.772 70.1099C363.777 70.6799 361.498 71.0601 358.932 71.345L358.794 71.3528C357.135 71.4448 355.564 71.5322 353.993 71.4399C353.422 71.6299 352.757 71.7249 352.188 71.7249C351.047 71.7249 349.907 71.345 348.863 70.585C346.583 69.73 345.157 68.3999 344.493 66.405C344.445 66.405 344.421 66.405 344.409 66.3931C344.397 66.3813 344.397 66.3574 344.397 66.3101C343.733 65.4548 342.973 64.3149 342.307 62.8899C341.453 61.2749 340.882 59.28 340.502 56.905C340.218 54.9099 339.838 51.9648 339.458 48.26C339.172 44.5549 338.792 40.9448 338.412 37.4299C338.127 33.7249 337.938 31.2549 337.938 30.115V26.3149C337.938 24.7 338.507 23.3699 339.647 22.135C340.787 20.9949 342.213 20.425 343.828 20.425C345.443 20.425 346.772 20.9949 347.912 22.23C348.578 21.9448 349.243 21.8499 349.907 21.8499C351.522 21.8499 352.948 22.4199 354.088 23.5601C355.228 24.7 355.797 26.03 355.797 27.645V40.8499C363.588 41.7048 370.238 48.0698 374.417 52.4399V51.49L374.703 39.8999L374.988 32.585C375.083 30.3049 375.463 28.5 375.938 27.2649L376.318 26.3149C376.983 24.8899 378.027 23.845 379.547 23.1799C380.307 22.895 381.068 22.8 381.828 22.8C382.588 22.8 383.252 22.895 384.012 23.1799C385.438 23.845 386.483 24.8899 387.147 26.4099C387.432 27.1699 387.527 27.9299 387.527 28.6899C387.527 29.45 387.432 30.21 387.147 30.875L386.863 31.635ZM357.983 59.6599C359.787 59.5649 363.968 58.8049 365.392 58.425C365.488 58.3298 365.583 58.3298 365.677 58.3298C363.493 55.0049 359.598 52.345 355.797 51.49V59.7549C356.463 59.7549 357.223 59.7549 357.983 59.6599ZM467.47 54.3398C470.035 54.8149 471.84 56.5249 472.98 59.28C473.55 60.8 474.215 76.5698 474.31 81.2249V82.365C474.31 83.98 473.74 85.3101 472.6 86.45C471.46 87.5898 470.13 88.1599 468.515 88.2549L467.375 88.9199C467.185 88.9912 467.054 89.0566 466.938 89.1145C466.591 89.2881 466.377 89.395 465.095 89.395C463.385 89.395 461.485 87.78 460.63 85.8799L460.06 84.4548C459.672 83.6792 459.411 82.967 459.173 82.3181C459.12 82.1721 459.067 82.0295 459.015 81.8899C458.16 79.895 457.02 73.4351 456.64 69.9199C455.69 70.2048 454.645 70.395 453.41 70.585C450.845 71.0601 447.71 71.345 443.815 71.4399H439.54L439.92 74.8599C440.11 77.2349 440.3 78.9448 440.585 80.085L441.155 82.365C441.345 82.9351 441.345 83.4099 441.345 83.98C441.345 84.9299 441.155 85.7849 440.585 86.7349C439.73 88.1599 438.59 89.0149 437.07 89.49L436.857 89.5259C436.378 89.6077 435.953 89.6799 435.455 89.6799C434.505 89.6799 433.555 89.395 432.605 88.825C431.18 87.97 430.325 86.8298 429.85 85.2148L429.28 83.03C428.805 81.2249 428.52 78.8499 428.235 75.8101C428.045 73.3398 427.855 71.4399 427.57 70.1099C427.19 68.115 427 66.7849 427 65.9299C427 63.7449 427.665 62.2249 428.9 61.2749C430.135 60.4199 431.655 59.8499 433.365 59.6599L434.03 57.665C434.315 57 434.505 56.4299 434.6 56.145L434.885 55.575C435.075 55.4802 435.359 55.196 435.737 54.8174L435.74 54.8149C436.215 54.1499 436.785 53.2 437.355 51.8699C437.83 50.4448 438.21 48.0698 438.305 44.7449C438.495 40.9448 438.59 38.4749 438.59 37.335V37.05C438.02 35.9099 437.735 34.77 437.735 33.6299C437.735 32.0149 438.305 30.4949 439.54 28.8799C440.775 27.2649 442.675 25.9351 445.24 24.7L445.246 24.6973C447.238 23.8438 448.566 23.2747 449.23 23.085L449.895 22.8L451.32 22.23C452.65 21.6599 453.79 21.28 454.93 21.28C456.64 21.28 458.065 22.135 459.11 23.655C460.06 23.085 462.055 22.8 463.005 22.8C463.575 22.8 464.24 22.895 464.81 23.085C466.33 23.5601 467.47 24.51 468.23 25.9351C468.705 26.79 468.895 27.74 468.895 28.595C468.895 29.165 468.8 29.8298 468.61 30.3999L468.325 31.3499C468.135 32.2048 467.755 34.2 467.28 37.5249C466.71 41.4199 466.33 44.7449 466.14 47.6899C465.95 50.4448 465.855 52.25 465.855 52.915C465.95 53.2949 465.95 53.77 465.95 54.3398H467.47ZM452.745 53.4849C452.65 52.0601 453.505 41.4199 453.885 37.905L454.075 35.9099H450.18C450.18 37.335 450.085 43.1299 449.99 45.3149C449.8 49.78 449.23 53.3899 448.185 55.9548C447.71 57.3799 447.14 58.615 446.57 59.6599C448.47 59.5649 451.035 59.375 452.27 59.0898C452.555 58.9949 452.745 58.9949 453.03 58.9949C452.935 58.615 452.935 58.1399 452.935 57.4749L452.745 53.4849ZM509.33 19.3831C509.964 19.4536 510.725 19.5381 511.612 19.665C512.752 18.4299 514.177 17.8599 515.792 17.8599H518.832C519.402 17.8599 520.257 17.8599 521.302 17.9548C523.107 18.05 524.627 18.4299 525.862 19.095C528.047 20.2349 529.377 22.04 529.852 24.415C530.042 25.46 530.137 26.5999 530.137 27.645V32.7749C530.137 35.8149 529.947 39.3298 529.567 43.2249C529.282 46.835 529.092 49.4949 528.997 51.3C528.997 53.675 528.712 55.8599 528.237 57.855C528.057 58.7583 527.876 59.5088 527.744 60.0583C527.667 60.3757 527.607 60.626 527.572 60.8C527.477 61.655 527.287 62.605 527.002 63.6499C526.866 64.2654 526.68 64.9302 526.48 65.6445C526.402 65.9221 526.322 66.2073 526.242 66.5L525.862 68.21C525.482 69.825 524.627 70.9648 523.202 71.8198C522.252 72.3899 521.302 72.675 520.257 72.675C519.852 72.675 519.448 72.606 518.984 72.5266L518.737 72.4849C517.597 72.2 516.647 71.5349 515.887 70.6799C515.032 69.825 514.557 68.78 514.367 67.5449C513.892 66.8799 513.512 66.2148 513.322 65.3599L513.037 63.9351C512.752 62.7 512.657 61.3699 512.657 60.04V56.4299C512.657 55.3452 512.706 53.7769 512.768 51.7593C512.793 50.9495 512.82 50.0674 512.847 49.115C512.867 48.4436 512.887 47.801 512.906 47.186C512.978 44.8433 513.037 42.9053 513.037 41.325V31.9199L512.752 31.73C512.182 31.54 511.422 31.3499 510.377 31.2549C509.997 31.1599 509.617 31.1599 509.332 31.1599C509.332 32.9648 509.332 35.4351 509.237 38.4749C509.142 42.2749 508.952 46.075 508.477 49.875C508.002 53.96 507.337 56.905 506.577 58.52C506.007 59.7549 505.342 61.085 504.582 62.51C503.632 64.3149 502.587 65.74 501.447 66.8799C500.307 68.115 499.072 69.1599 497.742 69.9199C496.317 70.6799 495.082 71.155 493.847 71.4399C492.897 71.6299 491.947 71.7249 490.997 71.7249C489.857 71.7249 488.622 71.4399 487.292 70.7749C485.962 70.1099 485.012 68.97 484.442 67.45L484.157 66.8799C483.872 66.2148 483.777 65.4548 483.777 64.79C483.777 64.03 483.872 63.175 484.252 62.415C484.917 60.895 485.962 59.8499 487.482 59.28C488.242 58.9949 488.907 58.8049 489.667 58.8049C490.522 58.8049 491.377 59.0898 492.232 59.47C492.517 59.375 492.707 59.1851 492.992 58.8999C493.467 58.425 493.847 57.76 494.322 56.905C494.825 56.043 495.219 55.2354 495.587 54.4819C495.706 54.239 495.822 54.0017 495.937 53.77C496.222 52.915 496.507 51.2048 496.887 48.45C497.362 45.125 497.552 41.7048 497.552 38.2849C497.647 34.675 497.647 31.9199 497.647 30.02C497.647 28.1199 497.647 26.885 497.552 26.22C497.552 25.9417 497.603 25.6128 497.668 25.1956C497.691 25.0427 497.717 24.8782 497.742 24.7C497.837 24.1299 498.122 23.3699 498.502 22.4199C498.787 21.47 499.452 20.615 500.402 19.95C501.352 19.2849 502.587 19 504.012 19H505.912L508.477 19.2849C508.73 19.3164 509.014 19.3481 509.33 19.3831ZM570.407 15.96C571.452 15.4849 572.497 15.3899 573.637 15.4849C575.252 15.77 576.582 16.53 577.532 17.7649C578.292 18.8101 578.672 19.95 578.672 21.1851C578.672 21.47 578.672 21.8499 578.577 22.135L578.482 22.8V28.7849L578.387 38.2849C578.387 40.0669 578.363 41.8245 578.339 43.5576C578.315 45.2432 578.292 46.9055 578.292 48.5449C578.292 52.25 578.102 55.48 577.627 58.3298L576.772 64.6948L576.582 67.5449V68.3999C576.582 70.0149 575.917 71.345 574.777 72.4849C573.637 73.625 572.307 74.1948 570.692 74.1948C570.502 74.1948 570.217 74.1948 569.932 74.0999L569.457 74.29C569.077 74.385 568.697 74.385 568.222 74.385C567.177 74.385 566.037 74.0999 565.087 73.4351C563.757 72.5798 562.902 71.345 562.522 69.73L562.332 68.875L562.331 68.8723C562.142 67.8281 561.952 66.7839 561.952 65.74V59.9448C560.432 61.75 559.102 63.175 557.867 64.3149L553.972 67.925L551.122 70.7749C550.742 72.2 549.982 73.2449 548.747 74.0999C547.702 74.8599 546.657 75.145 545.422 75.145C543.617 75.145 542.097 74.385 540.957 72.96C540.007 71.7249 539.532 70.3 539.627 68.6851L539.722 68.02L540.007 66.5C540.14 66.1685 540.226 65.8831 540.298 65.644C540.33 65.5408 540.358 65.446 540.387 65.3599L540.957 64.5049L541.527 63.8398L542.667 62.7L545.992 59.47L549.792 55.8599C550.742 55.0049 551.882 53.77 553.212 52.155H553.022C551.122 51.7749 549.507 51.0149 548.177 49.97C547.227 49.21 546.372 48.26 545.612 47.2148C544.282 45.03 543.522 43.0349 543.522 41.135C543.522 40.2646 543.602 39.394 543.688 38.4504L543.712 38.1899C543.902 36.8599 544.472 35.2449 545.232 33.345C546.182 31.4448 547.322 29.6399 548.842 27.835C550.362 26.22 551.787 24.7949 553.212 23.75C554.732 22.6099 556.442 21.6599 558.342 20.9949C559.672 20.52 561.002 20.0449 562.237 19.4749C564.137 18.7148 565.847 18.335 567.177 18.24C567.462 18.24 567.747 18.24 567.937 18.145C568.507 17.1948 569.362 16.4351 570.407 15.96ZM561.857 36.29C561.857 34.77 561.857 33.4399 561.762 32.2048L560.052 33.155C559.387 33.7249 558.627 34.4849 557.677 35.53C556.917 36.385 556.252 37.335 555.872 38.1899C555.587 38.855 555.397 39.425 555.302 39.8049C555.302 39.9473 555.278 40.0662 555.254 40.1851C555.231 40.3037 555.207 40.4224 555.207 40.5649C555.207 40.6599 555.302 40.6599 555.302 40.6599H555.397C556.632 40.9448 558.152 41.04 559.862 41.04C560.527 41.04 561.192 41.04 561.952 40.9448C561.952 39.1399 561.952 37.6199 561.857 36.29ZM654.629 23.085C655.389 24.2249 655.769 25.365 655.864 26.5999C655.864 28.595 654.914 30.115 653.394 31.1599C652.064 32.2048 650.639 32.585 649.024 32.395L648.454 32.3C647.409 32.1099 646.174 31.635 644.749 30.97C644.274 30.78 643.704 30.5898 643.134 30.4949C642.374 30.3999 641.519 30.3049 640.664 30.3049H640.474C640.189 30.5898 639.809 30.97 639.429 31.4448C638.574 32.49 637.814 34.2 636.959 36.7649C636.104 39.52 635.534 42.2749 635.249 45.22C635.059 48.355 634.964 50.54 634.964 51.585C634.964 52.4399 634.964 53.2949 635.059 53.96L635.534 54.9099C636.009 55.6699 636.579 56.335 637.434 57C638.479 57.855 639.334 58.425 639.999 58.8049C640.236 58.8999 640.427 58.9949 640.593 59.0781C640.759 59.1614 640.901 59.2327 641.044 59.28H642.469C643.514 58.615 644.654 58.3298 645.699 58.3298C647.789 58.3298 649.404 59.28 650.449 60.8C651.209 61.75 651.589 62.8899 651.589 64.03C651.589 66.1199 650.639 67.8298 649.024 68.97L648.359 69.4448C646.934 70.49 645.319 70.9648 643.704 70.9648H641.899C641.044 70.9648 640.379 70.9648 639.714 70.8699C638.954 71.155 638.194 71.345 637.434 71.345H636.674C636.009 71.345 634.869 71.25 633.254 71.0601C631.069 70.7749 628.979 70.1099 626.889 68.875C625.274 67.925 624.039 67.0698 622.994 66.2148C621.854 65.2649 620.714 64.03 619.574 62.51C617.959 60.4199 617.009 58.0449 616.724 55.29C616.724 54.8459 616.703 54.3813 616.681 53.8862C616.656 53.3218 616.629 52.7178 616.629 52.0601C616.629 51.5217 616.65 50.9199 616.672 50.2847C616.697 49.5742 616.724 48.822 616.724 48.0698C616.819 45.125 617.104 42.75 617.484 41.04C617.864 39.3298 618.624 36.9548 619.669 34.01C620.714 31.0649 621.759 28.6899 622.614 27.075C623.849 25.0798 625.084 23.4648 626.509 22.325C628.029 21.0898 629.644 20.3298 631.354 19.95C632.589 19.665 633.634 19.5698 634.584 19.5698H635.439C636.864 18.905 638.669 18.6199 640.664 18.6199C642.279 18.6199 643.799 18.7148 645.224 19C646.839 19.2849 648.264 19.76 649.689 20.425L650.354 20.71L650.734 20.8049C652.349 20.9949 653.584 21.7549 654.629 23.085ZM694.807 67.519C694.613 67.6492 694.414 67.783 694.215 67.925C693.645 69.54 692.6 70.7749 691.08 71.4399L690.035 71.8198C688.61 72.4849 686.71 72.77 684.335 72.77C681.96 72.77 679.585 72.2949 677.4 71.345C675.975 70.7749 675.025 70.395 674.455 70.2048C673.98 70.0149 673.505 69.825 673.03 69.54C672.555 69.2549 672.175 68.97 671.89 68.5898C671.51 68.3049 671.225 68.02 671.13 67.8298L670.275 66.7849C669.895 66.3101 669.61 66.0249 669.42 65.9299C667.615 63.6499 666.38 61.4648 665.905 59.47C665.525 57.855 665.335 56.05 665.335 54.1499V49.4949C665.335 47.595 665.43 45.6948 665.715 43.7949C666 41.6099 666.665 39.0449 667.805 36.0999L670.085 30.4949C670.75 29.0698 671.795 27.3599 673.315 25.365C674.74 23.5601 676.165 21.9448 677.59 20.71C679.87 18.6199 682.435 17.575 685.38 17.575H689.085C690.89 17.575 692.695 17.9548 694.595 18.7148C696.59 19.5698 698.395 20.71 699.82 22.325C700.96 23.5601 701.91 24.7949 702.67 26.03C703.525 27.2649 704.285 28.7849 704.76 30.3999C705.425 32.2048 705.71 33.8198 705.71 35.4351C705.71 36.48 705.71 38.4749 705.615 41.325C705.52 44.5549 704.95 48.165 703.81 52.25C702.67 56.5249 701.245 59.9448 699.44 62.415C697.825 64.5999 696.685 65.9299 696.02 66.595C695.687 66.9277 695.261 67.2139 694.807 67.519ZM690.32 29.6399C689.845 29.45 689.465 29.355 689.18 29.355C688.895 30.3999 688.325 31.3499 687.47 32.1099C686.615 32.9648 685.665 33.4399 684.62 33.6299C684.587 33.7937 684.543 33.98 684.496 34.1812C684.405 34.5635 684.302 34.9993 684.24 35.4351C683.955 37.335 683.67 39.71 683.385 42.655C683.1 45.5999 683.005 48.355 683.005 50.825V55.9548C683.005 56.24 683.005 56.6199 683.1 57C683.21 57.0735 683.32 57.1609 683.441 57.2573C683.634 57.4102 683.854 57.585 684.145 57.76C684.62 58.0449 685.19 58.3298 685.95 58.425H686.425C686.805 58.425 687.09 58.425 687.28 58.3298L688.04 58.0449C688.316 57.7136 688.624 57.2861 689.001 56.7627C689.274 56.385 689.582 55.9575 689.94 55.48C690.89 54.2449 691.745 52.155 692.6 49.21C693.455 46.075 693.835 43.3198 693.93 40.9448C694.025 38.1899 694.025 36.385 694.025 35.4351C694.025 35.1499 693.93 34.675 693.74 34.2C693.455 33.4399 693.17 32.7749 692.885 32.3C692.505 31.635 691.935 30.97 691.27 30.3049C690.985 30.02 690.605 29.7349 690.32 29.6399ZM732.727 31.0649L734.627 30.4949C736.717 29.925 738.332 29.6399 739.567 29.6399C741.277 29.6399 743.272 30.21 745.552 31.3499C747.737 32.395 749.447 33.5349 750.682 34.96L751.537 35.9099C751.822 36.1948 752.012 36.575 752.202 36.9548L752.677 37.905L753.152 38.95C753.247 39.425 753.342 39.8049 753.437 39.9949L753.722 41.23C753.756 41.4331 753.778 41.6121 753.796 41.7627C753.829 42.0347 753.851 42.2139 753.912 42.2749L754.102 43.51C754.136 43.7502 754.158 43.9656 754.177 44.1472C754.209 44.4685 754.231 44.6843 754.292 44.7449C754.672 47.2148 754.862 49.4949 754.862 51.49C754.862 52.915 754.767 54.2449 754.577 55.385C754.102 58.425 753.247 61.085 751.822 63.365C750.777 64.98 749.637 66.405 748.307 67.45L747.737 68.3999L746.692 70.3C746.027 71.6299 744.982 72.865 743.367 74.0999C741.467 75.5249 739.377 76.2849 737.192 76.2849H734.532C733.297 76.2849 731.872 76.095 730.352 75.8101C728.642 75.5249 727.027 74.8599 725.412 74.0049C723.607 73.0549 722.087 71.6299 720.662 69.825C719.522 68.3999 718.667 67.165 718.002 66.1199C717.147 64.6948 716.387 62.7 715.912 59.9448C715.437 57.5698 715.247 55.7649 715.247 54.625V49.97C715.247 47.5 715.342 44.6499 715.627 41.5149C715.912 37.905 716.482 35.0549 717.242 32.9648C717.907 31.0649 718.572 29.5449 719.237 28.3101L720.377 26.125L722.372 22.7048C725.032 19.095 728.642 15.96 731.017 14.25C732.727 13.0149 734.437 12.0649 735.957 11.3999C737.287 10.8298 738.427 10.45 739.472 10.165C740.015 10.0098 740.684 9.72803 741.532 9.37158C741.723 9.29126 741.923 9.20703 742.132 9.11987C743.175 8.74097 743.933 8.36182 744.503 8.0769L744.507 8.07495L747.072 6.36499C747.832 5.88989 748.402 5.41504 748.782 5.03491L750.017 3.70483C750.682 2.84985 751.537 2.08984 752.392 1.52002L753.057 1.04492C754.007 0.379883 755.052 0 756.192 0C758.377 0 760.087 0.949951 761.132 2.56494C761.797 3.60986 762.177 4.65503 762.177 5.79492C762.177 7.88501 761.227 9.59497 759.612 10.7349L759.042 11.115L758.947 11.21C758.472 11.875 757.807 12.54 757.047 13.2048C756.192 14.0601 755.147 15.01 753.722 15.96L750.682 17.9548C749.542 18.6199 748.117 19.3799 746.502 20.0449C745.077 20.615 743.842 21.0898 742.797 21.375C742.132 21.5649 741.372 21.8499 740.422 22.23C739.947 22.4199 739.282 22.8 738.522 23.2749L737.667 23.9399C734.437 27.075 733.392 29.26 733.107 30.02C733.074 30.1184 733.03 30.2168 732.983 30.3228C732.892 30.5242 732.789 30.7539 732.727 31.0649ZM735.672 43.605C734.627 45.5049 733.012 46.55 730.827 46.645C730.922 49.21 731.017 51.2048 731.302 52.6299C731.587 54.0549 731.967 55.29 732.632 56.335C733.012 57 733.297 57.4749 733.582 57.76C733.933 57.9702 734.439 58.1289 735.023 58.3123C735.231 58.3772 735.448 58.4453 735.672 58.52C736.717 58.8049 737.667 58.9949 738.617 58.9949C739.282 58.9949 739.947 58.8049 740.612 58.52C740.992 58.425 741.372 57.95 741.847 57.2849C742.417 56.335 742.797 55.0999 743.082 53.5798C743.177 53.01 743.177 52.4399 743.177 51.6799C743.177 50.2549 743.082 48.5449 742.702 46.55C742.417 44.7449 742.132 43.51 741.847 42.655L740.422 41.8C740.042 41.6099 739.757 41.5149 739.472 41.4199C739.328 41.4487 739.168 41.4773 738.992 41.5085C738.586 41.5811 738.102 41.6672 737.572 41.8C737.261 41.8623 737.031 41.9651 736.83 42.0554C736.724 42.103 736.625 42.1472 736.527 42.1799L736.242 42.4648L735.672 43.605ZM777.448 39.8999C776.403 39.8999 775.453 39.71 774.503 39.1399C772.698 38.095 771.653 36.385 771.653 34.105C771.653 33.0601 771.938 32.1099 772.508 31.1599L772.888 30.3999L773.743 29.165C773.937 28.9075 774.173 28.6934 774.395 28.4937C774.5 28.3984 774.602 28.3066 774.693 28.2148L775.548 27.55C775.732 27.4885 775.916 27.3877 776.125 27.2729C776.24 27.2097 776.363 27.1423 776.498 27.075L777.353 26.79C777.543 26.6948 777.828 26.5999 778.208 26.5049L778.968 26.3149C779.823 25.365 780.773 24.7 781.913 24.415C783.414 24.0234 784.4 23.7439 785.112 23.542C786.474 23.1555 786.838 23.0522 787.898 22.99C789.228 22.895 790.653 22.8 792.078 22.8C792.933 22.8 793.693 22.895 794.548 23.085C796.353 23.4648 797.968 24.3198 799.583 25.6499C801.673 27.2649 803.098 29.0698 803.858 31.0649C804.333 32.49 804.903 35.1499 805.473 39.0449C806.043 42.9399 806.328 46.3599 806.423 49.4949V65.4548C806.423 67.0698 805.853 68.3999 804.713 69.54C803.573 70.6799 802.243 71.25 800.628 71.25C798.443 71.25 796.828 70.3 795.688 68.4949C794.548 69.1599 793.218 69.825 791.793 70.395C789.893 71.0601 787.993 71.4399 785.998 71.4399C783.813 71.4399 781.723 71.0601 779.823 70.395L779.348 70.2048C779.265 70.177 779.198 70.1572 779.142 70.1411C779.008 70.1018 778.94 70.082 778.873 70.0149L778.398 69.825C778.315 69.7971 778.248 69.7776 778.192 69.7612C778.058 69.7219 777.99 69.7021 777.923 69.635L777.448 69.3499C777.163 69.2549 776.973 69.0649 776.878 68.97L776.403 68.5898C776.118 68.4949 775.928 68.3049 775.833 68.115L775.358 67.6399C775.168 67.45 774.978 67.26 774.788 66.9749C773.743 65.645 773.268 63.8398 773.268 61.75C773.268 60.4199 773.363 58.9949 773.553 57.4749C773.838 55.8599 774.218 54.3398 774.883 52.915C775.358 51.6799 776.118 50.3499 777.068 48.925C777.923 47.5 779.158 45.885 780.773 44.0798C782.673 41.99 784.573 40.5649 786.378 39.8049C788.088 39.0449 789.608 38.665 790.938 38.5698L790.558 37.8101C790.368 37.5249 790.178 37.24 789.893 36.9548H786.948C784.668 36.9548 784.573 36.9548 782.198 37.5249C781.058 39.0449 779.443 39.8999 777.448 39.8999ZM792.838 50.2549H791.603L791.128 50.4448C790.748 50.73 790.178 51.2048 789.418 51.9648C788.585 52.9495 787.873 53.8738 787.281 54.6414C787.131 54.8364 786.988 55.0215 786.853 55.1948C786.283 56.145 785.808 57 785.523 57.665C785.333 58.1399 784.573 60.7048 784.573 61.2749C784.478 61.4648 784.478 61.5601 784.478 61.75C784.668 61.845 784.953 61.845 785.238 61.845C785.903 61.845 786.568 61.75 787.233 61.5601C787.993 61.2749 788.563 60.99 788.943 60.6099L791.508 59.28L793.028 58.3298L792.838 50.2549ZM855.141 22.23C856.566 23.4648 857.231 24.8899 857.231 26.79C857.231 28.0249 856.851 29.165 856.091 30.21C855.236 31.4448 854.001 32.2048 852.576 32.49L850.486 35.625C849.061 37.7148 847.256 39.9949 845.071 42.3699L841.556 46.2649C842.791 47.405 843.361 48.7349 843.361 50.2549C843.361 50.825 843.361 51.3 843.171 51.8699L842.886 53.01V54.2449C842.981 54.9099 843.266 55.9548 843.741 57.3799L845.451 61.3699C846.021 62.605 846.496 63.5549 846.971 64.3149L848.206 66.6899L848.776 67.6399C849.251 68.4949 849.441 69.4448 849.441 70.3C849.441 70.9648 849.346 71.5349 849.156 72.2C848.681 73.72 847.731 74.8599 846.306 75.6199C845.451 76 844.596 76.1899 843.646 76.1899C843.076 76.1899 842.506 76.095 841.936 76C840.321 75.5249 839.181 74.575 838.421 73.1499L836.711 70.0149C836.236 69.1599 835.666 68.02 835.001 66.6899C834.241 65.2649 831.581 59.5649 830.441 55.1948L829.301 55.48C829.46 56.6831 829.671 58.2349 829.882 59.7864C830.304 62.8899 830.726 65.9934 830.726 66.3101C830.726 67.5449 830.346 68.6851 829.491 69.73C828.351 71.155 826.831 71.915 824.931 71.915C823.601 71.915 822.366 71.5349 821.321 70.6799L820.751 70.3C820.086 69.73 819.516 69.0649 819.041 68.3999C818.566 67.7349 818.376 67.165 818.281 66.8799L817.711 65.3599L816.761 62.0349C816.571 60.99 816.381 59.1851 816.191 56.6199C816.001 54.1499 815.906 50.73 815.906 46.3599V25.9351C815.906 24.3198 816.476 22.99 817.616 21.8499C818.756 20.71 820.181 20.1399 821.796 20.1399C822.651 20.1399 823.601 20.3298 824.456 20.8049L825.691 20.0449L826.356 19.76C827.116 19.3799 827.971 19.1899 828.826 19.1899C829.396 19.1899 830.061 19.2849 830.821 19.4749C832.341 20.0449 833.481 20.9949 834.146 22.4199C834.526 23.1799 834.716 24.0349 834.716 24.8899C834.716 26.5999 834.051 28.0249 833.101 29.0698C832.911 30.3999 832.816 32.49 832.816 35.2449V38.5698C833.861 37.335 835.001 36.0049 836.426 34.5798C838.231 32.585 839.656 30.6851 840.796 29.0698L843.551 24.9849C844.311 23.9399 845.166 23.085 846.021 22.4199C847.256 21.5649 848.491 21.0898 849.821 20.9949L850.866 20.8999C852.481 20.8049 853.906 21.1851 855.141 22.23ZM101.64 289.66C101.64 284.38 96.8 277.34 91.08 269.2C79.64 255.12 72.16 238.18 62.92 216.4L63.8182 214.907C79.2814 189.211 81.4 185.69 81.4 167.34C81.4 153.48 75.9 141.16 66 133.02C56.98 125.76 53.02 123.56 31.46 123.56C30.36 122.02 28.8199 120.92 27.0601 120.26C25.3 119.6 23.54 119.16 21.78 119.16C14.96 119.16 11.22 122.9 7.92004 130.16C5.28003 136.1 1.09998 174.16 1.09998 182.96C0.219971 197.48 0 212 0 232.68C0 254.02 11.66 290.54 27.5 290.54C28.8199 290.54 30.36 290.32 31.9 289.88C32.0541 289.911 32.2037 289.941 32.3503 289.972L32.3688 289.976C33.2615 290.159 34.0405 290.32 34.98 290.32C40.92 290.32 42.46 288.78 42.46 279.54C42.46 276.125 42.2408 271.724 41.9574 266.029L41.957 266.022L41.9528 265.936C41.8357 263.584 41.7078 261.013 41.58 258.2C41.5356 257.578 41.4731 256.822 41.402 255.958L41.401 255.946C41.1194 252.532 40.7 247.446 40.7 242.36L43.34 241.04C47.3 250.5 60.5 274.04 66 281.08C69.6682 285.971 72.249 289.843 74.2761 292.884L74.2794 292.888C79.5439 300.787 81.0726 303.08 88.22 303.08C95.92 303.08 101.64 297.36 101.64 289.66ZM52.8 181.64C48.62 189.12 40.26 194.84 37.4 196.16L37.3285 194.316C37.1348 189.341 36.96 184.853 36.96 180.54C36.96 169.54 37.62 159.86 38.72 148.42L48.84 153.92C50.7334 155.603 52.2246 158.292 53.3132 160.256L53.46 160.52C53.5791 160.877 53.6338 161.235 53.6938 161.627C53.7446 161.959 53.7992 162.316 53.9 162.72C54.12 164.26 54.34 165.8 54.34 167.34V173.06C54.34 173.223 54.3418 173.4 54.3439 173.592C54.3638 175.469 54.3973 178.645 52.8 181.64ZM161.815 286.36C153.235 287.02 141.355 276.46 136.955 268.32C127.715 254.24 123.535 242.58 123.535 226.08C123.535 215.08 130.135 196.16 137.835 184.28C142.675 174.16 153.015 167.78 169.075 167.78C189.975 167.78 207.795 180.76 209.335 199.68C209.555 201.88 209.555 205.18 209.555 209.14C209.555 218.726 209.092 224.296 208.553 230.769V230.772C208.449 232.022 208.342 233.306 208.235 234.66C207.575 267.88 196.135 289.44 173.475 289.44C169.515 289.44 164.675 288.34 161.815 286.36ZM170.395 195.06C170.395 195.06 164.895 189.56 164.895 219.26C164.895 227.4 165.115 234.66 165.335 240.6C165.775 247.42 168.635 255.34 175.675 260.4C179.855 253.14 182.495 234.22 182.495 216.62C182.495 205.4 182.495 203.86 182.275 201.44C179.635 197.26 176.775 195.06 170.395 195.06ZM254.042 124.88C246.562 124.88 240.182 131.04 240.182 140.28C237.322 144.46 235.562 148.64 235.562 155.24L231.602 281.52C231.602 288.34 236.882 295.16 245.022 295.16C247.882 295.16 250.302 294.28 252.722 292.52C254.262 293.18 255.582 293.4 257.122 293.4C259.148 293.4 260.464 292.561 261.944 291.616C263.196 290.818 264.565 289.944 266.582 289.44C303.542 279.54 322.462 263.04 322.462 243.46C322.462 219.48 311.242 198.14 267.022 180.32C266.802 170.42 266.802 162.94 266.802 157.22C266.802 146.88 267.022 142.48 267.462 139.84C268.342 132.14 261.962 124.88 254.042 124.88ZM269.002 263.48V248.08C269.002 242.14 269.002 235.1 268.562 225.42L268.122 213.76C292.542 226.96 295.402 234.88 295.402 243.46C295.402 251.38 284.842 260.4 269.002 263.48ZM369.474 128.18C367.275 126.64 364.635 125.98 361.995 125.98C352.755 125.98 346.155 135.44 346.155 144.24C346.155 153.92 356.935 161.4 365.955 161.4C374.315 161.4 382.455 153.92 382.455 143.58C382.455 135.44 376.515 129.28 369.474 128.18ZM382.455 273.6C382.455 286.36 373.214 289.44 364.195 289.44C355.395 289.44 347.255 286.58 347.255 273.6C347.255 270.434 347.373 264.156 347.509 256.915V256.9V256.898C347.695 247.034 347.915 235.39 347.915 227.4C347.915 214.352 347.454 201.649 347.199 194.619V194.607C347.102 191.924 347.035 190.069 347.035 189.34C345.275 186.92 344.395 184.28 344.395 181.42C344.395 174.16 350.555 167.78 357.815 167.78H368.594C369.839 167.78 370.946 167.754 371.935 167.73C377.941 167.587 379.561 167.549 380.695 174.16C380.915 175.7 381.354 179.44 381.354 182.52C381.354 183.84 381.354 184.94 381.135 185.82C381.795 187.58 381.795 188.9 381.795 192.86C381.795 192.2 382.455 263.7 382.455 273.6ZM502.231 223.22C501.131 184.72 500.471 169.76 467.691 169.76C457.131 173.5 449.651 179.22 443.271 186.04C445.031 183.84 445.691 181.2 445.691 178.56C445.691 174.82 444.371 171.74 441.731 169.1C438.871 166.46 435.791 165.14 432.051 165.14C430.511 165.14 429.191 165.14 426.991 165.58C425.451 164.92 423.911 164.7 422.371 164.7C421.22 164.7 420.237 164.867 419.129 165.056H419.124L419.108 165.059C418.952 165.086 418.793 165.113 418.631 165.14C410.051 167.56 405.211 177.46 404.771 190C404.551 198.36 404.551 206.06 404.551 213.32C404.551 232.24 405.651 247.86 411.151 267.88C413.054 274.897 413.606 276.77 413.852 277.602C413.915 277.815 413.957 277.96 413.997 278.105C414.082 278.412 414.155 278.721 414.381 279.684L414.451 279.98C416.651 288.34 423.471 293.62 431.831 293.62C436.891 293.62 440.851 290.98 443.711 286.58L446.131 274.26C446.232 269.522 446.332 265.938 446.412 263.108V263.099C446.506 259.757 446.571 257.465 446.571 255.56C446.571 251.962 446.421 250.24 446.033 245.792L446.031 245.777C445.755 242.61 445.359 238.062 444.811 230.48C456.911 214.64 465.491 208.7 469.231 206.5C474.291 210.02 475.391 218.6 475.391 240.16C475.391 255.78 475.171 262.6 474.511 274.92C474.071 282.4 479.351 289.44 488.151 289.44C494.311 289.44 501.131 284.38 501.571 276.68C502.011 266.12 502.451 250.5 502.451 237.08C502.451 232.02 502.451 227.18 502.231 223.22ZM553.694 211.12C554.794 210.46 555.894 210.24 556.994 210.02L558.314 209.8C558.974 209.58 559.854 209.36 561.394 209.14C563.814 208.48 566.234 208.26 568.434 208.26C571.734 208.26 574.594 209.14 576.354 211.34C577.674 212.88 578.114 214.86 578.114 217.06C578.114 219.7 577.234 222.78 576.354 225.86C575.694 228.5 574.814 230.7 573.934 232.46L572.614 235.1C568.874 236.64 564.474 237.3 560.074 237.52L553.914 238.18C551.494 238.4 548.854 238.62 546.434 238.62C544.674 238.62 543.134 238.62 541.814 238.84L539.174 239.06C531.474 239.72 524.434 233.34 524.434 225.64C524.434 218.82 529.934 212.66 536.754 212L539.394 211.78C541.594 211.56 544.014 211.56 546.434 211.56C547.974 211.56 549.294 211.56 550.834 211.34C551.934 211.12 552.814 211.12 553.694 211.12ZM699.939 144.9C699.939 134.34 695.099 126.64 686.299 126.64C681.239 126.64 675.959 129.06 673.539 134.78C666.939 139.4 666.499 147.1 666.499 157.22C666.719 166.68 666.719 175.26 666.719 182.74C661.879 180.98 656.599 179.88 651.759 179.88C645.819 179.88 640.099 181.42 635.259 184.94C632.179 184.72 629.539 185.6 627.119 187.36C608.639 200.34 600.059 217.72 600.059 247.2C600.059 275.14 620.519 290.54 648.679 290.54C653.079 290.54 657.919 289.44 662.099 287.9C662.099 287.9 662.099 287.68 662.319 287.68C662.186 287.945 662.134 288.05 662.113 288.044C662.109 288.043 662.106 288.038 662.104 288.03C662.362 293.68 665.232 297.58 672.219 297.58C679.039 297.58 695.759 293.84 695.759 287.68C695.759 285.946 695.42 285.567 694.337 284.358L694.334 284.355C693.906 283.877 693.363 283.271 692.679 282.4C692.899 275.8 697.739 224.54 697.739 229.16C699.939 209.14 701.039 190.44 701.039 173.28C701.039 163.38 700.819 153.92 699.939 144.9ZM642.299 246.76L644.279 219.48C645.819 213.98 649.119 207.6 650.879 206.94C657.699 207.6 662.319 209.58 666.719 213.76C666.499 225.42 666.279 234.22 665.839 243.24C665.772 244.239 665.705 245.358 665.633 246.58C665.465 249.397 665.265 252.758 664.959 256.44L664.654 256.49C663.405 256.696 661.982 256.93 660.559 257.54C653.519 255.56 644.939 252.26 642.299 246.76ZM761.229 286.36C752.649 287.02 740.769 276.46 736.369 268.32C727.129 254.24 722.949 242.58 722.949 226.08C722.949 215.08 729.549 196.16 737.249 184.28C742.089 174.16 752.429 167.78 768.489 167.78C789.389 167.78 807.209 180.76 808.749 199.68C808.969 201.88 808.969 205.18 808.969 209.14C808.969 218.726 808.506 224.296 807.967 230.768L807.964 230.81C807.861 232.049 807.755 233.32 807.649 234.66C806.989 267.88 795.549 289.44 772.889 289.44C768.929 289.44 764.089 288.34 761.229 286.36ZM769.809 195.06C769.809 195.06 764.309 189.56 764.309 219.26C764.309 227.4 764.529 234.66 764.749 240.6C765.189 247.42 768.049 255.34 775.089 260.4C779.269 253.14 781.909 234.22 781.909 216.62C781.909 205.4 781.909 203.86 781.689 201.44C779.049 197.26 776.189 195.06 769.809 195.06ZM909.556 165.8C903.836 166.24 902.516 168.22 900.756 173.94L898.776 172.84C892.396 169.1 885.576 167.34 878.756 167.34C854.776 167.34 831.016 188.46 831.016 216.62C831.016 238.4 840.036 269.86 856.316 270.52C862.036 276.24 870.616 278.88 879.416 278.88C882.276 278.88 885.136 278.66 887.996 278L886.896 288.12C886.236 298.02 880.516 300.88 874.356 300.88C868.233 300.88 861.778 298.051 859.765 297.169L859.746 297.161C859.455 297.033 859.26 296.948 859.176 296.92C858.83 296.833 857.873 296.204 856.678 295.417C854.832 294.202 852.418 292.614 850.816 292.08C849.276 291.42 847.516 291.2 845.976 291.2C840.696 291.2 835.636 294.06 833.656 299.78C833.216 301.1 832.996 302.42 832.996 303.74C832.996 310.56 838.936 317.38 848.616 321.56C850.156 325.3 852.136 328.6 858.076 330.14C863.356 331.68 868.636 332.34 873.476 332.34C895.476 332.34 912.636 319.36 916.156 306.82C922.976 283.06 926.496 231.8 926.496 192.2L927.376 184.06C927.95 183.59 928.475 183.207 928.941 182.866C930.44 181.772 931.336 181.118 931.336 179.44C932.436 173.72 914.396 164.26 909.556 165.8ZM900.756 173.94L900.754 173.942C900.635 174.061 900.58 174.115 900.556 174.176C900.61 173.94 900.756 173.94 900.756 173.94ZM875.676 251.6C872.596 249.62 871.056 239.06 871.056 228.06C871.056 216.18 872.816 203.64 876.776 201C878.536 199.9 880.956 199.24 883.816 199.24C887.996 199.24 893.056 200.34 898.116 202.54C897.676 208.92 897.016 214.86 896.576 218.38C895.256 228.5 893.936 238.4 892.616 247.64C887.776 251.16 882.276 252.04 875.676 251.6ZM260.491 408.85C260.361 408.72 260.361 408.46 260.361 408.33C260.101 407.55 259.971 406.64 259.971 405.86C259.971 402.48 262.181 399.23 265.561 398.32L269.201 397.15C272.451 396.11 274.661 395.59 276.091 395.59C281.291 395.59 286.751 399.62 286.751 406.77C286.751 413.66 281.681 421.07 274.791 421.72C274.466 421.72 274.173 421.752 273.881 421.785C273.588 421.817 273.296 421.85 272.971 421.85C272.061 421.85 271.021 421.72 269.981 421.59C265.691 421.2 262.701 419.12 261.271 415.35L260.751 414.31C260.361 413.27 260.231 412.36 260.231 411.19C260.231 410.41 260.231 409.63 260.491 408.85ZM353.397 353.08C353.267 351.39 352.747 349.83 351.707 348.27C350.277 346.45 348.587 345.41 346.377 345.15L345.857 345.02L344.947 344.63C342.997 343.72 341.047 343.07 338.837 342.68C336.887 342.29 334.807 342.16 332.597 342.16C329.867 342.16 327.397 342.55 325.447 343.46H324.277C322.977 343.46 321.547 343.59 319.857 343.98C317.517 344.5 315.307 345.54 313.227 347.23C311.277 348.79 309.587 351 307.897 353.73C306.727 355.94 305.297 359.19 303.867 363.22C302.437 367.25 301.397 370.5 300.877 372.84C300.357 375.18 299.967 378.43 299.837 382.46C299.837 383.488 299.801 384.515 299.767 385.486V385.49C299.736 386.36 299.707 387.183 299.707 387.92C299.707 388.82 299.744 389.647 299.778 390.419L299.779 390.43C299.809 391.104 299.837 391.736 299.837 392.34C300.227 396.11 301.527 399.36 303.737 402.22C305.297 404.3 306.857 405.99 308.417 407.29C309.847 408.46 311.537 409.63 313.747 410.93C316.607 412.62 319.467 413.53 322.457 413.92C324.667 414.18 326.227 414.31 327.137 414.31H328.177C329.217 414.31 330.257 414.05 331.297 413.66C332.207 413.79 333.117 413.79 334.287 413.79H336.757C338.967 413.79 341.177 413.14 343.127 411.71L344.037 411.06C346.247 409.5 347.547 407.16 347.547 404.3C347.547 402.74 347.027 401.18 345.987 399.88C344.557 397.8 342.347 396.5 339.487 396.5C338.057 396.5 336.497 396.89 335.067 397.8H333.117C332.924 397.736 332.732 397.64 332.508 397.528L332.5 397.524C332.272 397.41 332.012 397.28 331.687 397.15C330.777 396.63 329.607 395.85 328.177 394.68C327.007 393.77 326.227 392.86 325.577 391.82L324.927 390.52C324.797 389.61 324.797 388.44 324.797 387.27C324.797 385.84 324.927 382.85 325.187 378.56C325.577 374.53 326.357 370.76 327.527 366.99C328.697 363.48 329.737 361.14 330.907 359.71C331.426 359.061 331.946 358.541 332.336 358.151L332.337 358.15H332.597C333.767 358.15 334.937 358.28 335.977 358.41C336.757 358.54 337.537 358.8 338.187 359.06C340.137 359.97 341.827 360.62 343.257 360.88L344.037 361.01C346.247 361.27 348.197 360.75 350.017 359.32C352.097 357.89 353.397 355.81 353.397 353.08ZM388.977 412.62C383.907 413.01 376.887 406.77 374.287 401.96C368.827 393.64 366.357 386.75 366.357 377C366.357 370.5 370.257 359.32 374.807 352.3C377.667 346.32 383.777 342.55 393.267 342.55C405.617 342.55 416.147 350.22 417.057 361.4C417.187 362.7 417.187 364.65 417.187 366.99C417.187 372.654 416.914 375.945 416.595 379.769L416.593 379.797C416.532 380.528 416.47 381.279 416.407 382.07C416.017 401.7 409.257 414.44 395.867 414.44C393.527 414.44 390.667 413.79 388.977 412.62ZM394.047 358.67C394.047 358.67 390.797 355.42 390.797 372.97C390.797 377.78 390.927 382.07 391.057 385.58C391.317 389.61 393.007 394.29 397.167 397.28C399.637 392.99 401.197 381.81 401.197 371.41C401.197 364.78 401.197 363.87 401.067 362.44C399.507 359.97 397.817 358.67 394.047 358.67ZM514.585 397.67C514.585 395.469 515.02 393.404 515.493 391.164C516.053 388.509 516.665 385.607 516.665 381.94C516.665 364.78 511.725 350.09 497.425 350.09C496.775 350.09 493.785 350.09 493.265 350.22C488.065 351 484.295 353.73 481.565 357.37C479.875 353.99 477.535 352.04 474.155 350.09C472.075 348.92 469.085 348.14 465.705 348.14C462.455 348.14 458.815 348.92 455.695 350.61C455.565 344.63 452.965 342.16 447.635 342.16C446.855 342.16 446.075 342.29 445.295 342.55C444.515 342.16 442.695 341.77 442.045 341.77C438.145 341.77 434.895 344.5 433.985 348.53C433.465 350.87 432.945 358.02 432.425 365.17L430.605 399.62C430.565 400.139 430.513 400.682 430.46 401.235L430.459 401.245C430.339 402.49 430.215 403.782 430.215 404.95C430.215 410.54 433.075 413.27 437.105 413.92C438.015 417.43 441.135 419.9 444.775 419.9C449.065 419.9 452.835 416.26 452.835 411.97V407.03C452.835 405.08 452.835 403.78 452.965 402.87C453.355 400.27 454.785 377.39 455.305 366.6C456.735 365.95 458.035 365.56 459.335 365.56C464.535 365.56 468.435 370.76 468.435 379.08V407.55C468.435 412.75 470.645 416.52 474.935 415.87C483.775 414.44 485.725 409.5 485.725 404.95C485.77 403.809 485.798 402.436 485.829 400.897V400.885C486.066 389.094 486.499 367.589 496.385 366.21C497.416 366.21 497.547 366.21 497.623 366.275C497.634 366.284 497.643 366.295 497.655 366.308C497.663 366.317 497.673 366.328 497.685 366.34C498.335 366.86 498.855 367.77 499.505 369.2C500.285 371.15 500.545 376.22 500.545 381.16C500.545 383.348 500.239 385.383 499.898 387.649L499.897 387.653C499.469 390.502 498.985 393.717 498.985 398.06C498.985 407.03 501.195 414.44 508.215 414.44C513.025 414.44 516.145 410.54 516.145 406.51C516.145 405.47 515.365 402.48 515.235 402.09C514.845 400.53 514.585 399.1 514.585 397.67ZM530.139 408.85C530.009 408.72 530.009 408.46 530.009 408.33C529.749 407.55 529.619 406.64 529.619 405.86C529.619 402.48 531.829 399.23 535.209 398.32L538.849 397.15C542.099 396.11 544.309 395.59 545.739 395.59C550.939 395.59 556.399 399.62 556.399 406.77C556.399 413.66 551.329 421.07 544.439 421.72C544.114 421.72 543.822 421.752 543.529 421.785C543.237 421.817 542.944 421.85 542.619 421.85C541.709 421.85 540.669 421.72 539.629 421.59C535.339 421.2 532.349 419.12 530.919 415.35L530.399 414.31C530.009 413.27 529.879 412.36 529.879 411.19C529.879 410.41 529.879 409.63 530.139 408.85ZM627.985 386.1C627.855 383.11 627.855 369.98 627.855 369.98C627.855 364.39 627.075 357.63 626.166 351.91V350.09C626.166 345.8 622.526 342.16 618.235 342.16C613.945 342.16 610.175 345.67 610.175 350.09C610.175 366.21 603.286 383.5 594.185 392.08C593.406 381.55 592.365 359.32 592.365 349.44C592.365 345.15 588.725 341.38 584.435 341.38C582.355 341.38 580.536 342.16 578.975 343.59C578.195 343.33 577.416 343.2 576.766 343.2C573.646 343.2 571.305 345.67 571.305 350.74C571.305 353.8 570.921 357.296 570.493 361.183C569.958 366.047 569.355 371.522 569.355 377.52C569.355 400.14 573.255 414.44 587.685 414.44C599.385 414.44 606.276 402.74 612.125 390.26C612.248 392.521 612.6 395.846 612.939 399.046C613.321 402.651 613.685 406.096 613.685 407.68C613.685 412.23 617.325 415.74 621.745 415.74C626.166 415.74 629.675 412.23 629.675 407.68V405.21C629.675 404.3 629.545 402.87 629.286 400.92C628.766 397.67 628.115 392.47 627.985 386.1ZM646.634 370.24C647.934 371.02 649.234 371.28 650.664 371.28C653.394 371.28 655.604 370.11 657.164 368.03C660.414 367.25 660.544 367.25 667.694 367.25C668.304 367.982 668.456 368.256 669.01 369.254L669.124 369.46C656.644 370.11 644.944 386.88 644.944 401.18C644.944 410.15 652.744 414.44 662.364 414.44C666.914 414.44 671.594 412.88 675.624 410.41C677.184 412.88 679.394 414.18 682.384 414.18C686.804 414.18 690.314 410.54 690.314 406.25V384.41C689.924 363.48 685.894 347.88 670.684 347.88C664.818 347.88 664.135 348.068 659.569 349.328L659.54 349.336C658.75 349.554 657.843 349.803 656.774 350.09C655.214 350.48 653.914 351.39 652.744 352.69C646.894 354.12 642.734 358.67 642.734 363.35C642.734 366.47 644.164 368.81 646.634 370.24ZM670.034 385.45H671.724L671.984 396.5L669.904 397.8L666.394 399.62C665.874 400.14 665.094 400.53 664.054 400.92C663.144 401.18 662.234 401.31 661.324 401.31C660.934 401.31 660.544 401.31 660.284 401.18C660.284 400.92 660.284 400.79 660.414 400.53C660.414 399.75 661.454 396.24 661.714 395.59C662.104 394.68 662.754 393.51 663.534 392.21C663.719 391.973 663.913 391.72 664.119 391.454C664.928 390.403 665.904 389.138 667.044 387.79C668.084 386.75 668.864 386.1 669.384 385.71L670.034 385.45Z" fill="#C3C3C3"/>
</svg>
