<svg width="297" height="100" viewBox="0 0 297 100" fill="none" xmlns="http://www.w3.org/2000/svg">
<g clip-path="url(#clip0)">
<rect width="297" height="100" fill="black" fill-opacity="0"/>
<rect width="145.416" height="91.0608" fill="black" fill-opacity="0" transform="translate(0.306641 13)"/>
<rect width="145.416" height="91.0608" fill="black" fill-opacity="0" transform="translate(0.306641 13)"/>
<path d="M108.873 13C111.43 13 113.502 15.1051 113.502 17.7019C113.502 20.2987 111.43 22.4038 108.873 22.4038H100.275V26.9064C108.239 29.5254 113.998 37.1203 113.998 46.0813V89.5741C113.998 93.39 112.954 96.9583 111.14 100H34.1886C32.3744 96.9583 31.3301 93.39 31.3301 89.5741V46.0813C31.3301 37.4335 36.6936 30.0579 44.2263 27.199V18.0378H54.3119V25.9303H90.1899V17.7019C90.1899 15.1051 92.2625 13 94.8193 13H108.873Z" fill="white"/>
<rect x="31" y="13" width="23.3125" height="9.40384" rx="4.70192" fill="#444444"/>
<path fill-rule="evenodd" clip-rule="evenodd" d="M114 83.814C90.6025 80.7476 72.499 59.8357 72.499 34.4949C72.499 31.5742 72.7402 28.7126 73.2012 25.9302H90.1914V17.7019C90.1914 15.1052 92.2646 13 94.8213 13H108.875C111.432 13 113.504 15.1052 113.504 17.7019C113.504 20.2988 111.432 22.4038 108.875 22.4038H100.277V26.9062C108.241 29.5254 114 37.1204 114 46.0813V83.814Z" fill="#FFDBB0"/>
<ellipse cx="52.2785" cy="55.9908" rx="9.42396" ry="9.23592" fill="#444444"/>
<ellipse cx="94.088" cy="55.9908" rx="9.42396" ry="9.23592" fill="#444444"/>
<ellipse cx="52.2817" cy="53.3026" rx="4.28362" ry="4.19814" fill="white"/>
<ellipse cx="94.0873" cy="53.3026" rx="4.28362" ry="4.19814" fill="white"/>
<path d="M46.0501 42.1795C45.8915 41.6423 46.1489 41.0739 46.6567 40.8397L56.4158 36.3403C57.9423 35.6365 59.6472 36.9467 59.3524 38.5971V38.5971C59.2123 39.3817 58.6297 40.0119 57.8557 40.2163L47.4464 42.9655C46.8467 43.1239 46.2256 42.7743 46.0501 42.1795V42.1795Z" fill="#444444"/>
<path d="M100.02 42.012C100.179 41.4748 99.9214 40.9064 99.4136 40.6723L89.6545 36.1728C88.128 35.469 86.4231 36.7792 86.7179 38.4296V38.4296C86.858 39.2142 87.4406 39.8444 88.2146 40.0489L98.6239 42.7981C99.2236 42.9564 99.8447 42.6068 100.02 42.012V42.012Z" fill="#444444"/>
<path d="M67.5312 93.4336C67.5312 91.8587 68.8079 90.582 70.3828 90.582H76.5025C78.0773 90.582 79.354 91.8587 79.354 93.4336V93.4336C79.354 96.4959 76.8716 98.9783 73.8093 98.9783H73.076C70.0137 98.9783 67.5312 96.4959 67.5312 93.4336V93.4336Z" fill="#F85555"/>
<path d="M66.3295 69.7588C62.7335 69.7588 59.8184 72.6157 59.8184 76.14C59.8184 79.6642 62.7335 82.5211 66.3295 82.5211H71.8125V88.1521C70.5248 89.5678 68.426 91.0922 65.9656 91.5571C63.4062 92.0407 60.1609 91.4363 56.6526 87.6603C56.0473 87.0089 55.0179 86.9616 54.3531 87.5548C53.6884 88.148 53.6402 89.157 54.2455 89.8085C58.4135 94.2944 62.7645 95.4113 66.5819 94.69C69.4424 94.1495 71.8284 92.6104 73.4831 91.0475C75.1378 92.6104 77.5238 94.1495 80.3843 94.69C84.2017 95.4113 88.5527 94.2944 92.7207 89.8085C93.326 89.157 93.2778 88.148 92.6131 87.5548C91.9484 86.9616 90.9188 87.0089 90.3136 87.6603C86.8053 91.4363 83.56 92.0407 81.0006 91.5571C78.5401 91.0922 76.4414 89.5678 75.1537 88.1521V82.5211H80.3797C83.9757 82.5211 86.8908 79.6642 86.8908 76.14C86.8908 72.6157 83.9757 69.7588 80.3797 69.7588H66.3295Z" fill="#444444"/>
<rect x="0.306641" y="87.0608" width="24" height="17" rx="8.5" fill="white"/>
<rect x="121.723" y="87.0491" width="24" height="17" rx="8.5" fill="white"/>
<path d="M153.644 21.272C153.644 21.64 153.804 21.912 154.108 22.104C154.268 22.216 154.444 22.264 154.636 22.264C154.7 22.264 154.764 22.264 154.828 22.248H154.892C154.876 22.328 154.876 22.488 154.876 22.696C154.86 23.192 154.844 23.832 154.844 24.632V27.16C154.844 28.04 154.844 28.648 154.828 28.968V29.816L154.812 30.296V30.408C154.812 30.68 154.908 30.904 155.1 31.112C155.292 31.304 155.516 31.4 155.788 31.4C155.82 31.4 155.852 31.4 155.868 31.384C155.98 31.496 156.092 31.592 156.236 31.64C156.348 31.672 156.444 31.688 156.556 31.688C156.7 31.688 156.844 31.656 157.004 31.592C157.244 31.48 157.42 31.288 157.5 31.032L157.564 30.856C157.628 30.68 157.708 30.392 157.788 29.992C157.868 29.592 157.932 29.096 157.964 28.536C157.996 27.976 158.012 27.256 158.012 26.344C158.012 25.432 158.012 24.648 157.996 23.976L157.964 22.472V21.96H158.156L158.46 21.944H158.908C159.18 21.944 159.404 21.848 159.596 21.656C159.788 21.464 159.884 21.24 159.884 20.968C159.884 20.696 159.788 20.472 159.596 20.264C159.404 20.072 159.18 19.976 158.908 19.976H158.604C158.476 19.96 158.284 19.976 158.012 19.992L157.308 20.024C157.02 20.024 156.652 20.04 156.22 20.056C155.756 20.072 155.324 20.136 154.94 20.216L154.428 20.328C154.156 20.376 153.948 20.52 153.804 20.744C153.692 20.92 153.644 21.096 153.644 21.272ZM166.352 30.408C166.464 30.328 166.576 30.264 166.656 30.184C166.768 30.072 166.96 29.848 167.232 29.48C167.536 29.064 167.776 28.488 167.968 27.768C168.16 27.08 168.256 26.472 168.272 25.928C168.288 25.448 168.288 25.112 168.288 24.936C168.288 24.664 168.24 24.392 168.128 24.088C168.048 23.816 167.92 23.56 167.776 23.352C167.648 23.144 167.488 22.936 167.296 22.728C167.056 22.456 166.752 22.264 166.416 22.12C166.096 21.992 165.792 21.928 165.488 21.928H164.864C164.368 21.928 163.936 22.104 163.552 22.456C163.312 22.664 163.072 22.936 162.832 23.24C162.576 23.576 162.4 23.864 162.288 24.104L161.904 25.048C161.712 25.544 161.6 25.976 161.552 26.344C161.504 26.664 161.488 26.984 161.488 27.304V28.088C161.488 28.408 161.52 28.712 161.584 28.984C161.664 29.32 161.872 29.688 162.176 30.072C162.208 30.088 162.256 30.136 162.32 30.216L162.464 30.392C162.48 30.424 162.528 30.472 162.592 30.52C162.64 30.584 162.704 30.632 162.784 30.68C162.864 30.728 162.944 30.76 163.024 30.792C163.12 30.824 163.28 30.888 163.52 30.984C163.888 31.144 164.288 31.224 164.688 31.224C165.088 31.224 165.408 31.176 165.648 31.064L165.824 31C166.08 30.888 166.256 30.68 166.352 30.408ZM165.504 23.912C165.552 23.912 165.616 23.928 165.696 23.96C165.744 23.976 165.808 24.024 165.856 24.072C165.968 24.184 166.064 24.296 166.128 24.408C166.176 24.488 166.224 24.6 166.272 24.728C166.304 24.808 166.32 24.888 166.32 24.936C166.32 25.096 166.32 25.4 166.304 25.864C166.288 26.264 166.224 26.728 166.08 27.256C165.936 27.752 165.792 28.104 165.632 28.312C165.488 28.504 165.391 28.648 165.312 28.744L165.184 28.792C165.152 28.808 165.104 28.808 165.04 28.808H164.96C164.832 28.792 164.736 28.744 164.656 28.696C164.576 28.648 164.528 28.6 164.48 28.568C164.464 28.504 164.464 28.44 164.464 28.392V27.528C164.464 27.112 164.48 26.648 164.528 26.152C164.576 25.656 164.624 25.256 164.672 24.936C164.688 24.824 164.72 24.712 164.736 24.632C164.911 24.6 165.072 24.52 165.216 24.376C165.36 24.248 165.456 24.088 165.504 23.912ZM171.206 30.488C171.27 30.728 171.414 30.936 171.622 31.112C171.83 31.272 172.038 31.368 172.23 31.4C172.438 31.432 172.71 31.448 173.046 31.464C173.462 31.464 173.878 31.4 174.31 31.256C174.742 31.128 175.078 30.984 175.334 30.84C175.558 30.696 175.75 30.568 175.878 30.456C176.134 30.248 176.31 29.976 176.422 29.624C176.486 29.448 176.518 29.272 176.518 29.096C176.518 28.872 176.47 28.632 176.374 28.408C176.278 28.12 176.102 27.864 175.846 27.624C176.038 27.496 176.246 27.32 176.47 27.112C176.79 26.808 176.982 26.504 177.046 26.184C177.11 25.928 177.142 25.688 177.126 25.448L177.094 25.256C177.094 25.208 177.078 25.144 177.046 25.096L176.998 24.952C176.998 24.904 176.966 24.856 176.934 24.808L176.854 24.696C176.854 24.68 176.822 24.632 176.774 24.584L176.678 24.488C176.678 24.472 176.646 24.44 176.598 24.392L176.502 24.296C176.23 24.008 175.878 23.72 175.446 23.448C175.078 23.208 174.742 23 174.438 22.84C174.134 22.664 173.83 22.504 173.542 22.392C173.398 22.328 173.254 22.28 173.11 22.232C172.95 22.184 172.806 22.152 172.662 22.136L172.422 22.104C172.39 22.088 172.342 22.088 172.294 22.088C172.23 22.088 172.166 22.104 172.102 22.12C172.006 22.04 171.91 21.976 171.782 21.928C171.67 21.88 171.558 21.864 171.446 21.864C171.302 21.864 171.174 21.896 171.03 21.96C170.79 22.072 170.614 22.264 170.518 22.52L170.422 22.776C170.342 23.016 170.278 23.304 170.23 23.656C170.198 23.944 170.15 24.328 170.07 24.792C170.006 25.304 169.958 25.848 169.926 26.408C169.894 26.984 169.894 27.384 169.894 27.608C169.91 27.784 169.91 27.976 169.91 28.2V28.872C169.91 29.128 169.926 29.352 169.958 29.528L169.99 29.704C170.054 29.976 170.182 30.184 170.406 30.328C170.582 30.456 170.774 30.52 170.982 30.52C171.03 30.52 171.094 30.52 171.142 30.504C171.174 30.504 171.19 30.504 171.206 30.488ZM173.414 26.44L173.27 26.472L173.286 26.152C173.318 25.4 173.35 24.856 173.382 24.52V24.504L173.478 24.552C173.75 24.696 174.054 24.888 174.39 25.096C174.678 25.288 174.918 25.48 175.078 25.656L175.11 25.688L175.094 25.704C174.982 25.816 174.886 25.912 174.79 25.96C174.694 26.04 174.566 26.104 174.438 26.152C174.342 26.2 174.166 26.264 173.91 26.328C173.67 26.392 173.51 26.424 173.414 26.44ZM173.19 28.36L173.366 28.408L173.478 28.456L173.83 28.616L174.086 28.744C174.15 28.776 174.262 28.856 174.438 29L174.486 29.032C174.438 29.08 174.374 29.112 174.31 29.144C174.198 29.224 174.006 29.304 173.734 29.384C173.526 29.448 173.334 29.48 173.142 29.496L173.174 28.952C173.174 28.76 173.19 28.568 173.19 28.36ZM179.202 25.56C179.362 25.656 179.522 25.688 179.698 25.688C180.034 25.688 180.306 25.544 180.498 25.288C180.898 25.192 180.914 25.192 181.298 25.192H181.794C181.842 25.24 181.874 25.288 181.906 25.336L181.97 25.464C181.746 25.48 181.49 25.544 181.202 25.672C180.898 25.8 180.578 26.04 180.258 26.392C179.986 26.696 179.778 26.968 179.634 27.208C179.474 27.448 179.346 27.672 179.266 27.88C179.154 28.12 179.09 28.376 179.042 28.648C179.01 28.904 178.994 29.144 178.994 29.368C178.994 29.72 179.074 30.024 179.25 30.248C179.282 30.296 179.314 30.328 179.346 30.36L179.426 30.44C179.442 30.472 179.474 30.504 179.522 30.52L179.602 30.584C179.618 30.6 179.65 30.632 179.698 30.648L179.778 30.696C179.794 30.712 179.81 30.712 179.858 30.728L179.938 30.76C179.954 30.776 179.97 30.776 180.018 30.792L180.098 30.824C180.418 30.936 180.77 31 181.138 31C181.474 31 181.794 30.936 182.114 30.824C182.354 30.728 182.578 30.616 182.77 30.504C182.962 30.808 183.234 30.968 183.602 30.968C183.874 30.968 184.098 30.872 184.29 30.68C184.482 30.488 184.578 30.264 184.578 29.992V27.304C184.562 26.776 184.514 26.2 184.418 25.544C184.322 24.888 184.226 24.44 184.146 24.2C184.018 23.864 183.778 23.56 183.426 23.288C183.154 23.064 182.882 22.92 182.578 22.856C182.434 22.824 182.306 22.808 182.162 22.808C181.922 22.808 181.682 22.824 181.458 22.84C181.186 22.856 181.186 22.888 180.45 23.08C180.258 23.128 180.098 23.24 179.954 23.4L179.826 23.432C179.762 23.448 179.714 23.464 179.682 23.48L179.538 23.528C179.474 23.56 179.426 23.592 179.378 23.608L179.234 23.72C179.186 23.768 179.122 23.816 179.074 23.88L178.93 24.088L178.866 24.216C178.77 24.376 178.722 24.536 178.722 24.712C178.722 25.096 178.898 25.384 179.202 25.56ZM182.082 27.432H182.29L182.322 28.792L182.066 28.952L181.634 29.176C181.57 29.24 181.474 29.288 181.346 29.336C181.234 29.368 181.122 29.384 181.01 29.384C180.962 29.384 180.914 29.384 180.882 29.368C180.882 29.336 180.882 29.32 180.898 29.288C180.898 29.192 181.026 28.76 181.058 28.68C181.106 28.568 181.186 28.424 181.282 28.264C181.394 28.12 181.538 27.928 181.714 27.72C181.842 27.592 181.938 27.512 182.002 27.464L182.082 27.432ZM188.271 33.256C188.463 33.224 188.639 33.144 188.783 33.016C188.927 32.888 189.023 32.728 189.071 32.536L189.103 32.408C189.135 32.296 189.167 32.12 189.199 31.88C189.215 31.656 189.247 31.256 189.263 30.664C189.263 30.616 189.263 30.552 189.279 30.504C189.455 30.6 189.679 30.696 189.983 30.744C190.111 30.76 190.239 30.776 190.367 30.776C190.639 30.776 190.879 30.728 191.119 30.632C191.423 30.504 191.711 30.296 191.983 30.024C192.191 29.784 192.399 29.512 192.607 29.176C192.831 28.824 193.007 28.44 193.119 28.008C193.231 27.592 193.279 27.208 193.295 26.856C193.295 26.488 193.231 26.104 193.119 25.736C192.975 25.304 192.735 24.92 192.383 24.552C192.111 24.28 191.839 24.04 191.567 23.832C191.311 23.624 191.103 23.48 190.943 23.368C190.799 23.288 190.671 23.208 190.591 23.144L190.447 23.048C190.255 22.936 190.047 22.888 189.823 22.904V22.888C189.839 22.616 189.775 22.376 189.599 22.168C189.423 21.96 189.215 21.848 188.959 21.816C188.879 21.736 188.783 21.672 188.687 21.624C188.559 21.576 188.431 21.544 188.303 21.544C188.191 21.544 188.063 21.56 187.935 21.608C187.679 21.72 187.503 21.896 187.391 22.136L187.215 22.52C187.071 22.856 186.927 23.432 186.815 24.28C186.703 25.032 186.623 25.832 186.543 26.664C186.463 27.48 186.399 28.152 186.319 28.68C186.223 29.352 186.175 30.312 186.175 31.592C186.175 32.472 186.207 33.048 186.271 33.32L186.351 33.736L186.367 33.864C186.399 34.136 186.527 34.344 186.751 34.52C186.927 34.664 187.119 34.728 187.327 34.728C187.663 34.728 187.919 34.6 188.127 34.344C188.287 34.12 188.351 33.88 188.319 33.624L188.303 33.496L188.271 33.256ZM189.487 28.216L189.519 27.864C189.599 27.288 189.647 26.696 189.663 26.104C189.679 25.688 189.695 25.288 189.711 24.92L189.855 25.016L190.367 25.384C190.575 25.544 190.783 25.736 190.991 25.944C191.119 26.072 191.199 26.2 191.247 26.328C191.295 26.504 191.327 26.664 191.327 26.84C191.327 27.016 191.295 27.24 191.215 27.496C191.151 27.736 191.055 27.944 190.943 28.152C190.799 28.36 190.671 28.536 190.559 28.664C190.479 28.744 190.415 28.792 190.367 28.808H190.303C190.287 28.792 190.255 28.792 190.239 28.792L190.159 28.68C190.015 28.424 189.791 28.264 189.487 28.216ZM203.118 24.344C203.118 24.328 203.118 24.312 203.134 24.296L203.182 24.168C203.23 24.056 203.246 23.928 203.246 23.8C203.246 23.672 203.23 23.544 203.182 23.416C203.07 23.16 202.894 22.984 202.654 22.872C202.526 22.824 202.414 22.808 202.286 22.808C202.158 22.808 202.03 22.824 201.902 22.872C201.646 22.984 201.47 23.16 201.358 23.4L201.294 23.56C201.214 23.768 201.15 24.072 201.134 24.456L201.086 25.688L201.038 27.64V27.8C200.334 27.064 199.214 25.992 197.902 25.848V23.624C197.902 23.352 197.806 23.128 197.614 22.936C197.422 22.744 197.182 22.648 196.91 22.648C196.798 22.648 196.686 22.664 196.574 22.712C196.382 22.504 196.158 22.408 195.886 22.408C195.614 22.408 195.374 22.504 195.182 22.696C194.99 22.904 194.894 23.128 194.894 23.4V24.04C194.894 24.232 194.926 24.648 194.974 25.272C195.038 25.864 195.102 26.472 195.15 27.096C195.214 27.72 195.278 28.216 195.326 28.552C195.39 28.952 195.486 29.288 195.63 29.56C195.742 29.8 195.87 29.992 195.982 30.136C195.982 30.152 195.982 30.152 195.998 30.152C196.11 30.488 196.35 30.712 196.734 30.856C196.91 30.984 197.102 31.048 197.294 31.048C197.39 31.048 197.502 31.032 197.598 31C197.87 31.016 198.142 31 198.43 30.984C198.862 30.936 199.246 30.872 199.582 30.776C199.934 30.68 200.222 30.584 200.43 30.472C200.67 30.36 200.862 30.216 201.038 30.056L201.102 29.992C201.166 30.216 201.294 30.392 201.502 30.52C201.662 30.632 201.838 30.696 202.03 30.696C202.27 30.696 202.494 30.616 202.67 30.44C202.91 30.392 203.102 30.28 203.262 30.104C203.406 29.928 203.486 29.72 203.486 29.48V25.704C203.486 25.56 203.486 25.448 203.502 25.352V25.192C203.534 24.84 203.406 24.552 203.118 24.344ZM199.518 28.808C199.278 28.872 198.574 29 198.27 29.016C198.142 29.032 198.014 29.032 197.902 29.032V27.64C198.542 27.784 199.198 28.232 199.566 28.792C199.55 28.792 199.534 28.792 199.518 28.808ZM217.638 28.952C217.446 28.488 217.142 28.2 216.71 28.12H216.454C216.454 28.024 216.454 27.944 216.438 27.88C216.438 27.768 216.454 27.464 216.486 27C216.518 26.504 216.582 25.944 216.678 25.288C216.758 24.728 216.822 24.392 216.854 24.248L216.902 24.088C216.934 23.992 216.95 23.88 216.95 23.784C216.95 23.64 216.918 23.48 216.838 23.336C216.71 23.096 216.518 22.936 216.262 22.856C216.166 22.824 216.054 22.808 215.958 22.808C215.798 22.808 215.462 22.856 215.302 22.952C215.126 22.696 214.886 22.552 214.598 22.552C214.406 22.552 214.214 22.616 213.99 22.712L213.75 22.808L213.638 22.856C213.526 22.888 213.302 22.984 212.966 23.128C212.534 23.336 212.214 23.56 212.006 23.832C211.798 24.104 211.702 24.36 211.702 24.632C211.702 24.824 211.75 25.016 211.846 25.208V25.256C211.846 25.448 211.83 25.864 211.798 26.504C211.782 27.064 211.718 27.464 211.638 27.704C211.542 27.928 211.446 28.088 211.366 28.2C211.302 28.264 211.254 28.312 211.222 28.328L211.174 28.424C211.158 28.472 211.126 28.568 211.078 28.68L210.966 29.016C210.678 29.048 210.422 29.144 210.214 29.288C210.006 29.448 209.894 29.704 209.894 30.072C209.894 30.216 209.926 30.44 209.99 30.776C210.038 31 210.07 31.32 210.102 31.736C210.15 32.248 210.198 32.648 210.278 32.952L210.374 33.32C210.454 33.592 210.598 33.784 210.838 33.928C210.998 34.024 211.158 34.072 211.318 34.072C211.414 34.072 211.494 34.056 211.59 34.04C211.846 33.96 212.038 33.816 212.182 33.576C212.278 33.416 212.31 33.272 212.31 33.112C212.31 33.016 212.31 32.936 212.278 32.84L212.182 32.456C212.134 32.264 212.102 31.976 212.07 31.576L212.006 31H212.726C213.382 30.984 213.91 30.936 214.342 30.856C214.55 30.824 214.726 30.792 214.886 30.744C214.95 31.336 215.142 32.424 215.286 32.76C215.334 32.888 215.382 33.032 215.462 33.192L215.558 33.432C215.702 33.752 216.022 34.024 216.31 34.024C216.598 34.024 216.566 33.992 216.694 33.944L216.886 33.832C217.158 33.816 217.382 33.72 217.574 33.528C217.766 33.336 217.862 33.112 217.862 32.84V32.648C217.846 31.864 217.734 29.208 217.638 28.952ZM214.422 25.352C214.358 25.944 214.214 27.736 214.23 27.976L214.262 28.648C214.262 28.76 214.262 28.84 214.278 28.904C214.23 28.904 214.198 28.904 214.15 28.92C213.942 28.968 213.51 29 213.19 29.016C213.286 28.84 213.382 28.632 213.462 28.392C213.638 27.96 213.734 27.352 213.766 26.6C213.782 26.232 213.798 25.256 213.798 25.016H214.454L214.422 25.352ZM224.144 22.28C223.92 22.248 223.744 22.232 223.616 22.216L223.184 22.168H222.864C222.624 22.168 222.416 22.216 222.256 22.328C222.096 22.44 221.984 22.584 221.936 22.744C221.872 22.904 221.824 23.032 221.808 23.128C221.792 23.24 221.776 23.32 221.776 23.384C221.792 23.496 221.792 23.704 221.792 24.024C221.792 24.344 221.792 24.808 221.776 25.416C221.776 25.992 221.744 26.568 221.664 27.128C221.6 27.592 221.552 27.88 221.504 28.024C221.424 28.184 221.344 28.36 221.232 28.552C221.152 28.696 221.088 28.808 221.008 28.888C220.96 28.936 220.928 28.968 220.88 28.984C220.736 28.92 220.592 28.872 220.448 28.872C220.32 28.872 220.208 28.904 220.08 28.952C219.824 29.048 219.648 29.224 219.536 29.48C219.472 29.608 219.456 29.752 219.456 29.88C219.456 29.992 219.472 30.12 219.52 30.232L219.568 30.328C219.664 30.584 219.824 30.776 220.048 30.888C220.272 31 220.48 31.048 220.672 31.048C220.832 31.048 220.992 31.032 221.152 31C221.36 30.952 221.568 30.872 221.808 30.744C222.032 30.616 222.24 30.44 222.432 30.232C222.624 30.04 222.8 29.8 222.96 29.496C223.088 29.256 223.2 29.032 223.296 28.824C223.424 28.552 223.536 28.056 223.616 27.368C223.696 26.728 223.728 26.088 223.744 25.448C223.76 24.936 223.76 24.52 223.76 24.216C223.808 24.216 223.872 24.216 223.936 24.232C224.112 24.248 224.24 24.28 224.336 24.312L224.384 24.344V25.928C224.384 26.264 224.368 26.696 224.352 27.24C224.336 27.8 224.32 28.216 224.32 28.472V29.08C224.32 29.304 224.336 29.528 224.384 29.736L224.432 29.976C224.464 30.12 224.528 30.232 224.608 30.344C224.64 30.552 224.72 30.728 224.864 30.872C224.992 31.016 225.152 31.128 225.344 31.176C225.44 31.192 225.52 31.208 225.6 31.208C225.776 31.208 225.936 31.16 226.096 31.064C226.336 30.92 226.48 30.728 226.544 30.456L226.608 30.168C226.656 29.992 226.704 29.832 226.736 29.688C226.784 29.512 226.816 29.352 226.832 29.208C226.848 29.128 226.896 28.952 226.944 28.712C227.024 28.376 227.072 28.008 227.072 27.608C227.088 27.304 227.12 26.856 227.168 26.248C227.232 25.592 227.264 25 227.264 24.488V23.624C227.264 23.448 227.248 23.256 227.216 23.08C227.136 22.68 226.912 22.376 226.544 22.184C226.336 22.072 226.08 22.008 225.776 21.992C225.6 21.976 225.456 21.976 225.36 21.976H224.848C224.576 21.976 224.336 22.072 224.144 22.28ZM234.591 21.576C234.399 21.56 234.223 21.576 234.047 21.656C233.871 21.736 233.727 21.864 233.631 22.024C233.599 22.04 233.551 22.04 233.503 22.04C233.279 22.056 232.991 22.12 232.671 22.248C232.463 22.344 232.239 22.424 232.015 22.504C231.695 22.616 231.407 22.776 231.151 22.968C230.911 23.144 230.671 23.384 230.414 23.656C230.159 23.96 229.967 24.264 229.807 24.584C229.679 24.904 229.583 25.176 229.551 25.4C229.535 25.576 229.519 25.736 229.519 25.896C229.519 26.216 229.647 26.552 229.871 26.92C229.999 27.096 230.143 27.256 230.303 27.384C230.527 27.56 230.799 27.688 231.119 27.752H231.151C230.927 28.024 230.735 28.232 230.575 28.376L229.935 28.984L229.375 29.528L229.183 29.72L229.087 29.832L228.991 29.976C228.975 30.024 228.959 30.088 228.927 30.168L228.879 30.424L228.863 30.536C228.847 30.808 228.927 31.048 229.087 31.256C229.279 31.496 229.535 31.624 229.839 31.624C230.047 31.624 230.223 31.576 230.399 31.448C230.607 31.304 230.735 31.128 230.799 30.888L231.279 30.408L231.935 29.8C232.143 29.608 232.367 29.368 232.623 29.064V30.04C232.623 30.216 232.655 30.392 232.687 30.568L232.719 30.712C232.783 30.984 232.927 31.192 233.151 31.336C233.311 31.448 233.503 31.496 233.679 31.496C233.759 31.496 233.823 31.496 233.887 31.48L233.967 31.448C234.015 31.464 234.063 31.464 234.095 31.464C234.367 31.464 234.591 31.368 234.783 31.176C234.975 30.984 235.087 30.76 235.087 30.488V30.344L235.119 29.864L235.263 28.792C235.343 28.312 235.375 27.768 235.375 27.144C235.375 26.584 235.391 26.008 235.391 25.416L235.407 23.816V22.808L235.423 22.696C235.439 22.648 235.439 22.584 235.439 22.536C235.439 22.328 235.375 22.136 235.247 21.96C235.087 21.752 234.863 21.624 234.591 21.576ZM232.591 24.392C232.607 24.6 232.607 24.824 232.607 25.08C232.623 25.304 232.623 25.56 232.623 25.864C232.495 25.88 232.383 25.88 232.271 25.88C231.983 25.88 231.727 25.864 231.519 25.816H231.503C231.503 25.816 231.487 25.816 231.487 25.8C231.487 25.752 231.503 25.72 231.503 25.672C231.519 25.608 231.551 25.512 231.599 25.4C231.663 25.256 231.775 25.096 231.903 24.952C232.062 24.776 232.191 24.648 232.303 24.552L232.591 24.392ZM248.439 23.448C248.423 23.24 248.359 23.048 248.231 22.856C248.055 22.632 247.847 22.504 247.575 22.472L247.511 22.456L247.399 22.408C247.159 22.296 246.919 22.216 246.647 22.168C246.407 22.12 246.151 22.104 245.879 22.104C245.543 22.104 245.239 22.152 244.999 22.264H244.855C244.695 22.264 244.519 22.28 244.311 22.328C244.023 22.392 243.751 22.52 243.495 22.728C243.255 22.92 243.047 23.192 242.839 23.528C242.695 23.8 242.519 24.2 242.343 24.696C242.167 25.192 242.039 25.592 241.975 25.88C241.911 26.168 241.863 26.568 241.847 27.064C241.847 27.304 241.831 27.544 241.831 27.736C241.831 27.944 241.847 28.12 241.847 28.28C241.895 28.744 242.055 29.144 242.327 29.496C242.519 29.752 242.711 29.96 242.903 30.12C243.079 30.264 243.287 30.408 243.559 30.568C243.911 30.776 244.263 30.888 244.631 30.936C244.903 30.968 245.095 30.984 245.207 30.984H245.335C245.463 30.984 245.591 30.952 245.719 30.904C245.831 30.92 245.943 30.92 246.087 30.92H246.391C246.663 30.92 246.935 30.84 247.175 30.664L247.287 30.584C247.559 30.392 247.719 30.104 247.719 29.752C247.719 29.56 247.655 29.368 247.527 29.208C247.351 28.952 247.079 28.792 246.727 28.792C246.551 28.792 246.359 28.84 246.183 28.952H245.943C245.895 28.936 245.847 28.904 245.767 28.872C245.655 28.808 245.511 28.712 245.335 28.568C245.191 28.456 245.095 28.344 245.015 28.216L244.935 28.056C244.919 27.944 244.919 27.8 244.919 27.656C244.919 27.48 244.935 27.112 244.967 26.584C245.015 26.088 245.111 25.624 245.255 25.16C245.399 24.728 245.527 24.44 245.671 24.264C245.735 24.184 245.799 24.12 245.847 24.072H245.879C246.023 24.072 246.167 24.088 246.295 24.104C246.391 24.12 246.487 24.152 246.567 24.184C246.807 24.296 247.015 24.376 247.191 24.408L247.287 24.424C247.559 24.456 247.799 24.392 248.023 24.216C248.279 24.04 248.439 23.784 248.439 23.448ZM254.898 30.408C255.01 30.328 255.122 30.264 255.202 30.184C255.314 30.072 255.506 29.848 255.778 29.48C256.082 29.064 256.322 28.488 256.514 27.768C256.706 27.08 256.802 26.472 256.818 25.928C256.834 25.448 256.834 25.112 256.834 24.936C256.834 24.664 256.786 24.392 256.674 24.088C256.594 23.816 256.466 23.56 256.322 23.352C256.194 23.144 256.034 22.936 255.842 22.728C255.602 22.456 255.298 22.264 254.962 22.12C254.642 21.992 254.338 21.928 254.034 21.928H253.41C252.914 21.928 252.482 22.104 252.098 22.456C251.858 22.664 251.618 22.936 251.378 23.24C251.122 23.576 250.946 23.864 250.834 24.104L250.45 25.048C250.258 25.544 250.146 25.976 250.098 26.344C250.05 26.664 250.034 26.984 250.034 27.304V28.088C250.034 28.408 250.066 28.712 250.13 28.984C250.21 29.32 250.418 29.688 250.722 30.072C250.754 30.088 250.802 30.136 250.866 30.216L251.01 30.392C251.026 30.424 251.074 30.472 251.138 30.52C251.186 30.584 251.25 30.632 251.33 30.68C251.41 30.728 251.49 30.76 251.57 30.792C251.666 30.824 251.826 30.888 252.066 30.984C252.434 31.144 252.834 31.224 253.234 31.224C253.634 31.224 253.954 31.176 254.194 31.064L254.37 31C254.626 30.888 254.802 30.68 254.898 30.408ZM254.05 23.912C254.098 23.912 254.162 23.928 254.242 23.96C254.29 23.976 254.354 24.024 254.402 24.072C254.514 24.184 254.61 24.296 254.674 24.408C254.722 24.488 254.77 24.6 254.818 24.728C254.85 24.808 254.866 24.888 254.866 24.936C254.866 25.096 254.866 25.4 254.85 25.864C254.834 26.264 254.77 26.728 254.626 27.256C254.482 27.752 254.338 28.104 254.178 28.312C254.034 28.504 253.938 28.648 253.858 28.744L253.73 28.792C253.698 28.808 253.65 28.808 253.586 28.808H253.506C253.378 28.792 253.282 28.744 253.202 28.696C253.122 28.648 253.074 28.6 253.026 28.568C253.01 28.504 253.01 28.44 253.01 28.392V27.528C253.01 27.112 253.026 26.648 253.074 26.152C253.122 25.656 253.17 25.256 253.218 24.936C253.234 24.824 253.266 24.712 253.282 24.632C253.458 24.6 253.618 24.52 253.762 24.376C253.906 24.248 254.002 24.088 254.05 23.912ZM261.705 24.104L261.385 24.2C261.401 24.12 261.433 24.072 261.449 24.024C261.497 23.896 261.673 23.528 262.217 23L262.361 22.888C262.489 22.808 262.601 22.744 262.681 22.712C262.841 22.648 262.969 22.6 263.081 22.568C263.257 22.52 263.465 22.44 263.705 22.344C263.977 22.232 264.217 22.104 264.409 21.992L264.921 21.656C265.161 21.496 265.337 21.336 265.481 21.192C265.609 21.08 265.721 20.968 265.801 20.856L265.817 20.84L265.913 20.776C266.185 20.584 266.345 20.296 266.345 19.944C266.345 19.752 266.281 19.576 266.169 19.4C265.993 19.128 265.705 18.968 265.337 18.968C265.145 18.968 264.969 19.032 264.809 19.144L264.697 19.224C264.553 19.32 264.409 19.448 264.297 19.592L264.089 19.816C264.025 19.88 263.929 19.96 263.801 20.04L263.369 20.328C263.273 20.376 263.145 20.44 262.969 20.504C262.777 20.584 262.633 20.648 262.521 20.68C262.345 20.728 262.153 20.792 261.929 20.888C261.673 21 261.385 21.16 261.097 21.368C260.697 21.656 260.089 22.184 259.641 22.792L259.305 23.368L259.113 23.736C259.001 23.944 258.889 24.2 258.777 24.52C258.649 24.872 258.553 25.352 258.505 25.96C258.457 26.488 258.441 26.968 258.441 27.384V28.168C258.441 28.36 258.473 28.664 258.553 29.064C258.633 29.528 258.761 29.864 258.905 30.104C259.017 30.28 259.161 30.488 259.353 30.728C259.593 31.032 259.849 31.272 260.153 31.432C260.425 31.576 260.697 31.688 260.985 31.736C261.241 31.784 261.481 31.816 261.689 31.816H262.137C262.505 31.816 262.857 31.688 263.177 31.448C263.449 31.24 263.625 31.032 263.737 30.808L263.913 30.488L264.009 30.328C264.233 30.152 264.425 29.912 264.601 29.64C264.841 29.256 264.985 28.808 265.065 28.296C265.097 28.104 265.113 27.88 265.113 27.64C265.113 27.304 265.081 26.92 265.017 26.504C265.001 26.488 265.001 26.408 264.985 26.296L264.953 26.088C264.937 26.072 264.937 26.008 264.921 25.912L264.873 25.704C264.857 25.672 264.841 25.608 264.825 25.528L264.745 25.352L264.665 25.192C264.633 25.128 264.601 25.064 264.553 25.016L264.409 24.856C264.201 24.616 263.913 24.424 263.545 24.248C263.161 24.056 262.825 23.96 262.537 23.96C262.329 23.96 262.057 24.008 261.705 24.104ZM261.065 26.824C261.433 26.808 261.705 26.632 261.881 26.312L261.977 26.12L262.025 26.072C262.073 26.056 262.121 26.024 262.201 26.008C262.329 25.976 262.441 25.96 262.521 25.944C262.569 25.96 262.617 25.976 262.681 26.008L262.921 26.152C262.969 26.296 263.017 26.504 263.065 26.808C263.129 27.144 263.145 27.432 263.145 27.672C263.145 27.8 263.145 27.896 263.129 27.992C263.081 28.248 263.017 28.456 262.921 28.616C262.841 28.728 262.777 28.808 262.713 28.824C262.601 28.872 262.489 28.904 262.377 28.904C262.217 28.904 262.057 28.872 261.881 28.824C261.737 28.776 261.609 28.744 261.529 28.696C261.481 28.648 261.433 28.568 261.369 28.456C261.257 28.28 261.193 28.072 261.145 27.832C261.097 27.592 261.081 27.256 261.065 26.824ZM268.421 25.56C268.581 25.656 268.741 25.688 268.917 25.688C269.253 25.688 269.525 25.544 269.717 25.288C270.117 25.192 270.133 25.192 270.517 25.192H271.013C271.061 25.24 271.093 25.288 271.125 25.336L271.189 25.464C270.965 25.48 270.709 25.544 270.421 25.672C270.117 25.8 269.797 26.04 269.477 26.392C269.205 26.696 268.997 26.968 268.853 27.208C268.693 27.448 268.565 27.672 268.485 27.88C268.373 28.12 268.309 28.376 268.261 28.648C268.229 28.904 268.213 29.144 268.213 29.368C268.213 29.72 268.293 30.024 268.469 30.248C268.501 30.296 268.533 30.328 268.565 30.36L268.645 30.44C268.661 30.472 268.693 30.504 268.741 30.52L268.821 30.584C268.837 30.6 268.869 30.632 268.917 30.648L268.997 30.696C269.013 30.712 269.029 30.712 269.077 30.728L269.157 30.76C269.173 30.776 269.189 30.776 269.237 30.792L269.317 30.824C269.637 30.936 269.989 31 270.357 31C270.693 31 271.013 30.936 271.333 30.824C271.573 30.728 271.797 30.616 271.989 30.504C272.181 30.808 272.453 30.968 272.821 30.968C273.093 30.968 273.317 30.872 273.509 30.68C273.701 30.488 273.797 30.264 273.797 29.992V27.304C273.781 26.776 273.733 26.2 273.637 25.544C273.541 24.888 273.445 24.44 273.365 24.2C273.237 23.864 272.997 23.56 272.645 23.288C272.373 23.064 272.101 22.92 271.797 22.856C271.653 22.824 271.525 22.808 271.381 22.808C271.141 22.808 270.901 22.824 270.677 22.84C270.405 22.856 270.405 22.888 269.669 23.08C269.477 23.128 269.317 23.24 269.173 23.4L269.045 23.432C268.981 23.448 268.933 23.464 268.901 23.48L268.757 23.528C268.693 23.56 268.645 23.592 268.597 23.608L268.453 23.72C268.405 23.768 268.341 23.816 268.293 23.88L268.149 24.088L268.085 24.216C267.989 24.376 267.941 24.536 267.941 24.712C267.941 25.096 268.117 25.384 268.421 25.56ZM271.301 27.432H271.509L271.541 28.792L271.285 28.952L270.853 29.176C270.789 29.24 270.693 29.288 270.565 29.336C270.453 29.368 270.341 29.384 270.229 29.384C270.181 29.384 270.133 29.384 270.101 29.368C270.101 29.336 270.101 29.32 270.117 29.288C270.117 29.192 270.245 28.76 270.277 28.68C270.325 28.568 270.405 28.424 270.501 28.264C270.613 28.12 270.757 27.928 270.933 27.72C271.061 27.592 271.157 27.512 271.221 27.464L271.301 27.432ZM282.354 23.48C282.354 23.16 282.242 22.92 282.002 22.712C281.794 22.536 281.554 22.472 281.282 22.488L281.106 22.504C280.882 22.52 280.674 22.6 280.466 22.744C280.322 22.856 280.178 23 280.05 23.176L279.586 23.864C279.394 24.136 279.154 24.456 278.85 24.792C278.61 25.032 278.418 25.256 278.242 25.464V24.904C278.242 24.44 278.258 24.088 278.29 23.864C278.45 23.688 278.562 23.448 278.562 23.16C278.562 23.016 278.53 22.872 278.466 22.744C278.354 22.504 278.162 22.344 277.906 22.248C277.778 22.216 277.666 22.2 277.57 22.2C277.426 22.2 277.282 22.232 277.154 22.296L277.042 22.344L276.834 22.472C276.69 22.392 276.53 22.36 276.386 22.36C276.114 22.36 275.874 22.456 275.682 22.648C275.49 22.84 275.394 23.064 275.394 23.336V26.776C275.394 27.512 275.41 28.088 275.442 28.504C275.474 28.936 275.506 29.24 275.538 29.416L275.698 29.976L275.794 30.232C275.81 30.28 275.842 30.376 275.922 30.488C276.002 30.6 276.098 30.712 276.21 30.808L276.306 30.872C276.482 31.016 276.69 31.08 276.914 31.08C277.234 31.08 277.49 30.952 277.682 30.712C277.826 30.536 277.89 30.344 277.89 30.136C277.89 30.056 277.73 28.92 277.65 28.312L277.842 28.264C278.034 29 278.482 29.96 278.61 30.2C278.722 30.424 278.818 30.616 278.898 30.76L279.186 31.288C279.314 31.528 279.506 31.688 279.778 31.768C279.874 31.784 279.97 31.8 280.066 31.8C280.226 31.8 280.37 31.768 280.514 31.704C280.754 31.576 280.914 31.384 280.994 31.128C281.026 31.016 281.042 30.92 281.042 30.808C281.042 30.664 281.01 30.504 280.93 30.36L280.834 30.2L280.626 29.8C280.546 29.672 280.466 29.512 280.37 29.304L280.082 28.632C280.002 28.392 279.954 28.216 279.938 28.104V27.896L279.986 27.704C280.018 27.608 280.018 27.528 280.018 27.432C280.018 27.176 279.922 26.952 279.714 26.76L280.306 26.104C280.674 25.704 280.978 25.32 281.218 24.968L281.57 24.44C281.81 24.392 282.018 24.264 282.162 24.056C282.29 23.88 282.354 23.688 282.354 23.48Z" fill="white"/>
<path d="M152.129 68.038C152.129 67.126 151.293 65.91 150.305 64.504C148.329 62.072 147.037 59.146 145.441 55.384C148.253 50.71 148.633 50.14 148.633 46.91C148.633 44.516 147.683 42.388 145.973 40.982C144.415 39.728 143.731 39.348 140.007 39.348C139.817 39.082 139.551 38.892 139.247 38.778C138.943 38.664 138.639 38.588 138.335 38.588C137.157 38.588 136.511 39.234 135.941 40.488C135.485 41.514 134.763 48.088 134.763 49.608C134.611 52.116 134.573 54.624 134.573 58.196C134.573 61.882 136.587 68.19 139.323 68.19C139.551 68.19 139.817 68.152 140.083 68.076C140.273 68.114 140.425 68.152 140.615 68.152C141.641 68.152 141.907 67.886 141.907 66.29C141.907 65.454 141.831 64.276 141.755 62.604C141.717 62.072 141.603 60.97 141.603 59.868L142.059 59.64C142.743 61.274 145.023 65.34 145.973 66.556C148.253 69.596 148.101 70.356 149.811 70.356C151.141 70.356 152.129 69.368 152.129 68.038ZM143.693 49.38C142.971 50.672 141.527 51.66 141.033 51.888C140.995 50.9 140.957 50.026 140.957 49.19C140.957 47.29 141.071 45.618 141.261 43.642L143.009 44.592C143.351 44.896 143.617 45.39 143.807 45.732C143.845 45.846 143.845 45.96 143.883 46.112C143.921 46.378 143.959 46.644 143.959 46.91V47.898C143.959 48.202 143.997 48.81 143.693 49.38ZM162.523 67.468C161.041 67.582 158.989 65.758 158.229 64.352C156.633 61.92 155.911 59.906 155.911 57.056C155.911 55.156 157.051 51.888 158.381 49.836C159.217 48.088 161.003 46.986 163.777 46.986C167.387 46.986 170.465 49.228 170.731 52.496C170.769 52.876 170.769 53.446 170.769 54.13C170.769 56.106 170.655 57.094 170.541 58.538C170.427 64.276 168.451 68 164.537 68C163.853 68 163.017 67.81 162.523 67.468ZM164.005 51.698C164.005 51.698 163.055 50.748 163.055 55.878C163.055 57.284 163.093 58.538 163.131 59.564C163.207 60.742 163.701 62.11 164.917 62.984C165.639 61.73 166.095 58.462 166.095 55.422C166.095 53.484 166.095 53.218 166.057 52.8C165.601 52.078 165.107 51.698 164.005 51.698ZM178.453 39.576C177.161 39.576 176.059 40.64 176.059 42.236C175.565 42.958 175.261 43.68 175.261 44.82L174.577 66.632C174.577 67.81 175.489 68.988 176.895 68.988C177.389 68.988 177.807 68.836 178.225 68.532C178.491 68.646 178.719 68.684 178.985 68.684C179.631 68.684 179.859 68.19 180.619 68C187.003 66.29 190.271 63.44 190.271 60.058C190.271 55.916 188.333 52.23 180.695 49.152C180.657 47.442 180.657 46.15 180.657 45.162C180.657 43.376 180.695 42.616 180.771 42.16C180.923 40.83 179.821 39.576 178.453 39.576ZM181.037 63.516V60.856C181.037 59.83 181.037 58.614 180.961 56.942L180.885 54.928C185.103 57.208 185.597 58.576 185.597 60.058C185.597 61.426 183.773 62.984 181.037 63.516ZM198.391 40.146C198.011 39.88 197.555 39.766 197.099 39.766C195.503 39.766 194.363 41.4 194.363 42.92C194.363 44.592 196.225 45.884 197.783 45.884C199.227 45.884 200.633 44.592 200.633 42.806C200.633 41.4 199.607 40.336 198.391 40.146ZM200.633 65.264C200.633 67.468 199.037 68 197.479 68C195.959 68 194.553 67.506 194.553 65.264C194.553 63.972 194.667 59.678 194.667 57.284C194.667 54.168 194.515 51.166 194.515 50.71C194.211 50.292 194.059 49.836 194.059 49.342C194.059 48.088 195.123 46.986 196.377 46.986H198.239C199.759 46.986 200.101 46.758 200.329 48.088C200.367 48.354 200.443 49 200.443 49.532C200.443 49.76 200.443 49.95 200.405 50.102C200.519 50.406 200.519 50.634 200.519 51.318C200.519 51.204 200.633 63.554 200.633 65.264ZM221.322 56.562C221.132 49.912 221.018 47.328 215.356 47.328C213.532 47.974 212.24 48.962 211.138 50.14C211.442 49.76 211.556 49.304 211.556 48.848C211.556 48.202 211.328 47.67 210.872 47.214C210.378 46.758 209.846 46.53 209.2 46.53C208.934 46.53 208.706 46.53 208.326 46.606C208.06 46.492 207.794 46.454 207.528 46.454C207.3 46.454 207.11 46.492 206.882 46.53C205.4 46.948 204.564 48.658 204.488 50.824C204.45 52.268 204.45 53.598 204.45 54.852C204.45 58.12 204.64 60.818 205.59 64.276C206.198 66.518 206.008 65.72 206.16 66.366C206.54 67.81 207.718 68.722 209.162 68.722C210.036 68.722 210.72 68.266 211.214 67.506L211.632 65.378C211.67 63.592 211.708 62.756 211.708 62.148C211.708 61.084 211.632 60.97 211.404 57.816C213.494 55.08 214.976 54.054 215.622 53.674C216.496 54.282 216.686 55.764 216.686 59.488C216.686 62.186 216.648 63.364 216.534 65.492C216.458 66.784 217.37 68 218.89 68C219.954 68 221.132 67.126 221.208 65.796C221.284 63.972 221.36 61.274 221.36 58.956C221.36 58.082 221.36 57.246 221.322 56.562ZM230.211 54.472C230.401 54.358 230.591 54.32 230.781 54.282L231.009 54.244C231.123 54.206 231.275 54.168 231.541 54.13C231.959 54.016 232.377 53.978 232.757 53.978C233.327 53.978 233.821 54.13 234.125 54.51C234.353 54.776 234.429 55.118 234.429 55.498C234.429 55.954 234.277 56.486 234.125 57.018C234.011 57.474 233.859 57.854 233.707 58.158L233.479 58.614C232.833 58.88 232.073 58.994 231.313 59.032L230.249 59.146C229.831 59.184 229.375 59.222 228.957 59.222C228.653 59.222 228.387 59.222 228.159 59.26L227.703 59.298C226.373 59.412 225.157 58.31 225.157 56.98C225.157 55.802 226.107 54.738 227.285 54.624L227.741 54.586C228.121 54.548 228.539 54.548 228.957 54.548C229.223 54.548 229.451 54.548 229.717 54.51C229.907 54.472 230.059 54.472 230.211 54.472ZM255.471 43.034C255.471 41.21 254.635 39.88 253.115 39.88C252.241 39.88 251.329 40.298 250.911 41.286C249.771 42.084 249.695 43.414 249.695 45.162C249.733 46.796 249.733 48.278 249.733 49.57C248.897 49.266 247.985 49.076 247.149 49.076C246.123 49.076 245.135 49.342 244.299 49.95C243.767 49.912 243.311 50.064 242.893 50.368C239.701 52.61 238.219 55.612 238.219 60.704C238.219 65.53 241.753 68.19 246.617 68.19C247.377 68.19 248.213 68 248.935 67.734C248.973 68.722 249.467 69.406 250.683 69.406C251.861 69.406 254.749 68.76 254.749 67.696C254.749 67.278 254.635 67.316 254.217 66.784C254.255 65.644 255.091 56.79 255.091 57.588C255.471 54.13 255.661 50.9 255.661 47.936C255.661 46.226 255.623 44.592 255.471 43.034ZM245.515 60.628L245.857 55.916C246.123 54.966 246.693 53.864 246.997 53.75C248.175 53.864 248.973 54.206 249.733 54.928C249.695 56.942 249.657 58.462 249.581 60.02C249.543 60.59 249.505 61.388 249.429 62.3C249.201 62.338 248.935 62.376 248.669 62.49C247.453 62.148 245.971 61.578 245.515 60.628ZM248.935 67.734C248.935 67.734 248.935 67.696 248.973 67.696C248.935 67.772 248.935 67.772 248.935 67.734ZM266.058 67.468C264.576 67.582 262.524 65.758 261.764 64.352C260.168 61.92 259.446 59.906 259.446 57.056C259.446 55.156 260.586 51.888 261.916 49.836C262.752 48.088 264.538 46.986 267.312 46.986C270.922 46.986 274 49.228 274.266 52.496C274.304 52.876 274.304 53.446 274.304 54.13C274.304 56.106 274.19 57.094 274.076 58.538C273.962 64.276 271.986 68 268.072 68C267.388 68 266.552 67.81 266.058 67.468ZM267.54 51.698C267.54 51.698 266.59 50.748 266.59 55.878C266.59 57.284 266.628 58.538 266.666 59.564C266.742 60.742 267.236 62.11 268.452 62.984C269.174 61.73 269.63 58.462 269.63 55.422C269.63 53.484 269.63 53.218 269.592 52.8C269.136 52.078 268.642 51.698 267.54 51.698ZM291.678 46.644C290.69 46.72 290.462 47.062 290.158 48.05L289.816 47.86C288.714 47.214 287.536 46.91 286.358 46.91C282.216 46.91 278.112 50.558 278.112 55.422C278.112 59.184 279.67 64.618 282.482 64.732C283.47 65.72 284.952 66.176 286.472 66.176C286.966 66.176 287.46 66.138 287.954 66.024L287.764 67.772C287.65 69.482 286.662 69.976 285.598 69.976C284.382 69.976 283.09 69.33 282.976 69.292C282.824 69.254 281.988 68.608 281.532 68.456C281.266 68.342 280.962 68.304 280.696 68.304C279.784 68.304 278.91 68.798 278.568 69.786C278.492 70.014 278.454 70.242 278.454 70.47C278.454 71.648 279.48 72.826 281.152 73.548C281.418 74.194 281.76 74.764 282.786 75.03C283.698 75.296 284.61 75.41 285.446 75.41C289.246 75.41 292.21 73.168 292.818 71.002C293.996 66.898 294.604 58.044 294.604 51.204L294.756 49.798C295.174 49.456 295.44 49.38 295.44 49C295.63 48.012 292.514 46.378 291.678 46.644ZM290.158 48.05C290.12 48.088 290.12 48.088 290.12 48.126C290.12 48.05 290.158 48.05 290.158 48.05ZM285.826 61.464C285.294 61.122 285.028 59.298 285.028 57.398C285.028 55.346 285.332 53.18 286.016 52.724C286.32 52.534 286.738 52.42 287.232 52.42C287.954 52.42 288.828 52.61 289.702 52.99C289.626 54.092 289.512 55.118 289.436 55.726C289.208 57.474 288.98 59.184 288.752 60.78C287.916 61.388 286.966 61.54 285.826 61.464Z" fill="white"/>
<path d="M179.176 88.054C179.154 88.032 179.154 87.988 179.154 87.966C179.11 87.834 179.088 87.68 179.088 87.548C179.088 86.976 179.462 86.426 180.034 86.272L180.65 86.074C181.2 85.898 181.574 85.81 181.816 85.81C182.696 85.81 183.62 86.492 183.62 87.702C183.62 88.868 182.762 90.122 181.596 90.232C181.486 90.232 181.398 90.254 181.288 90.254C181.134 90.254 180.958 90.232 180.782 90.21C180.056 90.144 179.55 89.792 179.308 89.154L179.22 88.978C179.154 88.802 179.132 88.648 179.132 88.45C179.132 88.318 179.132 88.186 179.176 88.054ZM194.899 78.616C194.877 78.33 194.789 78.066 194.613 77.802C194.371 77.494 194.085 77.318 193.711 77.274L193.623 77.252L193.469 77.186C193.139 77.032 192.809 76.922 192.435 76.856C192.105 76.79 191.753 76.768 191.379 76.768C190.917 76.768 190.499 76.834 190.169 76.988H189.971C189.751 76.988 189.509 77.01 189.223 77.076C188.827 77.164 188.453 77.34 188.101 77.626C187.771 77.89 187.485 78.264 187.199 78.726C187.001 79.1 186.759 79.65 186.517 80.332C186.275 81.014 186.099 81.564 186.011 81.96C185.923 82.356 185.857 82.906 185.835 83.588C185.835 83.918 185.813 84.248 185.813 84.512C185.813 84.798 185.835 85.04 185.835 85.26C185.901 85.898 186.121 86.448 186.495 86.932C186.759 87.284 187.023 87.57 187.287 87.79C187.529 87.988 187.815 88.186 188.189 88.406C188.673 88.692 189.157 88.846 189.663 88.912C190.037 88.956 190.301 88.978 190.455 88.978H190.631C190.807 88.978 190.983 88.934 191.159 88.868C191.313 88.89 191.467 88.89 191.665 88.89H192.083C192.457 88.89 192.831 88.78 193.161 88.538L193.315 88.428C193.689 88.164 193.909 87.768 193.909 87.284C193.909 87.02 193.821 86.756 193.645 86.536C193.403 86.184 193.029 85.964 192.545 85.964C192.303 85.964 192.039 86.03 191.797 86.184H191.467C191.401 86.162 191.335 86.118 191.225 86.074C191.071 85.986 190.873 85.854 190.631 85.656C190.433 85.502 190.301 85.348 190.191 85.172L190.081 84.952C190.059 84.798 190.059 84.6 190.059 84.402C190.059 84.16 190.081 83.654 190.125 82.928C190.191 82.246 190.323 81.608 190.521 80.97C190.719 80.376 190.895 79.98 191.093 79.738C191.181 79.628 191.269 79.54 191.335 79.474H191.379C191.577 79.474 191.775 79.496 191.951 79.518C192.083 79.54 192.215 79.584 192.325 79.628C192.655 79.782 192.941 79.892 193.183 79.936L193.315 79.958C193.689 80.002 194.019 79.914 194.327 79.672C194.679 79.43 194.899 79.078 194.899 78.616ZM200.92 88.692C200.062 88.758 198.874 87.702 198.434 86.888C197.51 85.48 197.092 84.314 197.092 82.664C197.092 81.564 197.752 79.672 198.522 78.484C199.006 77.472 200.04 76.834 201.646 76.834C203.736 76.834 205.518 78.132 205.672 80.024C205.694 80.244 205.694 80.574 205.694 80.97C205.694 82.114 205.628 82.686 205.562 83.522C205.496 86.844 204.352 89 202.086 89C201.69 89 201.206 88.89 200.92 88.692ZM201.778 79.562C201.778 79.562 201.228 79.012 201.228 81.982C201.228 82.796 201.25 83.522 201.272 84.116C201.316 84.798 201.602 85.59 202.306 86.096C202.724 85.37 202.988 83.478 202.988 81.718C202.988 80.596 202.988 80.442 202.966 80.2C202.702 79.782 202.416 79.562 201.778 79.562ZM222.177 86.162C222.177 85.348 222.529 84.644 222.529 83.5C222.529 80.596 221.693 78.11 219.273 78.11C219.163 78.11 218.657 78.11 218.569 78.132C217.689 78.264 217.051 78.726 216.589 79.342C216.303 78.77 215.907 78.44 215.335 78.11C214.983 77.912 214.477 77.78 213.905 77.78C213.355 77.78 212.739 77.912 212.211 78.198C212.189 77.186 211.749 76.768 210.847 76.768C210.715 76.768 210.583 76.79 210.451 76.834C210.319 76.768 210.011 76.702 209.901 76.702C209.241 76.702 208.691 77.164 208.537 77.846C208.449 78.242 208.361 79.452 208.273 80.662L207.965 86.492C207.943 86.778 207.899 87.108 207.899 87.394C207.899 88.34 208.383 88.802 209.065 88.912C209.219 89.506 209.747 89.924 210.363 89.924C211.089 89.924 211.727 89.308 211.727 88.582V87.746C211.727 87.416 211.727 87.196 211.749 87.042C211.815 86.602 212.057 82.73 212.145 80.904C212.387 80.794 212.607 80.728 212.827 80.728C213.707 80.728 214.367 81.608 214.367 83.016V87.834C214.367 88.714 214.741 89.352 215.467 89.242C216.963 89 217.293 88.164 217.293 87.394C217.359 85.722 217.205 81.102 219.097 80.838C219.317 80.838 219.295 80.838 219.317 80.86C219.427 80.948 219.515 81.102 219.625 81.344C219.757 81.674 219.801 82.532 219.801 83.368C219.801 84.204 219.537 84.908 219.537 86.228C219.537 87.746 219.911 89 221.099 89C221.913 89 222.441 88.34 222.441 87.658C222.441 87.482 222.309 86.976 222.287 86.91C222.221 86.646 222.177 86.404 222.177 86.162ZM224.809 88.054C224.787 88.032 224.787 87.988 224.787 87.966C224.743 87.834 224.721 87.68 224.721 87.548C224.721 86.976 225.095 86.426 225.667 86.272L226.283 86.074C226.833 85.898 227.207 85.81 227.449 85.81C228.329 85.81 229.253 86.492 229.253 87.702C229.253 88.868 228.395 90.122 227.229 90.232C227.119 90.232 227.031 90.254 226.921 90.254C226.767 90.254 226.591 90.232 226.415 90.21C225.689 90.144 225.183 89.792 224.941 89.154L224.853 88.978C224.787 88.802 224.765 88.648 224.765 88.45C224.765 88.318 224.765 88.186 224.809 88.054ZM241.588 86.712C241.5 86.162 241.39 85.282 241.368 84.204C241.346 83.698 241.346 81.476 241.346 81.476C241.346 80.53 241.214 79.386 241.06 78.418V78.11C241.06 77.384 240.444 76.768 239.718 76.768C238.992 76.768 238.354 77.362 238.354 78.11C238.354 80.838 237.188 83.764 235.648 85.216C235.516 83.434 235.34 79.672 235.34 78C235.34 77.274 234.724 76.636 233.998 76.636C233.646 76.636 233.338 76.768 233.074 77.01C232.942 76.966 232.81 76.944 232.7 76.944C232.172 76.944 231.776 77.362 231.776 78.22C231.776 79.386 231.446 80.926 231.446 82.752C231.446 86.58 232.106 89 234.548 89C236.528 89 237.694 87.02 238.684 84.908C238.728 85.722 238.948 87.35 238.948 87.856C238.948 88.626 239.564 89.22 240.312 89.22C241.06 89.22 241.654 88.626 241.654 87.856V87.438C241.654 87.284 241.632 87.042 241.588 86.712ZM244.524 81.52C244.744 81.652 244.964 81.696 245.206 81.696C245.668 81.696 246.042 81.498 246.306 81.146C246.856 81.014 246.878 81.014 248.088 81.014C248.198 81.146 248.22 81.19 248.33 81.388C246.218 81.498 244.238 84.336 244.238 86.756C244.238 88.274 245.558 89 247.186 89C247.956 89 248.748 88.736 249.43 88.318C249.694 88.736 250.068 88.956 250.574 88.956C251.322 88.956 251.916 88.34 251.916 87.614V83.918C251.85 80.376 251.168 77.736 248.594 77.736C247.428 77.736 247.472 77.78 246.24 78.11C245.976 78.176 245.756 78.33 245.558 78.55C244.568 78.792 243.864 79.562 243.864 80.354C243.864 80.882 244.106 81.278 244.524 81.52ZM248.484 84.094H248.77L248.814 85.964L248.462 86.184L247.868 86.492C247.78 86.58 247.648 86.646 247.472 86.712C247.318 86.756 247.164 86.778 247.01 86.778C246.944 86.778 246.878 86.778 246.834 86.756C246.834 86.712 246.834 86.69 246.856 86.646C246.856 86.514 247.032 85.92 247.076 85.81C247.142 85.656 247.252 85.458 247.384 85.238C247.538 85.04 247.736 84.776 247.978 84.49C248.154 84.314 248.286 84.204 248.374 84.138L248.484 84.094Z" fill="white" fill-opacity="0.55"/>
</g>
<defs>
<clipPath id="clip0">
<rect width="297" height="100" fill="white"/>
</clipPath>
</defs>
</svg>
