<svg width="90" height="83" viewBox="0 0 90 83" fill="none" xmlns="http://www.w3.org/2000/svg">
<rect width="89.998" height="82.538" fill="black" fill-opacity="0"/>
<path fill-rule="evenodd" clip-rule="evenodd" d="M24.9859 82.4941C24.6229 82.4691 24.2589 82.4491 23.8959 82.4161C21.8619 82.2251 19.9969 81.5621 18.3409 80.3631C15.4839 78.2941 13.6569 75.5431 12.9289 72.0811C12.6569 70.7801 12.5809 69.4671 12.6639 68.1421C12.7579 66.5871 13.0679 65.0791 13.5619 63.6041C14.3509 61.2501 15.5409 59.1141 17.0469 57.1451C18.1819 55.6611 19.4669 54.3171 20.8829 53.0981C22.2079 51.9561 23.4109 50.6951 24.5379 49.3601C25.9559 47.6771 27.2389 45.8931 28.5059 44.0971C29.6259 42.5091 30.7269 40.9111 31.9159 39.3761C32.8099 38.2181 33.7529 37.1031 34.8039 36.0841C36.1189 34.8111 37.5699 33.7331 39.2799 33.0341C40.5629 32.5091 41.8959 32.2311 43.2829 32.2021C44.8509 32.1661 46.3999 32.3211 47.9249 32.6941C50.2589 33.2671 52.2809 34.4021 54.0219 36.0541C55.2129 37.1891 56.2209 38.4731 57.1579 39.8171C58.1519 41.2421 59.065 42.7191 60.007 44.1791C61.069 45.8231 62.1649 47.4411 63.3899 48.9711C64.6099 50.4961 65.9559 51.9031 67.4259 53.1901C69.2039 54.7471 70.7819 56.4801 72.1259 58.4261C73.2719 60.0951 74.2059 61.8701 74.8579 63.7881C75.3659 65.2821 75.6849 66.8101 75.7659 68.3891C75.8909 70.7871 75.4769 73.0801 74.3889 75.2371C73.3819 77.2361 71.9239 78.8411 70.0929 80.1161C68.7469 81.0531 67.2949 81.7651 65.6959 82.1611C65.1299 82.3031 64.5549 82.4051 63.9739 82.4611C63.8929 82.4691 63.8149 82.4841 63.7369 82.4961C63.6609 82.5391 63.5769 82.5071 63.4969 82.5171C63.4309 82.5261 63.3609 82.4961 63.2979 82.5381C62.8019 82.5381 62.3039 82.5381 61.8079 82.5381C61.7489 82.4951 61.6819 82.5251 61.6189 82.5171C61.5609 82.5171 61.5059 82.5171 61.4489 82.5171C61.4019 82.5171 61.3509 82.5171 61.3049 82.5171C60.0339 82.4761 58.7999 82.2111 57.5699 81.9261C55.4859 81.4401 53.4429 80.8011 51.3699 80.2731C49.6909 79.8471 47.9979 79.5011 46.2749 79.3041C45.0809 79.1671 43.8839 79.1521 42.6899 79.1931C41.7349 79.2251 40.7869 79.3721 39.8479 79.5471C37.9939 79.8961 36.1769 80.3951 34.3589 80.8911C32.4359 81.4191 30.5129 81.9441 28.5439 82.2661C27.7429 82.3951 26.9409 82.5061 26.1269 82.4981C25.9599 82.4961 25.7939 82.5211 25.6249 82.5171C25.4099 82.5051 25.1979 82.5431 24.9859 82.4941Z" fill="black"/>
<path fill-rule="evenodd" clip-rule="evenodd" d="M61.723 0.0359993C64.403 0.357999 66.45 1.72 68.014 3.868C69.086 5.341 69.76 6.993 70.178 8.759C70.535 10.28 70.67 11.824 70.619 13.386C70.525 16.256 69.851 18.982 68.605 21.568C67.742 23.36 66.628 24.976 65.208 26.37C63.943 27.609 62.512 28.599 60.842 29.216C59.669 29.649 58.463 29.863 57.213 29.789C55.049 29.664 53.212 28.804 51.668 27.302C50.352 26.02 49.455 24.47 48.834 22.754C48.4 21.554 48.129 20.317 47.988 19.052C47.89 18.185 47.851 17.317 47.879 16.449C47.943 14.4 48.311 12.405 48.977 10.468C49.684 8.406 50.686 6.505 52.054 4.805C53.205 3.375 54.55 2.166 56.164 1.273C57.35 0.616 58.613 0.191 59.965 0.0380001C60.006 0.0150001 60.051 0.0249994 60.093 0.0219994C60.136 0.0219994 60.179 0.0219994 60.221 0.0219994C60.283 0.0139994 60.349 0.044 60.404 0C60.699 0 60.989 0 61.282 0C61.339 0.045 61.403 0.0149994 61.465 0.0219994C61.509 0.0219994 61.55 0.0219994 61.594 0.0219994C61.635 0.0229994 61.681 0.0119993 61.723 0.0359993Z" fill="black"/>
<path fill-rule="evenodd" clip-rule="evenodd" d="M0.0809999 31.6811C0.123 30.8631 0.27 30.0601 0.485 29.2701C0.901 27.7351 1.582 26.3361 2.643 25.1381C3.829 23.8011 5.295 22.9361 7.051 22.5871C8.477 22.3051 9.884 22.4261 11.267 22.8521C12.857 23.3431 14.263 24.1781 15.513 25.2651C17.455 26.9481 18.847 29.0191 19.811 31.3891C20.315 32.6301 20.664 33.9151 20.857 35.2401C20.951 35.8831 20.996 36.5301 21.009 37.1801C21.032 38.4141 20.908 39.6281 20.602 40.8221C20.194 42.4151 19.507 43.8651 18.412 45.1061C17.155 46.5301 15.588 47.4161 13.71 47.7211C12.332 47.9451 10.977 47.7941 9.651 47.3661C7.868 46.7871 6.34 45.7931 4.994 44.5061C3.681 43.2541 2.638 41.8001 1.825 40.1831C1.028 38.5971 0.478 36.9251 0.213 35.1661C0.167 34.8551 0.129 34.5441 0.0869999 34.2341C0.0539999 34.0921 0.067 33.9471 0.033 33.8061C0.017 33.7471 0.0259998 33.6911 0.0229998 33.6301C0.0119998 33.5551 0.046 33.4751 0 33.4001C0 33.0201 0 32.6411 0 32.2601C0.071 32.1561 0.0360001 32.0401 0.0440001 31.9291C0.0500001 31.8461 0.0289999 31.7581 0.0809999 31.6811Z" fill="black"/>
<path fill-rule="evenodd" clip-rule="evenodd" d="M18.8969 13.395C18.9059 11.132 19.2279 9.091 19.9849 7.127C20.5559 5.642 21.3399 4.284 22.4319 3.115C23.6079 1.853 25.0049 0.948004 26.6899 0.522004C28.3749 0.0940042 30.0309 0.216004 31.6589 0.805004C33.0929 1.325 34.3439 2.145 35.4549 3.18C37.2289 4.83 38.4989 6.82201 39.4039 9.05501C39.9789 10.475 40.3749 11.943 40.6009 13.456C40.7289 14.314 40.8029 15.179 40.8209 16.05C40.8399 17.146 40.7709 18.238 40.5899 19.32C40.2139 21.581 39.4469 23.687 38.0789 25.549C37.2279 26.704 36.1949 27.659 34.9269 28.347C33.5099 29.115 31.9929 29.436 30.3879 29.312C28.9369 29.201 27.5989 28.727 26.3509 27.987C24.7229 27.023 23.4049 25.723 22.3079 24.193C21.0069 22.376 20.1129 20.367 19.5469 18.208C19.2369 17.027 19.0389 15.826 18.9489 14.608C18.9129 14.151 18.8819 13.691 18.8969 13.395Z" fill="black"/>
<path fill-rule="evenodd" clip-rule="evenodd" d="M89.998 33.007C89.998 33.094 89.998 33.182 89.998 33.27C89.898 35.452 89.314 37.506 88.371 39.465C87.629 41 86.682 42.399 85.51 43.639C84.006 45.233 82.261 46.476 80.186 47.222C78.943 47.669 77.663 47.889 76.34 47.816C74.387 47.706 72.682 46.998 71.248 45.666C70.064 44.565 69.283 43.211 68.791 41.687C68.348 40.321 68.169 38.913 68.214 37.479C68.311 34.326 69.308 31.46 71.035 28.837C71.618 27.949 72.287 27.129 73.037 26.379C74.58 24.842 76.344 23.66 78.433 22.99C79.621 22.612 80.835 22.439 82.079 22.536C83.979 22.683 85.636 23.402 87.026 24.713C88.28 25.896 89.071 27.357 89.549 28.997C89.813 29.903 89.967 30.83 89.998 31.775C89.998 31.863 89.998 31.952 89.998 32.04C89.988 32.362 89.989 32.684 89.998 33.007Z" fill="black"/>
</svg>
