<svg width="16" height="16" viewBox="0 0 16 16" fill="none" xmlns="http://www.w3.org/2000/svg">
<path fill-rule="evenodd" clip-rule="evenodd" d="M15.5335 15.5335C14.9114 16.1555 13.8984 16.1555 13.2763 15.5335L10.3438 12.6009C9.31297 13.2408 8.10442 13.5962 6.78923 13.5962C3.03916 13.5962 0 10.5571 0 6.78923C0 3.02138 3.03916 0 6.78923 0C10.5393 0 13.5962 3.03916 13.5962 6.78923C13.5962 8.08664 13.223 9.2952 12.6009 10.3438L15.5335 13.2763C16.1555 13.8984 16.1555 14.9114 15.5335 15.5335ZM6.78923 1.99056C4.14107 1.99056 1.99056 4.14107 1.99056 6.78923C1.99056 9.43738 4.14107 11.5879 6.78923 11.5879C9.43738 11.5879 11.5879 9.43738 11.5879 6.78923C11.5879 4.14107 9.45515 1.99056 6.78923 1.99056Z" fill="black"/>
</svg>
