<svg xmlns="http://www.w3.org/2000/svg">

    <symbol id="verySmallDog" viewBox="0 0 50 50">
        <path d="M46.4746 12.5625L49.7903 13.3276C49.7903 13.3276 50.3515 14.7561 49.6374 15.3682C49.4534 15.5176 49.29 15.7114 49.1084 15.9268C48.4841 16.667 47.6423 17.665 44.9953 18.0208C44.9953 18.0208 42.0366 18.99 41.5776 19.6531C41.488 19.7827 41.3962 20.2935 41.261 21.0479C40.7034 24.1572 39.4031 31.406 34.436 33.1712C34.436 33.1712 33.3647 35.0586 32.9055 36.793C32.4975 38.5274 30.508 44.8018 30.508 44.8018C30.508 44.8018 30.508 46.4851 31.4773 46.6892C32.4465 46.9443 33.1096 48.5767 32.2424 48.6787C32.2424 48.6787 28.7226 49.5969 28.0596 48.3726C27.3965 47.1995 27.1924 42.5574 27.3965 41.1289C27.6003 39.7007 28.4675 33.5283 28.2637 32.865C28.2637 32.865 22.0912 31.4368 17.8061 29.7024C13.5212 27.968 12.501 30.7737 11.9908 32.457C11.9448 32.6409 11.8911 32.8816 11.8308 33.1516C11.6234 34.0816 11.3378 35.3611 11.0217 35.8748L10.9822 35.9356C9.57897 38.0908 8.79552 39.2944 5.30834 39.4966C5.30834 39.4966 4.3391 39.2925 4.08409 40.823C3.82897 42.1492 4.49217 45.4138 4.49217 45.4138C4.49217 45.4138 5.25731 46.0772 5.25731 47.3015C5.25731 48.5256 1.53356 47.8626 1.53356 47.4033C1.53356 47.2781 1.47655 46.5254 1.39769 45.4858C1.18797 42.7175 0.823961 37.915 0.972398 37.5071C1.01988 37.4026 1.18407 37.2647 1.41124 37.0735C2.40441 36.2385 4.60228 34.3901 3.52294 29.9065C2.19664 24.3972 3.82897 21.9995 3.82897 21.9995C3.82897 21.9995 0.105211 18.6838 0.00315992 12.2053C-0.0988909 5.72706 2.29869 0.778817 3.16588 0.166756C4.08409 -0.496574 4.49217 0.931893 4.28807 2.46217C4.23839 2.83521 4.08251 3.31153 3.89 3.89967C3.29295 5.72388 2.34337 8.62525 3.11485 12.8687C4.23705 18.4797 7.09374 19.1431 7.09374 19.1431C7.09374 19.1431 9.84837 17.7146 11.7358 17.6126C13.5721 17.5105 30.406 16.0823 30.406 16.0823C30.406 16.0823 32.3445 13.8379 33.4158 11.8484C35.0481 14.6541 36.0173 14.1948 36.0173 14.1948C35.0481 14.0928 34.1809 11.5933 33.9768 10.8792C33.3647 9.29786 33.9258 7.56348 34.1299 7.25733C34.2829 7.05323 35.1501 7.46143 36.0683 7.97144C37.5476 6.90015 39.5881 6.23707 41.7307 6.74708C45.5056 7.61451 46.6787 11.3381 46.4746 12.5625ZM44.3323 3.53346C42.6999 4.29859 41.3735 5.93092 41.3735 5.93092L43.6689 6.594C43.6689 6.594 45.2505 3.12525 44.3323 3.53346ZM5.25731 40.6699L6.48155 40.5679C6.48155 41.502 6.92137 41.7136 7.41759 41.9522C7.81554 42.1436 8.24962 42.3523 8.52208 42.9653C9.18517 44.3938 5.56334 43.8325 5.56334 43.8325C5.46141 43.4246 5.25731 40.6699 5.25731 40.6699ZM31.8855 43.8836L32.7527 41.231C32.7527 41.231 34.6401 42.7612 34.6401 43.4246C34.6401 44.0877 31.8855 43.8836 31.8855 43.8836Z" />
    </symbol>

    <symbol id="smallDog" viewBox="0 0 70 65">
        <path d="M60.0899 0.118902C59.7362 -0.305658 57.4021 0.543219 57.4021 0.543219C57.4021 0.543219 59.7903 1.52662 60.5768 2.2334C60.5563 2.19703 60.5348 2.02881 60.5057 1.8003C60.4379 1.2671 60.328 0.404547 60.0899 0.118902ZM49.1974 47.0139L52.6632 41.5676C53.4312 43.9714 53.679 46.864 53.9126 49.5903C54.1738 52.6397 54.4174 55.4815 55.351 57.1992C57.1193 60.3823 51.5315 60.0994 50.0462 59.4627C48.728 58.898 48.691 58.6113 48.6006 57.9116C48.5891 57.8228 48.5768 57.7273 48.5608 57.6238C48.4193 56.7044 48.9144 52.8848 49.1974 51.3994C49.4804 49.9141 49.1974 47.0139 49.1974 47.0139ZM11.0022 52.4602C16.4485 49.9138 18.0753 46.3066 18.7119 44.3262C19.3485 42.3457 21.4705 42.2749 21.4705 42.2749C21.4705 42.2749 21.6118 47.8628 19.207 50.1262C17.8632 51.3286 15.5291 53.875 17.5095 56.1382C19.49 58.4016 16.6607 59.604 13.7608 59.604C10.8607 59.604 9.37538 55.5017 9.51685 54.4407C9.65833 53.3799 11.0022 52.4602 11.0022 52.4602ZM69.2144 12.709C69.3557 12.9919 69.3557 13.7698 69.285 14.6895C68.5778 14.6895 67.5167 14.4065 67.2338 12.7798C67.2338 12.7798 66.5972 14.1943 67.3753 14.9016C68.0827 15.4675 68.8606 15.8211 69.285 15.6797C69.1436 16.7405 68.9313 17.8723 68.6484 18.8626C68.0118 21.126 68.224 20.2065 68.224 20.2065L67.0923 23.3894L66.385 19.9944L65.2533 23.6016C65.2533 23.6016 64.3337 25.4407 64.3337 27.7039L63.2022 24.7334L62.4948 28.5527C62.4948 28.5527 59.3826 22.6821 58.6753 21.9749C58.1801 21.4797 57.0483 20.843 55.7045 20.3479C54.9972 20.0649 54.2899 20.5601 54.1484 21.2676C53.7948 23.2478 53.2289 26.9966 53.2289 27.8455C53.2289 28.9773 52.9461 36.4749 52.5216 38.2429C52.0972 40.0112 48.9143 45.0332 48.9143 45.0332C48.9143 45.0332 47.5704 39.5869 47.5704 38.4551C47.5704 37.3235 47.146 34.6357 47.146 34.6357C47.146 34.6357 46.2266 40.7893 46.4387 41.9211C46.5097 42.2996 46.7073 43.1372 46.9389 44.1189C47.3995 46.0718 47.9948 48.5945 47.9948 49.2063C47.9948 49.4736 47.9351 50.0632 47.8573 50.8313C47.6674 52.7068 47.3698 55.646 47.5704 57.5527C47.6473 58.5264 47.8169 59.509 47.9685 60.387C48.2354 61.9326 48.4459 63.1528 47.9948 63.4236C47.2875 63.9185 43.2559 64.343 41.4168 62.999C40.0374 61.9912 39.6926 59.7893 39.4274 58.095C39.339 57.5303 39.2594 57.0222 39.1533 56.6333C39.1533 56.6333 38.6582 58.26 38.4461 59.604C38.4461 59.604 36.8899 56.209 37.1021 51.6819C37.1021 51.6819 37.3143 44.8919 36.8899 43.76C36.7171 43.365 35.7514 43.3838 34.2395 43.4128C31.4202 43.4673 26.7013 43.5586 21.6826 41.0723C21.6826 41.0723 18.7119 40.1528 17.3681 44.4673C16.59 46.9429 13.69 49.3479 11.2852 50.9746C9.2339 52.3894 7.81922 54.5112 7.39491 56.9868C7.39491 56.9868 7.39491 58.7551 8.95094 60.5942C10.5071 62.3626 8.0315 64.4136 8.0315 64.4136C8.0315 64.4136 1.45338 65.2625 0.746103 61.4429C0.746103 61.4429 -0.597769 51.4697 0.321664 48.9941C0.576669 48.2881 0.934946 47.6585 1.35877 46.9131C2.46375 44.9707 4.01454 42.2444 5.34364 35.343C6.61683 28.6235 8.5973 25.9358 10.9314 24.2383C10.5778 22.6113 10.0827 19.2869 11.2144 15.6089C11.9924 13.1333 14.1851 7.2627 15.3168 6.34302C16.4485 5.42359 19.1364 6.34302 16.6607 11.082C15.1046 14.0527 14.1144 19.2161 15.3875 21.9749C16.2991 21.8374 17.4555 21.7993 18.802 21.7549C25.0825 21.5476 35.5012 21.2039 44.5289 10.021C44.5289 10.021 46.4387 7.1211 48.8436 4.85767C48.6314 3.51392 48.6314 1.67481 50.2582 1.39185C51.0918 1.2251 51.9014 1.01832 52.6246 0.833502C54.0496 0.469488 55.1401 0.190924 55.4216 0.472418C55.4923 0.613775 55.5631 1.10889 55.4923 1.74561L55.4703 1.97657C55.3168 3.59888 54.9801 7.15528 54.6436 7.82838C54.1484 8.67725 51.885 7.0503 51.6021 6.13087C51.3192 5.21143 50.2582 3.08936 50.2582 3.08936C50.2582 3.08936 50.3997 5.21143 50.6826 6.69678C50.9655 8.18213 54.007 10.1626 55.2094 9.24317C56.2704 8.46509 56.624 3.44312 56.624 1.95777C57.8972 2.24073 59.3118 3.0188 60.7973 4.36255C60.7973 4.36255 63.8388 7.1211 64.8997 8.88941C65.2614 9.46802 66.3256 10.2683 67.3077 11.0071C68.2466 11.7134 69.1106 12.3633 69.2144 12.709Z" />
    </symbol>

    <symbol id="mediumDog" viewBox="0 0 106 75">
        <path d="M105.076 8.95092C103.959 8.7275 100.496 7.72213 100.161 7.61042C99.8255 7.38701 99.1553 7.16359 98.9319 5.93481C98.7084 4.70602 98.8202 3.47723 97.0328 2.24844C95.1338 0.907949 94.3518 1.01966 93.7933 0.572825C92.2294 0.0142857 89.9952 -0.209129 87.7611 0.237703C85.4152 0.684534 84.745 1.80161 83.5162 2.47186C82.2874 3.14211 80.5001 5.71139 79.4947 6.71676C78.4893 7.72213 74.4678 12.8607 72.6805 13.7544C71.0049 14.648 67.4302 16.2119 65.7546 16.3236C64.079 16.5471 62.4034 16.6588 61.0629 17.5524C59.7224 18.3344 58.717 19.0046 55.0307 19.3398C51.3443 19.6749 42.4077 19.228 40.732 19.0046C39.1681 18.7812 35.4818 18.111 33.1359 18.5578C30.6783 19.1163 29.673 19.5632 28.7793 19.228C27.8856 18.8929 25.5398 18.5578 23.9759 18.6695C22.412 18.7812 19.1724 20.1217 17.8319 20.3451C16.4914 20.5685 13.4753 20.1217 11.688 19.228C10.1241 18.4461 5.09723 16.4353 3.75673 16.1002C2.41624 15.8768 1.18745 15.6534 0.517206 16.1002C-0.0413343 16.4353 -0.488166 18.111 1.07574 19.6749C2.63965 21.1271 6.43772 24.7017 7.77822 25.5954C9.11871 26.4891 12.0231 28.1647 14.5924 28.1647C17.2734 28.2764 19.2841 27.7178 20.0661 27.4944C20.848 27.271 21.63 26.9359 21.5183 27.1593C21.4066 27.3827 20.1778 32.633 19.2841 34.532C18.3905 36.3194 16.6031 42.9101 15.9329 45.5911C15.2626 48.2721 14.2573 52.2936 12.9168 53.299C11.5763 54.3043 10.2358 54.7512 9.23042 57.6556C8.11334 60.4483 7.44309 67.821 6.99626 68.8264C6.43772 69.8317 6.32602 71.619 6.88456 72.1776C7.44309 72.7361 8.11334 73.0713 8.67188 73.0713C9.34213 73.183 9.67725 73.2947 10.2358 73.2947C10.7943 73.2947 11.4646 73.4064 12.1348 73.0713C12.6934 72.7361 13.2519 72.1776 13.0285 71.7308C12.8051 71.1722 11.3529 70.6137 11.2412 69.1615C11.0177 67.7093 12.0231 63.241 12.3582 62.5707C12.6934 61.9005 13.9222 59.4429 14.8158 58.5492C15.7095 57.6556 16.3797 56.2034 17.05 55.8682C17.7202 55.5331 23.1939 50.8414 23.1939 50.8414C23.1939 50.8414 18.949 58.5492 19.2841 60.8951C19.6193 63.241 20.6246 66.0337 20.848 66.7039C21.1832 67.4859 21.4066 69.2732 22.9705 69.4966C24.5344 69.72 26.8803 69.72 27.6622 69.4966C28.4442 69.2732 29.0027 67.5976 28.3325 67.039C27.6622 66.3688 25.9866 66.2571 25.3164 66.2571C24.6461 66.1454 24.311 66.0337 24.0876 63.7995C23.8642 61.677 23.529 59.6663 23.9759 58.8843C24.4227 58.1024 25.9866 55.5331 26.7686 55.0863C27.5505 54.6394 31.6837 51.735 33.9179 49.2775C36.152 46.8199 37.7159 44.8092 37.9394 44.5857C38.1628 44.3623 39.3916 42.0165 40.732 42.2399C42.0725 42.575 46.5409 43.8038 46.5409 43.8038C47.2111 43.9155 50.2272 44.5857 52.1263 46.0379C54.0253 47.6018 57.2648 48.3838 60.3926 48.7189C63.6322 49.0541 65.8663 49.1658 65.8663 49.1658C65.8663 49.1658 67.8771 50.9531 68.1005 53.0755C68.3239 55.198 68.7707 57.097 68.7707 58.2141C68.7707 59.1078 68.9941 61.3419 69.1059 61.9005C69.2176 62.459 69.3293 66.4805 69.441 67.039C69.5527 67.4859 69.6644 69.72 69.8878 70.3903C69.9995 71.0605 71.0049 73.5181 71.34 73.9649C71.6751 74.4117 73.239 74.8586 74.3561 74.9703C75.3615 75.082 76.3669 74.8586 76.8137 74.6352C77.1488 74.4117 77.3722 73.5181 77.3722 73.183C77.2605 72.8478 76.8137 72.5127 76.8137 72.5127C76.8137 72.5127 78.2659 72.9595 79.4947 72.9595C80.6118 72.9595 81.7288 72.7361 81.9523 72.5127C82.2874 72.1776 83.0693 71.0605 81.9523 70.0551C80.9469 69.1615 79.9415 69.0498 79.0479 69.1615C78.1542 69.2732 76.702 67.3741 76.702 66.0337C76.702 64.8049 77.0371 61.1185 77.1488 60.3366C77.2605 59.5546 77.9308 54.5277 78.8244 51.3999C79.7181 48.2721 79.0479 48.2721 80.8352 46.3731C82.5108 44.474 86.8674 38.8886 87.0908 35.6491C87.3142 32.5213 86.9791 29.8403 88.3196 27.271C89.6601 24.7017 91.5591 20.01 91.7826 19.6749C92.006 19.3398 92.5645 16.4353 92.8996 16.4353C93.2348 16.4353 98.7084 17.4407 100.272 17.1056C101.836 16.7705 103.065 15.7651 103.624 15.6534C104.406 15.5417 105.076 14.4246 105.299 13.1958C105.634 11.8553 105.634 11.7436 105.746 10.5148C105.969 10.068 106.193 9.06263 105.076 8.95092Z" />
    </symbol>

    <symbol id="bigDog" viewBox="0 0 124 120">
        <path d="M36.5435 94.5665C36.5772 97.398 36.5678 100.226 36.9286 103.051C37.2262 105.378 37.7688 107.756 35.4314 109.696C34.6881 110.314 34.4888 111.582 34.5198 112.664C34.5508 113.743 34.233 114.728 33.7469 115.695C31.6949 119.777 28.8822 120.804 24.5775 118.981C24.2005 118.821 23.6673 118.465 23.6471 118.171C23.5273 116.418 22.0139 116.398 20.7832 116.016C19.1271 115.503 18.6181 114.698 19.7895 113.241C20.3954 112.49 20.763 111.485 21.8429 111.273C24.2396 110.806 24.5897 109.05 24.8617 107.253C25.0017 106.323 25.0784 105.364 25.0165 104.429C24.5156 96.8988 24.0578 89.3648 23.4815 81.8421C22.9295 74.6246 20.4372 68.1268 17.8856 61.5699C16.3076 57.5117 16.7129 53.5026 17.071 49.4671C17.3134 46.72 17.0993 44.0334 16.9795 41.3141C16.826 37.8559 16.8408 34.3927 16.7977 30.9308C16.7815 29.6436 16.5217 29.0864 14.8009 29.452C11.8252 30.0836 8.90878 31.2183 5.65035 30.1996C3.25634 29.452 1.96643 27.953 0.924269 26.0531C0.730379 25.6989 0.773466 25.2349 0.692678 24.824C-0.633586 18.0766 -0.602617 18.9377 5.8025 17.2559C7.4196 16.831 8.78491 16.2864 9.79475 14.7231C10.7938 13.175 12.2103 11.6457 14.3269 11.1566C16.1097 10.7443 16.7519 9.63743 17.0845 8.01616C17.4494 6.2436 17.2286 4.44204 17.6487 2.69848C17.8452 1.87902 18.2694 0.867927 19.3398 1.15915C20.211 1.39616 19.4368 2.22445 19.3654 2.78799C19.0894 4.95515 20.7374 6.49574 21.4632 8.33386C21.6921 8.91126 22.1445 8.57591 22.3842 8.12584C22.8473 7.25343 22.8339 6.30285 22.9874 5.37119C23.2782 3.60619 23.7077 1.86011 25.0205 0.460717C25.3127 0.150582 25.718 -0.0965173 26.2081 0.0371181C26.779 0.193446 26.7453 0.644781 26.6686 1.05577C26.3185 2.94432 27.3162 4.53281 27.9733 6.18813C29.1124 9.05876 30.0172 11.9597 29.5379 15.0673C29.4504 15.6359 29.5864 16.0935 29.8691 16.5562C32.8731 21.4629 34.2371 26.8663 35.2752 32.3592C35.6091 34.1267 36.6284 35.3156 38.1149 36.4326C42.0223 39.3713 46.5626 41.1766 51.0368 43.1093C52.246 43.6312 53.5615 43.9149 54.9375 43.983C62.7672 44.3751 70.5969 44.7571 78.4185 45.2639C82.7904 45.5475 87.1072 46.2611 91.1856 47.8433C92.6896 48.427 94.4104 48.8569 94.883 50.7126C95.085 51.5044 95.8134 51.788 96.6832 51.8775C100.982 52.3201 103.049 55.1377 104.3 58.5492C105.733 62.4625 105.956 66.5661 105.874 70.6836C105.718 78.4647 109.084 84.6976 115.477 89.5438C117.556 91.1184 119.125 93.2478 121.674 94.3295C122.534 94.6938 122.655 95.6923 122.481 96.571C121.527 101.422 122.776 106.191 123.182 110.982C123.362 113.109 123.405 115.189 121.527 116.418C119.324 117.861 116.762 116.992 114.419 116.295C113.456 116.009 113.088 115.189 113.55 114.245C113.785 113.771 113.995 113.185 114.413 112.909C119.828 109.333 117.12 104.911 115.602 100.862C114.734 98.5453 112.841 96.5357 110.664 94.9863C109.083 93.8617 108.451 94.0786 107.836 95.918C107.062 98.2326 106.787 100.651 106.625 103.05C106.495 104.965 106.149 106.775 105.388 108.557C104.552 110.517 103.176 111.292 101.078 110.987C98.7433 110.647 99.6225 108.693 98.9695 107.517C98.7069 107.042 99.053 106.715 99.4865 106.526C101.754 105.533 101.743 103.57 101.815 101.677C101.986 97.2304 100.391 93.4772 96.7963 90.4755C94.3606 88.4445 91.8642 86.4815 89.0272 84.98C84.899 82.794 82.1859 79.7077 81.1114 75.3205C80.3695 72.2859 80.2362 72.2456 77.1137 73.1016C75.4711 73.5517 74.4047 73.3311 74.2768 71.6001C74.1435 69.8275 73.0353 69.622 71.495 69.7809C69.4874 69.9877 67.5027 70.1919 65.5759 70.8575C57.8607 73.5126 49.9731 75.4667 41.6816 75.5903C39.8787 75.6167 38.9281 76.2471 38.4326 78.0449C36.9313 83.4836 36.4964 88.9941 36.5435 94.5665Z" transform="translate(123.263) scale(-1 1)" />
    </symbol>

    <symbol id="square" viewBox="0 0 36 36">
        <path d="M27 36V27H36V36H27ZM27 13H36V22H27V13ZM27 0H36V9H27V0ZM14 27H23V36H14V27ZM14 13H23V22H14V13ZM14 0H23V9H14V0ZM0 27H9V36H0V27ZM0 13H9V22H0V13ZM0 0H9V9H0V0Z" />
    </symbol>

    <symbol id="cart" viewBox="0 0 26 23">
        <path d="M25.92 5.26716L23.1343 12.5303C22.9531 13.0027 22.4912 13.3158 21.975 13.3158H9.37646L9.86364 14.8792C10.0232 15.3922 10.4996 15.7368 11.0479 15.7368H22.2857V18.1579H11.0479C9.40238 18.1579 7.97446 17.1241 7.49506 15.5849L3.64173 3.21901C3.48273 2.75383 3.01059 2.42105 2.47678 2.42105H0V0H2.47678C4.0776 0 5.49404 0.997739 6.00064 2.48312L6.35853 3.63158H24.7608C25.6253 3.63158 26.2236 4.47579 25.92 5.26716ZM9.2857 19.3684C8.26003 19.3684 7.42856 20.1814 7.42856 21.1842C7.42856 22.187 8.26003 23 9.2857 23C10.3114 23 11.1428 22.187 11.1428 21.1842C11.1428 20.1814 10.3114 19.3684 9.2857 19.3684ZM21.6667 19.3684C20.641 19.3684 19.8095 20.1814 19.8095 21.1842C19.8095 22.187 20.641 23 21.6667 23C22.6923 23 23.5238 22.187 23.5238 21.1842C23.5238 20.1814 22.6923 19.3684 21.6667 19.3684Z" />
    </symbol>

    <symbol id="star" viewBox="0 0 24 22">
        <path d="M12 1.09704L15.2633 7.46998L15.3817 7.70123L15.639 7.73726L22.8968 8.75369L17.6576 13.6759L17.4603 13.8613L17.5077 14.1279L18.7487 21.1011L12.226 17.7958L12 17.6813L11.774 17.7958L5.2513 21.1011L6.49227 14.1279L6.53971 13.8613L6.34236 13.6759L1.10318 8.75369L8.36108 7.73726L8.61837 7.70123L8.73678 7.46997L12 1.09704Z" />
    </symbol>

    <symbol id="tel" viewBox="0 0 19 18">
        <path d="M16.7116 16.6736C16.3416 17.2081 15.699 17.5214 15.0174 17.4845C14.3359 17.4477 13.4595 17.3555 12.8559 17.2081C10.1685 16.5446 7.38377 14.9596 5.02746 12.7295C2.67115 10.4994 0.996418 7.86386 0.295367 5.32046C0.139578 4.74912 0.0616833 3.93818 0.00326241 3.29312C-0.0356848 2.66648 0.275903 2.05828 0.840638 1.7081L3.23589 0.196805C3.85904 -0.190234 4.69641 0.0124938 5.02746 0.639128L6.97483 4.19621C7.24747 4.69383 7.11115 5.32047 6.64377 5.67065L4.89115 6.96078C5.5922 8.19561 6.2543 9.19085 7.53956 10.3888C8.72746 11.5131 9.75955 12.1766 11.1032 12.8585L12.4859 11.1813C12.8559 10.739 13.518 10.5916 14.0438 10.868L17.8216 12.7111C18.4837 13.0244 18.698 13.8169 18.289 14.4067L16.7116 16.6736Z" />
    </symbol>

    <symbol id="insta" viewBox="0 0 54 54">
        <path d="M42.8 21.4C42.8 25.7 42.8 28.6 42.7 30.2C42.5 34.1 41.4 37.1 39.2 39.2C37 41.3 34.1 42.5 30.2 42.7C28.6 42.8 25.6 42.8 21.4 42.8C17.1 42.8 14.2 42.8 12.6 42.7C8.7 42.5 5.7 41.4 3.6 39.2C1.5 37.1 0.3 34.1 0.0999999 30.2C-9.68575e-08 28.6 0 25.6 0 21.4C0 17.2 -9.68575e-08 14.2 0.0999999 12.6C0.3 8.7 1.4 5.7 3.6 3.6C5.7 1.5 8.7 0.3 12.6 0.0999999C14.2 -9.68575e-08 17.2 0 21.4 0C25.7 0 28.6 -9.68575e-08 30.2 0.0999999C34.1 0.3 37.1 1.4 39.2 3.6C41.3 5.8 42.5 8.7 42.7 12.6C42.7 14.2 42.8 17.1 42.8 21.4ZM23.5 3.8C22.2 3.8 21.5 3.8 21.4 3.8C21.3 3.8 20.6 3.8 19.3 3.8C18 3.8 17 3.8 16.4 3.8C15.7 3.8 14.8 3.8 13.7 3.9C12.6 3.9 11.6 4 10.8 4.2C10 4.3 9.3 4.5 8.8 4.7C7.9 5.1 7.1 5.6 6.3 6.3C5.6 7 5.1 7.8 4.7 8.8C4.5 9.3 4.3 10 4.2 10.8C4.1 11.6 4 12.5 3.9 13.7C3.9 14.8 3.8 15.7 3.8 16.4C3.8 17.1 3.8 18.1 3.8 19.3C3.8 20.6 3.8 21.3 3.8 21.4C3.8 21.5 3.8 22.2 3.8 23.5C3.8 24.8 3.8 25.8 3.8 26.4C3.8 27.1 3.8 28 3.9 29.1C3.9 30.2 4 31.2 4.2 32C4.4 32.8 4.5 33.5 4.7 34C5.1 34.9 5.6 35.7 6.3 36.5C7 37.2 7.8 37.7 8.8 38.1C9.3 38.3 10 38.5 10.8 38.6C11.6 38.7 12.5 38.8 13.7 38.9C14.9 39 15.7 39 16.4 39C17.1 39 18.1 39 19.3 39C20.6 39 21.3 39 21.4 39C21.5 39 22.2 39 23.5 39C24.8 39 25.8 39 26.4 39C27.1 39 28 39 29.1 38.9C30.2 38.9 31.2 38.8 32 38.6C32.8 38.5 33.5 38.3 34 38.1C34.9 37.7 35.7 37.2 36.5 36.5C37.2 35.8 37.7 35 38.1 34C38.3 33.5 38.5 32.8 38.6 32C38.7 31.2 38.8 30.3 38.9 29.1C38.9 28 39 27.1 39 26.4C39 25.7 39 24.7 39 23.5C39 22.2 39 21.5 39 21.4C39 21.3 39 20.6 39 19.3C39 18 39 17 39 16.4C39 15.7 39 14.8 38.9 13.7C38.9 12.6 38.8 11.6 38.6 10.8C38.5 10 38.3 9.3 38.1 8.8C37.7 7.9 37.2 7.1 36.5 6.3C35.8 5.6 35 5.1 34 4.7C33.5 4.5 32.8 4.3 32 4.2C31.2 4.1 30.3 4 29.1 3.9C28 3.9 27.1 3.8 26.4 3.8C25.8 3.8 24.8 3.8 23.5 3.8ZM29.1 13.6C31.2 15.7 32.3 18.3 32.3 21.4C32.3 24.5 31.2 27 29.1 29.2C27 31.3 24.4 32.4 21.3 32.4C18.2 32.4 15.7 31.3 13.5 29.2C11.4 27.1 10.3 24.5 10.3 21.4C10.3 18.3 11.4 15.8 13.5 13.6C15.6 11.5 18.2 10.4 21.3 10.4C24.4 10.4 27 11.4 29.1 13.6ZM26.4 26.4C27.8 25 28.5 23.3 28.5 21.4C28.5 19.5 27.8 17.7 26.4 16.3C25 14.9 23.3 14.2 21.3 14.2C19.3 14.2 17.6 14.9 16.2 16.3C14.8 17.7 14.1 19.4 14.1 21.4C14.1 23.4 14.8 25.1 16.2 26.4C17.6 27.8 19.3 28.5 21.3 28.5C23.3 28.5 25 27.8 26.4 26.4ZM34.6 8.1C35.1 8.6 35.4 9.2 35.4 9.9C35.4 10.6 35.1 11.2 34.6 11.7C34.1 12.2 33.5 12.5 32.8 12.5C32.1 12.5 31.5 12.2 31 11.7C30.5 11.2 30.2 10.6 30.2 9.9C30.2 9.2 30.5 8.6 31 8.1C31.5 7.6 32.1 7.3 32.8 7.3C33.5 7.3 34.1 7.6 34.6 8.1Z" transform="translate(5.5 4.80005)" />
    </symbol>

    <symbol id="loupe" viewBox="0 0 16 16">
        <path fill-rule="evenodd" clip-rule="evenodd" d="M15.5335 15.5335C14.9114 16.1555 13.8984 16.1555 13.2763 15.5335L10.3438 12.6009C9.31297 13.2408 8.10442 13.5962 6.78923 13.5962C3.03916 13.5962 0 10.5571 0 6.78923C0 3.02138 3.03916 0 6.78923 0C10.5393 0 13.5962 3.03916 13.5962 6.78923C13.5962 8.08664 13.223 9.2952 12.6009 10.3438L15.5335 13.2763C16.1555 13.8984 16.1555 14.9114 15.5335 15.5335ZM6.78923 1.99056C4.14107 1.99056 1.99056 4.14107 1.99056 6.78923C1.99056 9.43738 4.14107 11.5879 6.78923 11.5879C9.43738 11.5879 11.5879 9.43738 11.5879 6.78923C11.5879 4.14107 9.45515 1.99056 6.78923 1.99056Z" />
    </symbol>

    <symbol id="arrow-down" viewBox="0 0 12 9">
        <path d="M10.501 0L5.31 5.557L0 0.0609999" transform="translate(0.755005 1.3479)" stroke="white" stroke-width="2" fill="transparent"/>
    </symbol>

    <symbol id="arrow-right" viewBox="0 0 12 9">
        <path d="M10.501 0L5.31 5.557L0 0.0609999" transform="translate(0.755005 1.3479)"  stroke-width="2" />
    </symbol>

    <symbol id="close" viewBox="0 0 15 15">
        <path d="M9.27775 7.15675L13.8737 11.7527C14.4597 12.3387 14.4597 13.2887 13.8737 13.8737C13.2887 14.4597 12.3387 14.4597 11.7527 13.8737L7.15675 9.27775L2.56075 13.8737C1.97475 14.4597 1.02475 14.4597 0.43875 13.8737C-0.14625 13.2887 -0.14625 12.3387 0.43875 11.7527L5.03575 7.15675L0.43875 2.56075C-0.14625 1.97475 -0.14625 1.02475 0.43875 0.43875C1.02475 -0.14625 1.97475 -0.14625 2.56075 0.43875L7.15675 5.03575L11.7527 0.43875C12.3387 -0.14625 13.2887 -0.14625 13.8737 0.43875C14.4597 1.02475 14.4597 1.97475 13.8737 2.56075L9.27775 7.15675Z" transform="translate(0.34325 0.34325)" />
    </symbol>

    <symbol id="breadcrumbs" viewBox="0 0 12 20">
        <path d="M11.99 10.106L2.098 19.99L0 18.543L8.556 9.995L0 1.447L2.098 0L11.99 9.884L11.83 9.995L11.99 10.106Z" transform="translate(0.00610352 0.00488281)" />
    </symbol>

    <symbol id="dry" viewBox="0 0 55 69">
        <path fill-rule="evenodd" clip-rule="evenodd" d="M40.9411 33.2557C40.2616 35.3217 38.678 36.6704 37.0967 36.6704C36.8102 36.6704 36.5238 36.6268 36.243 36.534C34.4119 35.9301 33.6075 33.5456 34.4108 31.106V31.1049C35.2152 28.6653 37.2789 27.2226 39.11 27.8265C40.9411 28.4304 41.7455 30.8149 40.9411 33.2557ZM35.5211 60.7303H19.4789C18.8464 60.7303 18.333 60.217 18.333 59.5844C18.333 58.9519 18.8464 58.4386 19.4789 58.4386H35.5211C36.1537 58.4386 36.667 58.9519 36.667 59.5844C36.667 60.217 36.1537 60.7303 35.5211 60.7303ZM14.0589 33.2557C13.2545 30.8149 14.0589 28.4304 15.89 27.8265C17.7234 27.2272 19.7848 28.6653 20.5892 31.1049V31.106C21.3925 33.5456 20.5881 35.9301 18.7581 36.534C18.4774 36.6257 18.1898 36.6704 17.9033 36.6704C16.322 36.6704 14.7395 35.3217 14.0589 33.2557ZM21.3455 20.9513C23.1801 20.3508 25.2415 21.79 26.0447 24.2307C26.8491 26.6703 26.0447 29.0549 24.2136 29.6588C23.9329 29.7504 23.6464 29.7951 23.36 29.7951C21.7786 29.7951 20.1962 28.4464 19.5144 26.3804C18.7111 23.9397 19.5155 21.5551 21.3455 20.9513ZM34.3753 55.0009C34.3753 55.6335 33.8619 56.1468 33.2294 56.1468H21.7706C21.1381 56.1468 20.6248 55.6335 20.6248 55.0009C20.6248 54.3684 21.1381 53.8551 21.7706 53.8551H33.2294C33.8619 53.8551 34.3753 54.3684 34.3753 55.0009ZM29.6439 30.9421L33.9776 37.4427C34.4795 38.1967 34.5265 39.1592 34.0991 39.9579C33.6728 40.7543 32.8455 41.2504 31.9414 41.2504H23.1124C22.1969 41.2504 21.3604 40.7497 20.9284 39.9418C20.4964 39.1351 20.5434 38.1612 21.051 37.3992L25.3561 30.9421C25.835 30.2237 26.636 29.794 27.5 29.794C28.364 29.794 29.165 30.2237 29.6439 30.9421ZM28.9553 24.2307C29.7585 21.79 31.8245 20.3474 33.6534 20.9513C35.4845 21.5551 36.2889 23.9397 35.4856 26.3804C34.805 28.4464 33.2214 29.7951 31.64 29.7951C31.3536 29.7951 31.0671 29.7516 30.7864 29.6588C28.9553 29.0549 28.1509 26.6703 28.9553 24.2307ZM51.6058 56.0998C54.6022 40.3933 54.6057 25.8143 51.6138 12.7548L54.7581 4.70732C55.2359 3.48696 54.9953 2.12108 54.1301 1.14365C53.2868 0.190281 52.0034 -0.208484 50.7819 0.105486C50.7361 0.116945 50.6914 0.131841 50.6478 0.149029L44.7271 2.46255C42.1764 3.10883 39.55 3.43655 36.9214 3.43655H18.0786C15.45 3.43655 12.8236 3.10883 10.2729 2.46255L4.35217 0.149029C4.30863 0.131841 4.26394 0.116945 4.2181 0.105486C2.99546 -0.206192 1.71207 0.191427 0.869856 1.14365C0.00472057 2.12108 -0.235914 3.48696 0.241916 4.70732L3.38849 12.7617C0.442445 26.2991 0.443591 40.8769 3.39307 56.101L0.241916 64.0442C-0.215288 65.2095 -0.00902998 66.5353 0.779332 67.5024C1.43477 68.308 2.37783 68.7537 3.3713 68.7537C3.55808 68.7537 3.7483 68.7377 3.93736 68.7056L11.287 67.5483C11.7442 67.4704 12.2014 67.4028 12.6563 67.3351C13.2121 67.2526 13.7632 67.1713 14.2984 67.075C16.6589 66.6499 18.4682 66.4597 20.1675 66.4597H34.8325C36.5318 66.4597 38.3411 66.6499 40.7016 67.075C41.2368 67.1713 41.7879 67.2526 42.3437 67.3351C42.7986 67.4028 43.2569 67.4704 43.7279 67.5506L51.0489 68.7033C52.2589 68.9096 53.4415 68.4604 54.2207 67.5024C55.009 66.5353 55.2153 65.2095 54.7569 64.0385L51.6058 56.0998Z"/>
    </symbol>

    <symbol id="wet" viewBox="0 0 50 80">
        <path fill-rule="evenodd" clip-rule="evenodd" d="M25 20C38.8071 20 50 15.5229 50 10C50 4.47705 38.8071 0 25 0C11.1929 0 0 4.47705 0 10C0 15.5229 11.1929 20 25 20ZM46 9C46 13.4182 36.3741 17 24.5 17C12.6259 17 3 13.4182 3 9C3 4.58179 12.6259 1 24.5 1C36.3741 1 46 4.58179 46 9ZM43.6499 11.363C44.6152 10.5139 45 9.71289 45 9C45 8.28711 44.6152 7.48608 43.6499 6.63696C42.6863 5.78906 41.2344 4.97998 39.354 4.28027C35.6012 2.88403 30.3496 2 24.5 2C18.6504 2 13.3988 2.88403 9.646 4.28027C7.76562 4.97998 6.31372 5.78906 5.3501 6.63696C4.38477 7.48608 4 8.28711 4 9C4 9.71289 4.38477 10.5139 5.3501 11.363C6.31372 12.2109 7.76562 13.02 9.646 13.7197C13.3988 15.116 18.6504 16 24.5 16C30.3496 16 35.6012 15.116 39.354 13.7197C41.2344 13.02 42.6863 12.2109 43.6499 11.363ZM0 70V58C0 63.5229 11.1929 68 25 68C38.8071 68 50 63.5229 50 58V70C50 75.5229 38.8071 80 25 80C11.1929 80 0 75.5229 0 70ZM50 14C50 19.5229 38.8071 24 25 24C11.1929 24 0 19.5229 0 14V20V22V56C0 61.5229 11.1929 66 25 66C38.8071 66 50 61.5229 50 56V22V20V14ZM8.78638 36.8572C6.83008 41.0625 8.64856 46.0588 12.8569 48.0183C18.4703 50.6306 25.2747 49.4363 28.2135 47.7744L33.5975 50.2803C33.3696 50.5186 33.1661 50.7861 33.0211 51.1023C32.3027 52.6533 32.9724 54.4961 34.5242 55.2158C36.0726 55.9365 37.9113 55.2654 38.6344 53.7144C39.1217 52.6653 38.9579 51.4866 38.3247 50.6079C39.4087 50.5251 40.4164 49.8928 40.9037 48.8372C41.6268 47.2896 40.9547 45.4485 39.403 44.7261C37.8562 44.0037 36.0126 44.6765 35.2952 46.2275C35.1451 46.5461 35.069 46.8801 35.0356 47.2126L29.6631 44.7124C29.1183 41.4719 25.9517 35.582 19.9442 32.7876C15.7383 30.8296 10.7427 32.6472 8.78638 36.8572Z" />
    </symbol>

    <symbol id="goodies" viewBox="0 0 61 61">
        <path d="M26.7473 20.2832C28.0151 20.4147 29.3142 19.8754 30.0971 18.7575C31.2465 17.1167 30.8481 14.8543 29.207 13.705C27.5664 12.5559 25.3039 12.954 24.1545 14.5951C24.0209 14.7855 23.9101 14.985 23.8181 15.1895L11.0236 6.22817C11.1845 6.07192 11.3339 5.89955 11.4675 5.70912C12.6169 4.06801 12.2182 1.80593 10.5773 0.656755C8.93623 -0.492781 6.67427 -0.0942214 5.52485 1.54689C4.74189 2.66481 4.6789 4.07033 5.23628 5.21681C3.96845 5.08473 2.66914 5.62441 1.88594 6.7422C0.736766 8.38307 1.1352 10.6454 2.77632 11.7948C4.41719 12.9441 6.67915 12.5455 7.82856 10.9044C7.96186 10.714 8.07295 10.5145 8.16474 10.3101L20.9592 19.2713C20.7988 19.4279 20.6489 19.6 20.5156 19.7904C19.3662 21.4317 19.7648 23.6939 21.4057 24.843C23.0468 25.9926 25.3085 25.5943 26.4584 23.9528C27.2414 22.835 27.3046 21.4291 26.7473 20.2832ZM9.80073 1.74855C8.76753 1.0248 7.33784 1.27638 6.61396 2.30971C6.51972 2.44447 6.33418 2.47707 6.19941 2.38283C6.0644 2.28822 6.03218 2.10292 6.12641 1.96828C7.03852 0.665788 8.84004 0.348772 10.1423 1.26088C10.277 1.35524 10.3098 1.54079 10.2155 1.67555C10.121 1.8102 9.9355 1.84291 9.80073 1.74855ZM25.8569 23.5315C24.9445 24.8339 23.1433 25.151 21.8408 24.2388C21.7062 24.1445 21.6735 23.9589 21.7678 23.8242C21.862 23.6896 22.0478 23.6569 22.1823 23.7512C23.2158 24.475 24.6452 24.2232 25.3686 23.1901C25.4631 23.0554 25.6486 23.0227 25.7832 23.117C25.9179 23.2113 25.9511 23.3969 25.8569 23.5315ZM4.42646 28.1989C3.95234 27.4938 3.12129 27.0592 2.21455 27.1359C0.883982 27.2486 -0.103811 28.4187 0.00873818 29.7497C0.121287 31.0802 1.29145 32.0683 2.62251 31.9557C2.7768 31.9426 2.92646 31.9142 3.07026 31.8739L3.94819 42.2505C3.79975 42.235 3.64765 42.2321 3.49311 42.2451C2.16206 42.3578 1.17451 43.528 1.28706 44.8587C1.39961 46.1897 2.57002 47.1773 3.90083 47.0647C4.80757 46.9881 5.5539 46.4199 5.90254 45.645C6.37666 46.3502 7.20771 46.7849 8.11445 46.7081C9.44526 46.5956 10.4331 45.4254 10.3205 44.0944C10.208 42.7637 9.03755 41.7761 7.70674 41.8887C7.5522 41.9018 7.40278 41.9301 7.25874 41.9704L6.38081 31.5938C6.52949 31.6091 6.68159 31.6122 6.83613 31.5991C8.16694 31.4866 9.15473 30.3161 9.04194 28.9854C8.92939 27.6544 7.75947 26.6668 6.42817 26.7794C5.52168 26.8561 4.7751 27.4242 4.42646 28.1989ZM2.17768 44.7899C2.24873 45.6279 2.98799 46.2523 3.82612 46.1814C3.93525 46.1721 4.03144 46.2532 4.04072 46.3624C4.05 46.4719 3.9687 46.5676 3.85957 46.5769C2.80342 46.6663 1.87153 45.8797 1.78218 44.8234C1.7729 44.7143 1.85395 44.6182 1.96333 44.6089C2.07246 44.5997 2.16841 44.6807 2.17768 44.7899ZM6.46943 27.2674C7.52583 27.1779 8.45747 27.9645 8.54682 29.0206C8.5561 29.13 8.47505 29.226 8.36592 29.2352C8.25679 29.2445 8.16059 29.1633 8.15132 29.0542C8.08052 28.2161 7.34101 27.5921 6.50312 27.663C6.39399 27.6721 6.29804 27.5912 6.28877 27.482C6.27949 27.3727 6.3603 27.2765 6.46943 27.2674ZM32.923 59.6426C31.538 58.4624 30.986 56.6699 31.3205 55.0037C29.7292 55.5989 27.8713 55.3374 26.4863 54.157C24.4526 52.4241 24.2092 49.3716 25.9421 47.3383C27.6745 45.3053 30.7277 45.0614 32.7609 46.7942C32.9968 46.9953 33.2067 47.216 33.394 47.4485L46.9033 31.5967C46.6435 31.4489 46.3928 31.2764 46.1567 31.0755C44.1235 29.3425 43.8798 26.2898 45.6123 24.2569C47.3452 22.2236 50.3984 21.9802 52.4311 23.7128C53.8164 24.8932 54.3686 26.6859 54.0334 28.3522C55.6254 27.757 57.4829 28.018 58.8681 29.1984C60.9013 30.9312 61.145 33.9839 59.4123 36.0172C57.6796 38.0502 54.6269 38.2937 52.5937 36.5609C52.3576 36.3599 52.1477 36.1395 51.9604 35.9066L38.4514 51.7586C38.7111 51.9063 38.9619 52.0786 39.1979 52.2798C41.2312 54.0127 41.4741 57.0662 39.7419 59.0986C38.009 61.1319 34.956 61.3753 32.923 59.6426ZM57.718 30.5477C58.9985 31.6389 59.152 33.5683 58.061 34.8486C57.9187 35.0154 57.9387 35.2659 58.1057 35.4081C58.2724 35.5502 58.5229 35.5303 58.665 35.3634C60.0402 33.7498 59.8466 31.3187 58.2331 29.9436C58.0661 29.8015 57.8159 29.8211 57.6735 29.9883C57.5312 30.155 57.5512 30.4057 57.718 30.5477ZM26.6892 47.9921C25.3142 49.6057 25.5078 52.0366 27.1213 53.4119C27.2883 53.554 27.5385 53.5335 27.6809 53.3665C27.8229 53.1997 27.8029 52.9492 27.6362 52.8069C26.3562 51.7163 26.2023 49.7872 27.2934 48.5069C27.4355 48.3401 27.4155 48.0896 27.2487 47.9474C27.082 47.8053 26.8315 47.8252 26.6892 47.9921Z" />
    </symbol>

    <symbol id="leash" viewBox="0 0 70 68">
        <path d="M9.93897 64.7863C10.2368 64.617 10.5506 64.4039 10.8776 64.1368C10.8776 64.1368 9.58425 63.3762 7.77563 64.3645C6.56696 65.0257 7.54791 65.3907 8.14056 65.3688C8.50112 65.3542 9.01203 65.2491 9.61199 64.9586C9.61199 64.9586 10.4908 65.3235 10.3754 66.3278L8.9843 67.2168C8.9843 67.2168 7.77563 67.8328 6.40639 67.2168C5.03715 66.6008 4.26203 65.9395 4.85468 63.9776C5.44734 62.0157 9.00619 61.5603 9.78132 61.6056C10.5564 61.6508 13.3621 62.153 14.1153 61.7194L16.8523 60.1677C16.8523 60.1677 15.5108 58.3839 16.6698 57.1563C17.0976 56.7023 19.3587 55.844 19.8171 55.6279C20.2053 55.4454 20.4564 55.9476 20.4564 55.9476C20.4564 55.9476 30.1944 53.2223 37.4347 48.5336C43.8211 44.3981 52.7007 39.2014 52.7007 39.2014C54.6465 37.6804 56.7427 36.4629 58.4784 34.5784C58.4784 34.5784 55.1516 29.2007 47.0442 30.0167C36.156 31.1115 29.8878 38.6175 18.6405 44.493C15.9648 45.8914 9.00035 46.8957 3.73944 43.8244C0.0900798 41.6947 0.576174 40.5998 0.0900799 38.0453C0.0900799 38.0453 -0.518634 33.9098 1.42866 30.443C3.37596 26.9761 8.84854 24.5427 14.9313 21.7458C21.014 18.9489 25.0882 16.3929 28.6164 15.4207C32.1446 14.4485 32.5095 14.7536 34.9415 12.9552C34.9415 12.9552 41.3278 0 55.2874 0C69.2469 0 69.5753 4.62593 69.8848 5.47404C70.3154 6.65935 69.4264 10.4912 69.0615 11.221C68.6966 11.9509 65.7056 20.5576 50.3578 20.8013C47.2559 20.851 39.1353 19.5241 37.7675 19.2496C36.3997 18.9752 35.0305 18.7927 33.3883 19.1577C31.7461 19.5226 10.8542 28.1001 8.11721 29.6503C5.38019 31.2006 -3.83517 34.9419 5.74513 39.6861C15.3254 44.4302 25.3612 35.0324 27.3683 34.212C29.3755 33.3916 41.2694 22.4129 52.0015 25.4535C54.8436 26.2593 59.7907 27.7205 60.122 31.1101C60.487 34.8514 59.7571 37.4964 59.7571 37.4964C59.7571 37.4964 58.8652 42.6099 48.8995 48.8094C38.6361 55.1958 26.1815 60.3969 25.4517 60.8523C25.4517 60.8523 25.5203 61.6056 25.3831 61.9705L22.7599 63.1792C22.7599 63.1792 21.8023 63.5441 20.525 63.1792C19.2478 62.8142 18.7456 61.9019 18.7456 61.9019L15.1415 64.0462C15.1415 64.0462 15.2787 65.2097 14.3197 65.506C13.3606 65.8023 13.2249 65.3688 13.0876 65.1177C13.0876 65.1177 12.5402 65.1863 12.2658 64.9352L10.6236 66.1891C10.6265 66.1891 10.5769 64.9907 9.93897 64.7863ZM54.8378 14.3537C63.278 14.1216 66.688 9.13945 66.688 9.13945C66.688 9.13945 65.6413 5.17625 56.1939 5.02152C44.494 4.83029 39.4272 13.2691 39.4272 13.2691C44.9246 13.7318 46.3975 14.5858 54.8378 14.3537Z" />
    </symbol>

    <symbol id="toys" viewBox="0 0 109 67">
        <path fill-rule="evenodd" clip-rule="evenodd" d="M93.2271 0.0234201C92.3636 -0.12575 91.5428 0.45323 91.3936 1.31663L91.0393 3.36827C89.6062 3.23948 88.1714 3.33763 86.7869 3.64744L86.5332 2.56505C86.3333 1.71202 85.4795 1.18272 84.6265 1.38267C83.7735 1.58262 83.2442 2.43638 83.4441 3.28941L83.7742 4.69713C81.2564 5.9149 79.0838 7.90684 77.6519 10.555C76.7422 12.2372 76.2178 14.0243 76.0484 15.8153C76.0943 15.7235 76.1419 15.6322 76.191 15.5414C78.6997 10.902 84.48 9.16661 89.1018 11.6656C93.7234 14.1647 95.4363 19.9518 92.9275 24.5913C91.0848 27.999 87.4771 29.8402 83.8597 29.5869C87.3006 31.2292 91.1175 31.3209 94.4803 30.1095L95.971 31.8533C96.6961 32.7014 97.9715 32.8014 98.8196 32.0763C99.6678 31.3512 99.7676 30.0758 99.0425 29.2276L98.1163 28.144C99.2837 27.264 100.325 26.187 101.185 24.9291L104.376 26.2828C105.403 26.7186 106.589 26.2391 107.025 25.212C107.461 24.1848 106.981 22.9986 105.954 22.5628L102.96 21.2926C103.358 20.0417 103.568 18.7615 103.601 17.4883L106.676 17.2954C107.79 17.2254 108.636 16.2661 108.566 15.1523C108.496 14.0388 107.537 13.1925 106.423 13.2624L103.111 13.4702C102.728 12.0738 102.127 10.7383 101.324 9.51866L103.207 7.51524C103.972 6.70225 103.932 5.42369 103.119 4.65928C102.306 3.89488 101.028 3.93419 100.263 4.74705L98.6172 6.49754C97.9302 5.92845 97.1778 5.41783 96.3631 4.9774C95.6412 4.58702 94.8997 4.26756 94.147 4.01671L94.5203 1.85667C94.6695 0.993269 94.0904 0.172468 93.2271 0.0234201ZM46.7957 26.733C45.958 25.3033 46.438 23.4654 47.8675 22.6279C49.2972 21.7904 51.135 22.2704 51.9725 23.6998L60.5662 38.3679C61.4036 39.7975 60.9239 41.6354 59.4942 42.4729C58.0645 43.3104 56.2268 42.8304 55.3892 41.401L46.7957 26.733ZM56.3247 21.4136C54.8953 22.2512 54.4153 24.0891 55.253 25.5185L61.8245 36.7352C62.6619 38.1649 64.4998 38.6448 65.9295 37.8072C67.3589 36.9697 67.8389 35.1317 67.0015 33.7023L60.4297 22.4856C59.5923 21.056 57.7544 20.576 56.3247 21.4136ZM63.71 24.3043C62.8726 22.8746 63.3526 21.0367 64.782 20.1992C66.2117 19.3617 68.0496 19.8417 68.887 21.2711L74.4478 30.7622C75.2852 32.1918 74.8052 34.0296 73.3758 34.8673C71.9461 35.7047 70.1084 35.2248 69.2708 33.7953L63.71 24.3043ZM72.4768 17.7938C71.0474 18.6312 70.5674 20.4691 71.4051 21.8988L76.46 30.527C77.2976 31.9565 79.1355 32.4365 80.565 31.5989C81.9947 30.7613 82.4746 28.9234 81.637 27.4939L76.5818 18.8657C75.7444 17.436 73.9065 16.9562 72.4768 17.7938ZM31.7864 60.3625C33.8846 59.9592 35.8921 59.2312 37.7413 58.2219L38.5462 59.6616C39.1812 60.7971 40.6165 61.2031 41.752 60.5681C42.8875 59.9331 43.2933 58.498 42.6582 57.3625L41.6109 55.4895C44.7056 52.72 46.9903 48.987 47.949 44.6208C50.3775 33.5625 43.3816 22.6294 32.3233 20.2009C26.3877 18.8976 20.4883 20.3092 15.9207 23.6069L13.0779 21.7284C11.6958 20.8148 9.83476 21.1948 8.92118 22.577C8.00761 23.9593 8.38749 25.8204 9.76982 26.7339L11.5367 27.9017C10.2312 29.6357 9.18681 31.5992 8.47465 33.7466L3.36454 33.1214C1.72001 32.9203 0.223673 34.0904 0.0225009 35.7351C-0.178671 37.3797 0.991495 38.876 2.63603 39.0771L7.43022 39.6636C7.3748 41.6116 7.59965 43.5245 8.07426 45.355L3.76322 46.8905C2.20243 47.4465 1.38798 49.1625 1.94389 50.7232C2.4998 52.284 4.21562 53.0986 5.77641 52.5427L10.419 50.8891C11.5379 52.7254 12.9434 54.3856 14.5892 55.7975L12.7215 59.4282C11.9634 60.9016 12.5435 62.7102 14.0169 63.4682C15.49 64.2261 17.2989 63.6462 18.0567 62.1728L19.6888 59.0005C20.9026 59.5315 22.1861 59.9519 23.5293 60.2468C24.7195 60.5083 25.9082 60.6601 27.0852 60.7099L27.4375 63.9448C27.5787 65.2383 28.7413 66.1723 30.0345 66.0315C31.3277 65.8906 32.262 64.728 32.1211 63.4348L31.7864 60.3625ZM27.7749 52.5685C35.8665 54.3456 43.8392 49.3496 45.5828 41.4104C47.3262 33.4709 42.1802 25.5945 34.0887 23.8176C25.9971 22.0408 18.0245 27.0364 16.281 34.9758C14.5376 42.915 19.6836 50.7915 27.7749 52.5685Z" />
    </symbol>

    <symbol id="bags" viewBox="0 0 64 64">
        <path d="M33 58.9817C47.1166 58.4678 58.4678 47.1167 58.9818 33H63C63.5523 33 64 32.5522 64 32C64 31.4478 63.5523 31 63 31H58.9818C58.4678 16.8833 47.1166 5.53223 33 5.01831V1C33 0.447754 32.5523 0 32 0C31.4477 0 31 0.447754 31 1V5.01831C16.8834 5.53223 5.53217 16.8833 5.01819 31H1C0.447693 31 0 31.4478 0 32C0 32.5522 0.447693 33 1 33H5.01819C5.53217 47.1167 16.8834 58.4678 31 58.9817V63C31 63.5522 31.4477 64 32 64C32.5523 64 33 63.5522 33 63V58.9817ZM53 33H56.9803C56.4685 46.0117 46.0118 56.4685 33 56.9805V53C33 52.4478 32.5523 52 32 52C31.4477 52 31 52.4478 31 53V56.9805C17.9882 56.4685 7.53149 46.0117 7.01965 33H11C11.5523 33 12 32.5522 12 32C12 31.4478 11.5523 31 11 31H7.01965C7.53149 17.9883 17.9882 7.53149 31 7.01953V11C31 11.5522 31.4477 12 32 12C32.5523 12 33 11.5522 33 11V7.01953C46.0118 7.53149 56.4685 17.9883 56.9803 31H53C52.4477 31 52 31.4478 52 32C52 32.5522 52.4477 33 53 33ZM50.8604 21.2822C51.1733 21.0586 51.6205 21.1035 51.844 21.4165C52.1123 21.6848 52.0229 22.1318 51.6652 22.3552C50.4132 23.2942 48.1776 24.6804 48.0882 24.7251C48.0882 24.7251 48.0435 24.7698 47.9988 24.7698L42.2756 27.0947C42.1862 27.1394 42.1415 27.1394 42.0521 27.1394L37.5362 27.4077C37.9833 28.302 38.4304 29.2856 38.7881 30.2693C38.7881 30.3142 38.8328 30.3142 38.8328 30.3142L42.8122 32.8181C42.9016 32.8628 42.9463 32.9075 42.991 32.9521L46.7021 37.5574C46.7021 37.5796 46.7133 37.5908 46.7244 37.6021C46.7356 37.6133 46.7468 37.6245 46.7468 37.647L49.6084 42.7439C49.7873 43.0569 49.6531 43.5042 49.3401 43.6831C49.3121 43.6924 49.2861 43.7017 49.2612 43.7107C49.1667 43.7444 49.0886 43.7725 48.9824 43.7725C48.7142 43.7725 48.4906 43.6382 48.3565 43.4148L45.4949 38.407L41.8732 33.9358L39.6823 32.4602C39.7571 32.6099 39.8007 32.791 39.8391 32.9507L39.8612 33.0415L43.0357 37.5127C43.0357 37.5352 43.0469 37.5461 43.0581 37.5574C43.0693 37.5686 43.0805 37.5796 43.0805 37.6021L46.0314 43.5042C46.0314 43.5264 46.0426 43.5376 46.0538 43.5488C46.0649 43.5601 46.0762 43.5713 46.0762 43.5935L47.7305 48.4226C47.8199 48.7803 47.6411 49.1826 47.2834 49.3167C47.194 49.3613 47.1493 49.3613 47.0598 49.3613C46.7468 49.3613 46.4786 49.1379 46.3891 48.8696L44.7348 44.0854L41.8285 38.2727L40.4872 36.395L40.4985 36.5303C40.5391 37.0144 40.5766 37.4612 40.5766 37.8704C40.5766 42.4309 36.8655 46.0974 32.2601 46.0974C27.6548 46.0974 23.9437 42.4309 23.9437 37.8704C23.9437 37.4612 23.9811 37.0144 24.0218 36.5303L24.0331 36.395L22.6918 38.2727L19.7855 44.0854L18.1311 48.8696C18.0417 49.1826 17.7287 49.3613 17.4605 49.3613C17.371 49.3613 17.3263 49.3613 17.2369 49.3167C16.8792 49.1826 16.6556 48.7803 16.7898 48.4226L18.4441 43.5935C18.4441 43.5713 18.4553 43.5601 18.4664 43.5488C18.4776 43.5376 18.4888 43.5264 18.4888 43.5042L21.4398 37.6021C21.4398 37.5796 21.4509 37.5686 21.4622 37.5574C21.4733 37.5461 21.4845 37.5352 21.4845 37.5127L24.6591 33.0415C24.678 32.9658 24.705 32.8899 24.7332 32.8108C24.7715 32.7031 24.8121 32.5891 24.8379 32.4602L22.6471 33.9358L19.0254 38.407L16.1638 43.4148C16.0297 43.6382 15.7614 43.7725 15.5378 43.7725C15.4037 43.7725 15.2696 43.7278 15.1801 43.6831C14.8224 43.5042 14.733 43.0569 14.9119 42.7439L17.7734 37.647C17.7734 37.6279 17.7734 37.6169 17.7769 37.6072C17.7815 37.594 17.7925 37.583 17.8182 37.5574L21.2163 32.9521C21.2386 32.9297 21.2722 32.9075 21.3057 32.8853C21.3392 32.8628 21.3727 32.8403 21.3951 32.8181L25.1062 30.3589C25.1062 30.3142 25.1509 30.3142 25.1509 30.3142C25.5086 29.3303 25.9557 28.3467 26.4029 27.4524L21.887 27.1841C21.7975 27.1841 21.7528 27.1841 21.6634 27.1394L15.9402 24.8145C15.9178 24.8145 15.9067 24.8032 15.8955 24.7922C15.8843 24.781 15.8732 24.7698 15.8508 24.7698C15.8221 24.7412 15.5739 24.5845 15.2084 24.3538C14.4315 23.8633 13.1252 23.0386 12.2739 22.4001C11.9609 22.1765 11.9162 21.7295 12.1397 21.4165C12.3633 21.1035 12.8104 21.0586 13.1234 21.2822C13.8621 21.8142 14.9915 22.5217 15.7628 23.0051C16.1585 23.2532 16.46 23.4419 16.5662 23.5178L22.1552 25.7981L27.2524 26.0664C27.3641 25.9099 27.4648 25.7534 27.5654 25.5969C27.666 25.4404 27.7666 25.2839 27.8784 25.1274L23.586 23.7861C23.5413 23.7639 23.5079 23.7415 23.4744 23.7192C23.4408 23.6968 23.4072 23.6746 23.3624 23.6521L19.1595 20.1196C19.1371 20.0972 19.1148 20.0637 19.0924 20.0303C19.0701 19.9968 19.0477 19.9634 19.0254 19.9409C19.0203 19.9307 18.9966 19.8911 18.9581 19.8262C18.6581 19.3218 17.4543 17.2986 17.058 15.8721C16.9686 15.5144 17.1922 15.1121 17.5499 15.0227C17.9076 14.9331 18.31 15.1567 18.3994 15.5144C18.7571 16.7664 19.8749 18.689 20.1432 19.136L24.1673 22.4895L28.862 23.9204C29.488 23.2942 30.114 22.8025 30.7846 22.5342C30.5611 22.2659 30.3822 21.8635 30.3822 21.4612C30.3822 20.5669 31.0976 19.8516 31.9919 19.8516C32.8861 19.8516 33.6015 20.5669 33.6015 21.4612C33.6015 21.8635 33.4674 22.2659 33.1991 22.5342C33.8698 22.8025 34.4957 23.2942 35.1217 23.9204L39.8165 22.4895L43.8406 19.136C43.8885 19.04 43.9796 18.8765 44.0967 18.666C44.5256 17.8953 45.3033 16.4978 45.5843 15.5144C45.6738 15.1121 46.0762 14.9331 46.4339 15.0227C46.8363 15.1121 47.0151 15.5144 46.9257 15.8721C46.5296 17.2979 45.3265 19.3203 45.0259 19.8257C44.9872 19.8909 44.9635 19.9307 44.9584 19.9409C44.9136 20.0303 44.8689 20.075 44.8242 20.1196L40.6213 23.6521C40.5766 23.6968 40.4872 23.7415 40.3977 23.7861L36.1054 25.1274C36.235 25.2832 36.3497 25.469 36.4669 25.6587C36.5515 25.7959 36.6375 25.9351 36.7313 26.0664L41.8285 25.7981L47.4175 23.5178C47.7752 23.3391 49.7425 22.0872 50.8604 21.2822Z" />
    </symbol>

    <symbol id="cell" viewBox="0 0 85 71">
        <path d="M72.6035 10.4341L79.5491 33.7638L85 33.7646V38.5583H77.7627C76.7034 38.5583 75.7681 37.8604 75.4653 36.8451L68.5208 13.5162H16.7021L9.75488 36.891C9.45215 37.9095 8.51855 38.6068 7.45752 38.6068H0V33.8123H5.66846L12.6157 10.4358C12.9185 9.41809 13.8528 8.72253 14.9141 8.72253H32.5879V2.39685C32.5879 1.07385 33.6602 0 34.9846 0H50.3333C51.6562 0 52.73 1.07385 52.73 2.39685V8.72253H70.3062C71.3665 8.72253 72.3008 9.41809 72.6035 10.4341ZM47.9365 4.79285H37.3816V8.72168H47.9365V4.79285ZM58.1462 34.7908L48.2163 30.0686V16.543L69.2053 26.5452L66.2354 32.9227L58.1462 32.9364V34.7908ZM50.041 48.132H36.8394L42.7263 58.0347C43.7119 59.6909 43.1694 61.8462 41.5215 62.8291C39.8577 63.813 37.7185 63.2712 36.7339 61.6177L30.4124 50.9445L30.4199 59.9197C30.4199 61.8455 28.8582 63.3987 26.9314 63.3987C25.0049 63.3987 23.4429 61.8455 23.4429 59.9197V37.0049L18.6621 34.2637C17.6936 33.7059 17.3579 32.4799 17.9062 31.5098C18.4553 30.5397 19.6892 30.1979 20.6602 30.7548L23.6843 32.4646H47.1306L58.1606 37.8594V46.65C58.1606 47.4484 58.0603 48.132 57.0181 48.132V59.9197C57.0181 61.8455 55.4485 63.3987 53.5227 63.3987C51.5969 63.3987 50.041 61.8455 50.041 59.9197V48.132ZM70.3062 70.5647H14.9141C13.8528 70.5647 12.9185 69.8657 12.6157 68.8513L5.66846 45.4733H0V40.6787H7.45752C8.51855 40.6787 9.45215 41.3751 9.75488 42.3928L16.7021 65.771H68.5208L75.4653 42.4396C75.7681 41.4261 76.7034 40.728 77.7627 40.728H85V45.5217H79.55L72.6045 68.8513C72.3008 69.8691 71.3672 70.5647 70.3062 70.5647Z" />
    </symbol>

    <symbol id="vitamins" viewBox="0 0 70 70">
        <path d="M60.1685 18.7606V14.7473C62.5715 14.7473 64.5381 12.7812 64.5381 10.3778V4.36963C64.5381 1.96606 62.5715 0 60.1685 0H39.4128C37.0098 0 35.0432 1.96606 35.0432 4.36963V10.3778C35.0432 12.7812 37.0098 14.7473 39.4128 14.7473V18.7606C33.825 19.7618 29.5813 24.6738 29.5813 30.5872V65.5437C29.5813 67.9568 31.5244 69.9133 33.9216 69.9133H65.6597C68.0569 69.9133 70 67.9568 70 65.5437V30.5872C70 24.6738 65.7561 19.7618 60.1685 18.7606ZM59.0759 6.28125C59.0759 5.97937 59.3206 5.73511 59.6223 5.73511C59.9238 5.73511 60.1685 5.97937 60.1685 6.28125V8.46606C60.1685 8.76794 59.9238 9.01221 59.6223 9.01221C59.3206 9.01221 59.0759 8.76794 59.0759 8.46606V6.28125ZM55.7988 6.28125C55.7988 5.97937 56.0435 5.73511 56.345 5.73511C56.6465 5.73511 56.8911 5.97937 56.8911 6.28125V8.46606C56.8911 8.76794 56.6465 9.01221 56.345 9.01221C56.0435 9.01221 55.7988 8.76794 55.7988 8.46606V6.28125ZM52.5215 6.28125C52.5215 5.97937 52.7661 5.73511 53.0679 5.73511C53.3694 5.73511 53.614 5.97937 53.614 6.28125V8.46606C53.614 8.76794 53.3694 9.01221 53.0679 9.01221C52.7661 9.01221 52.5215 8.76794 52.5215 8.46606V6.28125ZM49.2444 6.28125C49.2444 5.97937 49.489 5.73511 49.7905 5.73511C50.0923 5.73511 50.3369 5.97937 50.3369 6.28125V8.46606C50.3369 8.76794 50.0923 9.01221 49.7905 9.01221C49.489 9.01221 49.2444 8.76794 49.2444 8.46606V6.28125ZM45.9673 6.28125C45.9673 5.97937 46.2119 5.73511 46.5134 5.73511C46.8149 5.73511 47.0596 5.97937 47.0596 6.28125V8.46606C47.0596 8.76794 46.8149 9.01221 46.5134 9.01221C46.2119 9.01221 45.9673 8.76794 45.9673 8.46606V6.28125ZM42.6902 6.28125C42.6902 5.97937 42.9346 5.73511 43.2363 5.73511C43.5378 5.73511 43.7825 5.97937 43.7825 6.28125V8.46606C43.7825 8.76794 43.5378 9.01221 43.2363 9.01221C42.9346 9.01221 42.6902 8.76794 42.6902 8.46606V6.28125ZM41.5977 14.7473H57.9836V18.5707H41.5977V14.7473ZM39.4128 6.28125C39.4128 5.97937 39.6575 5.73511 39.959 5.73511C40.2607 5.73511 40.5054 5.97937 40.5054 6.28125V8.46606C40.5054 8.76794 40.2607 9.01221 39.959 9.01221C39.6575 9.01221 39.4128 8.76794 39.4128 8.46606V6.28125ZM63.4456 51.3427C63.4456 52.5443 62.4624 53.5273 61.2607 53.5273H38.3206C37.1187 53.5273 36.1357 52.5443 36.1357 51.3427V40.4186C36.1357 39.2169 37.1187 38.2338 38.3206 38.2338H61.2607C62.4624 38.2338 63.4456 39.2169 63.4456 40.4186V51.3427ZM24.7227 45.6525C23.5147 44.3392 21.8689 43.6799 20.2022 43.6799C18.5964 43.6799 16.9707 44.2924 15.6995 45.5223L2.06617 58.7128C-0.524411 61.219 -0.70361 65.3792 1.66822 67.957C2.87647 69.2703 4.52198 69.9294 6.18872 69.9294C7.79444 69.9294 9.42017 69.3171 10.6914 68.0872L24.3247 54.8967C26.9155 52.3904 27.0945 48.2305 24.7227 45.6525ZM16.2422 60.3037L9.6836 53.7451L11.2283 52.2004L17.7871 58.759L16.2422 60.3037ZM24.6655 61.7202H20.4138L24.998 57.2852C26.1499 58.6239 26.8503 60.3618 26.8503 62.2664C26.8503 66.4893 23.4272 69.9133 19.2034 69.9133C17.2083 69.9133 15.3977 69.1426 14.0361 67.8911L19.2849 62.8127H24.6655V61.7202Z" />
    </symbol>

    <symbol id="accessories" viewBox="0 0 106 60">
        <path d="M1.30219 14.7231L34.9992 0L68.6963 14.7231L70 25.9417L34.9992 11.2175L0 25.9417L1.30219 14.7231ZM34.9992 12.9402L12.0403 22.5986V57.5115H27.4563V42.1531C27.4563 37.9873 30.8335 34.6101 34.9992 34.6101C39.1665 34.6101 42.5422 37.9883 42.5422 42.1531V57.5115H57.9582V22.5986L34.9992 12.9402ZM46.8434 28.3896C46.8434 29.9719 45.5614 31.2546 43.979 31.2546C42.3967 31.2546 41.1147 29.9729 41.1147 28.3896C41.1147 28.2068 41.1326 28.0276 41.1653 27.854H28.8324C28.8651 28.0276 28.8837 28.2068 28.8837 28.3896C28.8837 29.9712 27.6018 31.2546 26.0202 31.2546C24.4378 31.2546 23.1559 29.9719 23.1559 28.3896C23.1559 27.3132 23.7521 26.3752 24.6316 25.8865C23.7521 25.3977 23.1559 24.4597 23.1559 23.3826C23.1559 21.8008 24.4378 20.5181 26.0202 20.5181C27.6018 20.5181 28.8837 21.8 28.8837 23.3826C28.8837 23.5662 28.8658 23.7451 28.8324 23.9187H41.1653C41.1326 23.7451 41.1147 23.5662 41.1147 23.3826C41.1147 21.8008 42.3967 20.5181 43.979 20.5181C45.5614 20.5181 46.8434 21.8 46.8434 23.3826C46.8434 24.4604 46.2471 25.397 45.3676 25.8865C46.2471 26.3752 46.8434 27.3132 46.8434 28.3896ZM99.1812 43.1892C101.312 43.9475 102.683 44.9941 103.003 46.283L106 54.0269C106 57.324 98.8414 60 89.0008 60C79.1601 60 72 57.324 72 54.0269L74.9986 46.283C75.8617 43.6394 81.2674 41.8115 89.0011 41.8115C90.5267 41.8115 91.9403 41.8926 93.2754 42.0203L94.1001 40.8582L94.6532 40.0823C93.819 39.0137 93.7584 37.5259 94.5763 36.3787C95.1922 35.5154 96.2123 35 97.3033 35C97.9718 35 98.6178 35.1917 99.1705 35.5579C99.6954 35.9041 100.1 36.3804 100.342 36.9382C100.971 36.9556 101.586 37.1526 102.122 37.5068C103.623 38.4983 104.006 40.481 102.974 41.925C102.359 42.7888 101.34 43.3042 100.25 43.3042C99.8916 43.3042 99.5377 43.2493 99.2117 43.1465L99.1812 43.1892ZM89.2293 43.2344C83.2721 43.2344 78.4474 44.6301 78.4474 46.3503C78.4474 47.7173 81.515 48.8665 85.7569 49.2864C85.8353 48.8547 85.9999 48.428 86.2757 48.0422C86.8924 47.1782 87.9113 46.6621 89.0019 46.6621C89.3017 46.6621 89.5992 46.7021 89.8952 46.7837L92.3109 43.3789C91.3297 43.2932 90.3081 43.2344 89.2293 43.2344ZM89.2598 49.4646C90.0673 49.4646 90.8513 49.436 91.6074 49.3867C91.7143 49.3801 91.8177 49.3723 91.9211 49.3643L92.1136 49.3501C92.5204 49.3171 92.9113 49.2734 93.2971 49.2273L94.1188 48.0774L97.4271 43.406L98.334 42.1345C98.3589 42.1001 98.3829 42.0659 98.4063 42.0325C98.5616 41.8115 98.6907 41.6274 98.8867 41.6274C98.9492 41.6274 99.0178 41.6448 99.0974 41.687L99.1758 41.7346L99.1998 41.7451C99.5259 41.9407 99.8908 42.0366 100.251 42.0366C100.883 42.0366 101.504 41.7451 101.889 41.2065C102.509 40.3376 102.28 39.1492 101.375 38.5525C101.031 38.325 100.633 38.2041 100.244 38.2041C100.217 38.2041 100.188 38.2048 100.162 38.2073L100.11 38.2173C100.074 38.2231 100.039 38.2246 100.002 38.2246C99.8406 38.2246 99.679 38.1794 99.5377 38.0864C99.3751 37.9788 99.2631 37.8235 99.2139 37.6538L99.1671 37.5322C99.0311 37.1685 98.7808 36.8398 98.4243 36.6052C98.0822 36.3767 97.6899 36.269 97.3033 36.269C96.6694 36.269 96.0485 36.5583 95.6645 37.0984C95.0836 37.9106 95.2467 39.0005 96.0074 39.6284L96.0904 39.6899C96.3761 39.9236 96.2113 40.1489 96.0005 40.4373C95.9775 40.4688 95.954 40.501 95.9304 40.5339L95.1861 41.5747L91.5377 46.7224L90.7941 47.7644C90.7702 47.7979 90.7471 47.8311 90.7246 47.8635C90.5702 48.0857 90.441 48.2715 90.2422 48.2715C90.1812 48.2715 90.1111 48.2527 90.0327 48.2119L89.9424 48.1582C89.6464 48.0049 89.3234 47.9297 89.0023 47.9297C88.3703 47.9297 87.7487 48.2209 87.3647 48.7605C87.2242 48.9551 87.1423 49.168 87.0874 49.384C87.7849 49.427 88.488 49.4658 89.2293 49.4658H89.2411H89.2465L89.2525 49.4653C89.2548 49.4648 89.2572 49.4646 89.2598 49.4646ZM95.2055 48.7954L95.0905 48.9563C98.0441 48.4011 100.01 47.4446 100.01 46.3508C100.01 45.7097 99.3099 45.1194 98.1603 44.6238L95.2055 48.7954Z" />
    </symbol>

    <symbol id="hygiene" viewBox="0 0 66 70">
        <path d="M28.0635 3.58545C28.0635 5.5625 26.4558 7.17102 24.4788 7.17102C22.5017 7.17102 20.8933 5.5625 20.8933 3.58545C20.8933 1.60852 22.5017 0 24.4788 0C26.4551 0 28.0635 1.60852 28.0635 3.58545ZM33.957 15.3624C35.9341 15.3624 37.5417 13.7539 37.5417 11.7769C37.5417 9.79993 35.9331 8.19141 33.957 8.19141C31.9807 8.19141 30.3723 9.79993 30.3723 11.7769C30.3723 13.7539 31.9807 15.3624 33.957 15.3624ZM44.8818 67.9131H28.4033C30.4829 64.7146 34.5654 57.0522 34.8674 45.8638H26.4775V50.0228C26.4775 54.2755 23.0183 57.7349 18.7654 57.7349C14.5129 57.7349 11.0535 54.2755 11.0535 50.0228V45.8638H2.42603C2.39111 53.2781 4.03223 60.9705 8.72656 67.9131H0V69.947H44.8818V67.9131ZM26.4775 43.83H34.8787C34.8521 41.962 34.7185 40.0062 34.4541 37.9624H26.4775V43.83ZM13.0876 33.9205C13.0876 30.7898 15.635 28.2424 18.7656 28.2424C21.8965 28.2424 24.4438 30.7891 24.4438 33.9205V50.024C24.4438 53.1548 21.8965 55.702 18.7656 55.702C15.635 55.702 13.0876 53.1548 13.0876 50.024V33.9205ZM24.7 11.5953L24.4038 11.103H12.7002L12.4023 11.5887C12.3586 11.6595 11.4221 13.2184 10.1406 15.8488H27.0984C26.3606 14.4518 25.5664 13.0353 24.7 11.5953ZM3.05933 37.9624H11.0537V43.83H2.47754C2.56714 41.84 2.77124 39.8776 3.05933 37.9624ZM11.0535 33.9204C11.0535 29.6677 14.5129 26.2083 18.7654 26.2083C23.0181 26.2083 26.4775 29.6677 26.4775 33.9204V35.9291H34.1489C33.2288 30.4642 31.3689 24.4274 28.1406 17.8828H9.18384C7.17432 22.3071 4.73022 28.7109 3.40161 35.9291H11.0535V33.9204ZM48 43.8759V17.627C48 16.7299 48.7927 16.0024 49.7698 16H58.0718C59.05 16 59.842 16.7273 59.842 17.6244V17.6871H65.0139C65.3525 17.6871 65.6272 17.9399 65.6272 18.2498C65.6272 18.5607 65.3518 18.8129 65.0139 18.8129H59.842V20.8123H65.0139C65.3525 20.8123 65.6272 21.0651 65.6272 21.3749C65.6272 21.6859 65.3518 21.9374 65.0139 21.9374H59.842V23.9375H65.0139C65.3525 23.9375 65.6272 24.189 65.6272 24.5C65.6272 24.8112 65.3518 25.0626 65.0139 25.0626H59.842V27.0627H65.0139C65.3525 27.0627 65.6272 27.3142 65.6272 27.6252C65.6272 27.9363 65.3518 28.1877 65.0139 28.1877H59.842V30.1879H65.0139C65.3525 30.1879 65.6272 30.4395 65.6272 30.7504C65.6272 31.0615 65.3518 31.313 65.0139 31.313H59.842V33.3131H65.0139C65.3525 33.3131 65.6272 33.5652 65.6272 33.8756C65.6272 34.1862 65.3518 34.4382 65.0139 34.4382H59.842V36.4376H65.0139C65.3525 36.4376 65.6272 36.6904 65.6272 37.0009C65.6272 37.3113 65.3518 37.5634 65.0139 37.5634H59.842V39.5627H65.0139C65.3525 39.5627 65.6272 39.8156 65.6272 40.1254C65.6272 40.4365 65.3518 40.6886 65.0139 40.6886H59.842V42.688H65.0139C65.3525 42.688 65.6272 42.9402 65.6272 43.2506C65.6272 43.561 65.3518 43.8132 65.0139 43.8132H59.842V43.8759C59.842 44.7736 59.05 45.5009 58.0718 45.5009H57.0513V66.375C57.0513 67.2727 56.26 68 55.2815 68H52.5598C51.5828 68 50.7908 67.2727 50.7908 66.375V45.5009H49.7698C48.792 45.5009 48 44.7736 48 43.8759Z" />
    </symbol>

    <symbol id="clothes" viewBox="0 0 90 70">
        <path xmlns="http://www.w3.org/2000/svg" fill-rule="evenodd" clip-rule="evenodd" d="M15.1331 26.6416L17.9881 23.0352L45.229 21.0173L49.7152 18.7742L51.9334 21.1123L69.5477 0.389904C70.0907 -0.249012 70.5348 -0.0851944 70.5348 0.752941V7.86988C70.5348 8.70997 71.2107 9.50782 72.0387 9.64601L76.6557 10.416C77.4837 10.5549 78.5407 11.2378 79.0057 11.9358L79.8567 13.21C80.3217 13.908 81.3828 14.564 82.2157 14.668L88.4477 15.5598C90.2336 15.7849 90.1887 17.815 89.7317 19.125C89.3405 20.2505 88.5295 21.0337 87.7014 21.8335C87.5429 21.9863 87.3838 22.1401 87.2268 22.2969C86.738 22.7857 86.6289 23.6231 86.529 24.3872C86.4873 24.7068 86.4472 25.0137 86.3818 25.2769C85.8703 27.3391 83.9062 27.429 82.1198 27.5108L82.0991 27.5117C81.7999 27.5256 81.506 27.5391 81.2247 27.562C79.2098 27.7268 77.1949 27.8987 75.1805 28.0706L73.8637 28.1829L73.125 28.2437L73.1163 28.2444C72.7629 28.2732 72.4093 28.302 72.0558 28.332C71.2187 28.4019 70.1548 29.0288 69.6897 29.728L65.7347 35.6597L69.2978 39.4153L65.025 45.2903L66.0796 59H60.3687V59.978C60.3687 60.8159 60.9947 61.783 61.7607 62.126C61.7607 62.126 64.1808 63.21 64.1808 65.3149C64.1808 67.4209 62.4737 69.1279 60.3687 69.1279H51.7268C50.8877 69.1279 50.3717 68.343 50.2008 67.603L48.5859 59H44.4997V53.9155L29.2785 52.5725L27.7794 59.0684L22.6026 58.637L22.2417 59.9768C22.0918 60.5659 22.8687 61.782 23.6338 62.125C23.6338 62.125 26.0548 63.209 26.0548 65.314C26.0548 67.4199 24.3477 69.127 22.2417 69.127H13.5997C12.7617 69.127 12.0747 68.4399 12.0747 67.6018V57.7598L7.99973 57.4202V35.6521L10.7331 32.1995L0.444672 21.9099C-0.148224 21.3169 -0.148224 20.3469 0.444672 19.7529L0.829681 19.3689C1.4227 18.7759 2.48666 18.6589 3.19467 19.1099L14.6018 26.3689C14.7558 26.4671 14.9364 26.5588 15.1331 26.6416ZM49.2843 21.2258L66.7016 39.5847L62.9745 44.7095L63.9199 57H46.4997V52.0845L27.7209 50.4275L26.2201 56.9317L9.99973 55.5798V36.3479L19.0113 24.9649L45.7705 22.9827L49.2843 21.2258Z" />
    </symbol>

    <symbol id="milk" viewBox="0 0 30 65">
        <path d="M27.5 15C27.5 12.2388 25.2612 10 22.5 10H21.25C19.8687 10 18.75 8.88135 18.75 7.5V3.75C18.75 1.67871 17.0712 0 15 0C12.9288 0 11.25 1.67871 11.25 3.75V7.5C11.25 8.88135 10.1313 10 8.75 10H7.5C4.73877 10 2.5 12.2388 2.5 15H27.5ZM26.25 17.5C28.3212 17.5 30 19.1787 30 21.25C30 23.3213 28.3212 25 26.25 25H3.75C1.67877 25 0 23.3213 0 21.25C0 19.1787 1.67877 17.5 3.75 17.5H26.25ZM2.5 60V27.5H27.5V60C27.5 62.7612 25.2612 65 22.5 65H7.5C4.73877 65 2.5 62.7612 2.5 60ZM21.25 56.25V62.5H23.75V30H21.25V35H16.25V37.5H21.25V41.25H16.25V43.75H21.25V47.5H16.25V50H21.25V53.75H16.25V56.25H21.25Z" />
    </symbol>

    <symbol id="double" viewBox="0 0 15 14">
        <path d="M6.22205 13.0229L7.01001 12.4449L1.07703 6.51196L7.01001 0.578979L6.22205 0L0 6.22302L0.394043 6.51196L0 6.80103L6.22205 13.0229ZM13.222 13.0229L14.01 12.4449L8.07703 6.51196L14.01 0.578979L13.222 0L7 6.22302L7.39404 6.51196L7 6.80103L13.222 13.0229Z" />
    </symbol>

    <symbol id="delivery" viewBox="0 0 95 52">
        <path d="M59 2.19995L54.1001 29.8999C54 30.8 53.2 31.5 52.2 31.1001H3.1001C1.3999 31.1001 0 29.7 0 28C0 26.3 1.3999 24.8999 3.1001 24.8999H11.5C13.2 24.8 14.6001 23.3999 14.6001 21.7C14.6001 20 13.2 18.6001 11.5 18.6001H6.30005C4.6001 18.6001 3.19995 17.2 3.19995 15.5C3.19995 13.8 4.6001 12.3999 6.30005 12.3999H14.7C16.3999 12.3999 17.8 11 17.8 9.30005C17.8 7.6001 16.3999 6.19995 14.7 6.19995H10H9.5C7.80005 6.19995 6.3999 4.80005 6.3999 3.1001C6.3999 1.3999 7.80005 0 9.5 0H57.2C58.3 0 59.2 1.1001 59 2.19995ZM83 25.0999L92.4001 26.3999C94.2002 26.5999 95.3 28.2 94.9001 30.0999L92.8 42C92.7002 42.8999 91.9001 43.5 91 43.5H86.3C85.2002 47.8 81 51.2 76.6001 51.2C72.3 51.2 69.3 47.8 69.7002 43.5H26.2C25.1001 47.8 20.8 51.2 16.5 51.2C12.2 51.2 9.19995 47.8 9.6001 43.5H5.69995C4.6001 43.5 3.69995 42.3999 3.90015 41.3L4.90015 35.5999C5 34.7 5.80005 34.0999 6.69995 34.0999H54.5C55.4001 34.0999 56.1001 33.5 56.3 32.5999L59.9001 12.7C60 11.8 60.8 11.2 61.7 11.2H72.6001C75.7 11.2 78.2002 12.8 79.2002 15.3999L83 25.0999ZM17.2 47.2C19.7 47.2 22 45.2 22.4001 42.8C22.9001 40.3999 21.2 38.3999 18.8 38.3999C16.3 38.3999 14 40.3999 13.6001 42.8C13.1001 45.2 14.8 47.2 17.2 47.2ZM65.2 16.3999L63.7 24.8H76.8L74.1001 18C73.7 17 72.7 16.3999 71.6001 16.3999H65.2ZM77.3 47.2C79.8 47.2 82.1001 45.2 82.5 42.8C82.9001 40.3999 81.4001 38.3999 78.9001 38.3999C76.4001 38.3999 74.1001 40.3999 73.7002 42.8C73.2002 45.2 74.8 47.2 77.3 47.2Z" />
    </symbol>

    <symbol id="pay" viewBox="0 0 61 61">
        <path d="M7.31995 21.2608H6.09998C3.96497 21.2608 2.13501 21.8721 0.609985 23.0948L9.45496 3.22515C10.6749 0.473933 14.03 -0.748723 16.775 0.473933L57.645 18.5096C59.78 19.4266 61 21.5665 61 23.7064C59.475 22.1778 57.34 21.2608 54.9 21.2608H50.63L50.02 19.4266L21.35 6.89337L18.91 7.50494V8.11627C18.2999 9.64459 16.165 10.5616 14.335 9.64459C14.1825 9.64459 14.1063 9.56817 14.03 9.49176C13.9537 9.41534 13.8776 9.33892 13.725 9.33892L11.285 10.2562L7.01501 20.0379L7.31995 21.2608ZM17.995 15.4527C19.8251 16.3697 20.4351 18.2039 19.8251 20.0379C19.52 20.6492 19.215 20.9549 18.605 21.2606H14.64C13.115 20.3436 12.505 18.5096 13.42 16.981C14.03 15.4527 16.165 14.5355 17.995 15.4527ZM33.8551 17.5928C29.5851 15.7588 25.01 17.5928 23.1801 21.261H37.8201C36.905 19.7327 35.6851 18.5101 33.8551 17.5928ZM0 54.8863V30.4315C0 27.0689 2.745 24.3177 6.09998 24.3177H54.9C58.255 24.3177 61 27.0689 61 30.4315V54.8863C61 58.2491 58.255 61.0001 54.9 61.0001H6.09998C2.745 61.0001 0 58.2491 0 54.8863ZM53.985 50.3011L56.12 48.4671H56.425V36.5452L54.29 34.711H53.6801C51.545 34.711 49.715 33.1827 49.715 31.0428V30.4315L47.58 28.5972H13.42L11.285 30.4315V31.0428C11.285 33.1827 9.45496 34.711 7.31995 34.711H6.70996L4.57495 36.5452V48.4671L6.70996 50.3011H7.31995C9.45496 50.3011 11.285 51.8294 11.285 53.9693V54.5806L13.42 56.4149H47.275L49.41 54.5806V53.9693C49.41 51.8294 51.24 50.3011 53.375 50.3011H53.985ZM47.275 46.3272C49.41 46.3272 51.24 44.7986 51.24 42.659C51.24 40.5191 49.41 38.9908 47.275 38.9908C45.14 38.9908 43.3101 40.5191 43.3101 42.659C43.3101 44.7986 45.14 46.3272 47.275 46.3272ZM30.8051 51.2181C35.99 51.2181 39.955 47.2442 39.955 42.659C39.955 38.0735 35.99 34.0997 30.8051 34.0997C25.62 34.0997 21.655 37.7679 21.655 42.659C21.655 47.5499 25.62 51.2181 30.8051 51.2181ZM13.725 46.3272C15.86 46.3272 17.6899 44.7986 17.6899 42.659C17.6899 40.5191 15.86 38.9908 13.725 38.9908C11.59 38.9908 9.76001 40.5191 9.76001 42.659C9.76001 44.7986 11.59 46.3272 13.725 46.3272Z" />
    </symbol>

    <symbol id="help" viewBox="0 0 76 76">
        <path d="M38 76C58.9868 76 76 58.9868 76 38C76 17.0132 58.9868 0 38 0C17.0132 0 0 17.0132 0 38C0 58.9868 17.0132 76 38 76ZM31.6376 66V54.45H43.4126V66H31.6376ZM30.5876 29.7H19.5626C19.6126 27 20.0626 24.5249 20.9126 22.2749C21.8126 20.0249 23.0376 18.075 24.5876 16.425C26.1876 14.7749 28.0876 13.5 30.2876 12.6001C32.5376 11.6499 35.0376 11.175 37.7876 11.175C41.3376 11.175 44.2876 11.675 46.6376 12.675C49.0376 13.625 50.9626 14.825 52.4126 16.2749C53.8626 17.7251 54.8876 19.3 55.4876 21C56.1376 22.6499 56.4626 24.2 56.4626 25.6499C56.4626 28.05 56.1376 30.0249 55.4876 31.575C54.8876 33.125 54.1126 34.45 53.1626 35.55C52.2626 36.6499 51.2376 37.6001 50.0876 38.3999C48.9876 39.1499 47.9376 39.925 46.9376 40.7251C45.9376 41.4751 45.0376 42.3501 44.2376 43.3501C43.4876 44.3501 43.0126 45.6001 42.8126 47.1001V49.95H32.6876V46.575C32.8376 44.425 33.2376 42.625 33.8876 41.175C34.5876 39.7251 35.3876 38.5 36.2876 37.5C37.1876 36.45 38.1376 35.55 39.1376 34.8C40.1376 34.05 41.0626 33.3 41.9126 32.55C42.7626 31.8 43.4376 30.9751 43.9376 30.075C44.4876 29.175 44.7376 28.05 44.6876 26.7C44.6876 24.3999 44.1126 22.7 42.9626 21.6001C41.8626 20.5 40.3126 19.95 38.3126 19.95C36.9626 19.95 35.7876 20.2251 34.7876 20.7749C33.8376 21.2749 33.0376 21.9751 32.3876 22.875C31.7876 23.7251 31.3376 24.75 31.0376 25.95C30.7376 27.1001 30.5876 28.3501 30.5876 29.7Z" />
    </symbol>

    <symbol id="empty" viewBox="0 0 42 42">
        <path fill-rule="evenodd" clip-rule="evenodd" d="M39.5814 4.33299C39.691 3.94652 39.5089 3.53636 39.1517 3.36522L32.4293 0.144515C31.3585 -0.368668 30.1646 0.560042 30.3687 1.74705C30.4664 2.31639 30.8794 2.7766 31.4274 2.92699L38.6006 4.89574C39.0234 5.0117 39.4598 4.76146 39.5814 4.33299ZM2.64087 3.48607C2.28357 3.65721 2.10132 4.06737 2.21106 4.45384C2.33276 4.88231 2.76904 5.13255 3.19189 5.01659L10.3651 3.04784C10.9131 2.89744 11.3259 2.43724 11.4238 1.8679C11.6278 0.680892 10.434 -0.247819 9.36328 0.265365L2.64087 3.48607ZM13.0508 14.3911C13.0508 18.0615 10.1294 21.0368 6.52539 21.0368C2.92163 21.0368 0 18.0615 0 14.3911C0 10.7207 2.92163 7.74535 6.52539 7.74535C10.1294 7.74535 13.0508 10.7207 13.0508 14.3911ZM9.49121 12.4577C9.49121 14.1262 8.16333 15.4785 6.52515 15.4785C4.88696 15.4785 3.55908 14.1262 3.55908 12.4577C3.55908 10.7895 4.88696 9.437 6.52515 9.437C8.16333 9.437 9.49121 10.7895 9.49121 12.4577ZM42 14.3911C42 18.0615 39.0786 21.0368 35.4746 21.0368C31.8708 21.0368 28.9492 18.0615 28.9492 14.3911C28.9492 10.7207 31.8708 7.74535 35.4746 7.74535C39.0786 7.74535 42 10.7207 42 14.3911ZM38.4407 12.4577C38.4407 14.1262 37.1128 15.4785 35.4746 15.4785C33.8364 15.4785 32.5085 14.1262 32.5085 12.4577C32.5085 10.7895 33.8364 9.437 35.4746 9.437C37.1128 9.437 38.4407 10.7895 38.4407 12.4577ZM25.592 24.9363H15.9133C13.4363 24.9363 11.4282 26.9665 11.4282 29.4707C11.4282 31.9751 13.4363 34.0054 15.9133 34.0054H18.8749V37.4746C18.3765 37.4516 17.8284 37.438 17.2197 37.4895C15.9358 37.5984 14.5283 37.9839 12.6223 38.9546C11.884 39.3303 11.5903 40.2336 11.9663 40.9719C12.3423 41.7099 13.2455 42.0036 13.9836 41.6279C15.6252 40.792 16.6565 40.5481 17.4731 40.4787C17.8987 40.4426 18.3035 40.4509 18.7722 40.4729L19.0757 40.4883L19.0835 40.4888L19.0956 40.4895L19.0995 40.4897C19.4807 40.5095 19.9166 40.532 20.3749 40.532H20.3979C20.856 40.532 21.2917 40.5095 21.673 40.4897L21.6772 40.4895L21.6892 40.4888L21.697 40.4883L22.0005 40.4729C22.4692 40.4509 22.874 40.4426 23.2997 40.4787C24.1162 40.5481 25.1476 40.792 26.7891 41.6279C27.5273 42.0036 28.4304 41.7099 28.8064 40.9719C29.1824 40.2336 28.8887 39.3303 28.1504 38.9546C26.2444 37.9839 24.8369 37.5984 23.553 37.4895C22.9443 37.438 22.3962 37.4516 21.8979 37.4746V34.0054H25.592C28.0691 34.0054 30.0774 31.9751 30.0774 29.4707C30.0774 26.9665 28.0691 24.9363 25.592 24.9363Z" />
    </symbol>

    <symbol id="load" viewBox="0 0 88 108">
        <path d="M72 53C72 60.1201 69.8887 66.0804 65.9329 72.0005C61.9772 77.9207 56.3548 82.5349 49.7766 85.2597C43.1985 87.9844 35.9601 88.6973 28.9768 87.3083C21.9934 85.9192 15.5789 82.4905 10.5442 77.4558C5.50948 72.4212 2.08081 66.0066 0.691746 59.0233C-0.697322 52.0399 0.0155983 44.8015 2.74035 38.2234C5.46511 31.6453 10.0793 26.0228 15.9995 22.0671C21.9197 18.1114 28.8799 16 36 16H52M52 16L36 32M52 16L36 0" transform="translate(8 12)" stroke-width="16" stroke-miterlimit="10" stroke-linecap="square"/>
    </symbol>

    <symbol id="fb" viewBox="0 0 61 61">
        <path d="M57.378 0H3.352C1.502 0 0 1.499 0 3.352V57.378C0 59.231 1.502 60.732 3.352 60.732H32.438V37.213H24.524V28.046H32.438V21.286C32.438 13.443 37.227 9.17 44.225 9.17C47.58 9.17 50.457 9.421 51.296 9.53V17.728L46.442 17.73C42.637 17.73 41.903 19.539 41.903 22.192V28.043H50.981L49.794 37.209H41.902V60.729H57.377C59.229 60.729 60.732 59.226 60.732 57.378V3.35C60.731 1.499 59.23 0 57.378 0Z" />
    </symbol>

    <symbol id="google" viewBox="0 0 512 512">
        <path d="M113.47 171.14L95.648 237.672L30.509 239.05C11.042 202.943 0 161.632 0 117.732C0 75.281 10.324 35.249 28.624 0H28.638L86.63 10.632L112.034 68.276C106.717 83.777 103.819 100.417 103.819 117.732C103.821 136.524 107.225 154.529 113.47 171.14Z" transform="translate(0 138.268)" fill="#FBBB00"/>
        <path d="M245.899 0C248.839 15.486 250.372 31.479 250.372 47.824C250.372 66.152 248.445 84.03 244.774 101.275C232.312 159.958 199.749 211.2 154.64 247.462L154.626 247.448L81.582 243.721L71.244 179.186C101.176 161.632 124.568 134.161 136.89 101.275H0V0H138.887H245.899Z" transform="translate(261.628 208.176)" fill="#518EF8"/>
        <path d="M385.744 146.215L385.758 146.229C341.887 181.492 286.157 202.591 225.491 202.591C128 202.591 43.239 148.1 0 67.91L82.961 0C104.58 57.698 160.239 98.771 225.491 98.771C253.538 98.771 279.814 91.189 302.361 77.953L385.744 146.215Z" transform="translate(30.509 309.409)" fill="#28B446"/>
        <path d="M390.78 58.936L307.847 126.832C284.512 112.246 256.928 103.82 227.376 103.82C160.647 103.82 103.947 146.777 83.411 206.544L0.0139999 138.268H0C42.606 56.123 128.436 0 227.376 0C289.491 0 346.444 22.126 390.78 58.936Z" transform="translate(28.624)" fill="#F14336"/>
    </symbol>

    <symbol id="exit" viewBox="0 0 68 51">
        <path fill-rule="evenodd" clip-rule="evenodd" d="M30.2 50.8H10.5C7.84778 50.8 5.30432 49.7463 3.42896 47.8711C1.55359 45.9956 0.5 43.4521 0.5 40.8V10C0.5 7.3479 1.55359 4.8042 3.42896 2.92896C5.30432 1.05347 7.84778 0 10.5 0H30.2C31.5132 0 32.8136 0.258545 34.0269 0.76123C35.2401 1.26367 36.3425 2.00024 37.2711 2.92896C38.1997 3.85742 38.9363 4.95996 39.4388 6.1731C39.9413 7.38647 40.2 8.68677 40.2 10V15.3999C40.2 15.9304 39.9893 16.4392 39.6143 16.8142C39.2391 17.1892 38.7305 17.3999 38.2 17.3999C37.6696 17.3999 37.1609 17.1892 36.7858 16.8142C36.4108 16.4392 36.2 15.9304 36.2 15.3999V10C36.2 8.40869 35.5679 6.88257 34.4426 5.75732C33.3174 4.63208 31.7913 4 30.2 4H10.5C8.90869 4 7.38257 4.63208 6.25732 5.75732C5.13208 6.88257 4.5 8.40869 4.5 10V40.8C4.5 42.3914 5.13208 43.9175 6.25732 45.0427C7.38257 46.168 8.90869 46.8 10.5 46.8H30.2C31.7913 46.8 33.3174 46.168 34.4426 45.0427C35.5679 43.9175 36.2 42.3914 36.2 40.8V35.3999C36.2 34.8696 36.4108 34.3608 36.7858 33.9858C37.1609 33.6106 37.6696 33.3999 38.2 33.3999C38.7305 33.3999 39.2391 33.6106 39.6143 33.9858C39.9893 34.3608 40.2 34.8696 40.2 35.3999V40.8C40.2 42.1133 39.9413 43.4136 39.4388 44.627C38.9363 45.8401 38.1997 46.9424 37.2711 47.8711C36.3425 48.7996 35.2401 49.5361 34.0269 50.0388C32.8136 50.5413 31.5132 50.8 30.2 50.8ZM52.4 9.5L66.9 24C67.2665 24.374 67.4717 24.8767 67.4717 25.4001C67.4717 25.9236 67.2665 26.4263 66.9 26.8L52.4 41.3C52.228 41.5293 52.0089 41.719 51.7573 41.8562C51.5057 41.9932 51.2277 42.0747 50.9418 42.095C50.656 42.1155 50.3691 42.074 50.1006 41.9739C49.8322 41.8735 49.5884 41.717 49.3857 41.5144C49.1832 41.3118 49.0265 41.0679 48.9263 40.7996C48.826 40.531 48.7847 40.2441 48.8051 39.9583C48.8253 39.6726 48.9069 39.3943 49.0439 39.1428C49.1812 38.8911 49.3707 38.6721 49.6 38.5L60.7 27.4001H19.5C18.9696 27.4001 18.4608 27.1895 18.0858 26.8142C17.7107 26.4392 17.5 25.9304 17.5 25.4001C17.5 24.8696 17.7107 24.3608 18.0858 23.9858C18.4608 23.6108 18.9696 23.4001 19.5 23.4001H60.7L49.6 12.3C49.3112 11.915 49.1709 11.4385 49.2051 10.9583C49.2391 10.478 49.4453 10.0264 49.7858 9.68579C50.1262 9.34546 50.578 9.13916 51.0582 9.10522C51.5385 9.07104 52.0149 9.21118 52.4 9.5Z" />
    </symbol>

    <symbol id="user" viewBox="0 0 418 399">
        <path d="M208.4 398.751C160.4 398.751 112.4 398.351 64.5 398.951C37.8 399.351 17.5 389.651 6.20001 365.251C-5.19999 340.451 2.40001 318.051 19.8 299.051C49 267.151 87 249.451 126.9 235.451C157.8 224.651 159.4 219.951 139.8 194.951C110.7 157.851 101.2 116.451 114.4 70.9512C128.3 23.1512 171.4 -5.04875 219.6 0.751246C270.8 6.95125 304.9 43.9513 308.9 97.5513C311.8 136.151 299.5 169.551 275 198.951C259.8 217.251 262.9 224.051 284.4 233.551C315.3 247.151 345.8 262.051 375 278.751C387.2 285.751 397.1 297.951 405.7 309.551C419.6 328.151 421 349.051 409.4 369.651C398.3 389.351 381.1 398.751 358.4 398.751C308.4 398.551 258.4 398.651 208.4 398.751Z" />
    </symbol>

    <symbol id="paw" viewBox="0 0 90 83">
        <path fill-rule="evenodd" clip-rule="evenodd" d="M24.9859 82.4941C24.6229 82.4691 24.2589 82.4491 23.8959 82.4161C21.8619 82.2251 19.9969 81.5621 18.3409 80.3631C15.4839 78.2941 13.6569 75.5431 12.9289 72.0811C12.6569 70.7801 12.5809 69.4671 12.6639 68.1421C12.7579 66.5871 13.0679 65.0791 13.5619 63.6041C14.3509 61.2501 15.5409 59.1141 17.0469 57.1451C18.1819 55.6611 19.4669 54.3171 20.8829 53.0981C22.2079 51.9561 23.4109 50.6951 24.5379 49.3601C25.9559 47.6771 27.2389 45.8931 28.5059 44.0971C29.6259 42.5091 30.7269 40.9111 31.9159 39.3761C32.8099 38.2181 33.7529 37.1031 34.8039 36.0841C36.1189 34.8111 37.5699 33.7331 39.2799 33.0341C40.5629 32.5091 41.8959 32.2311 43.2829 32.2021C44.8509 32.1661 46.3999 32.3211 47.9249 32.6941C50.2589 33.2671 52.2809 34.4021 54.0219 36.0541C55.2129 37.1891 56.2209 38.4731 57.1579 39.8171C58.1519 41.2421 59.065 42.7191 60.007 44.1791C61.069 45.8231 62.1649 47.4411 63.3899 48.9711C64.6099 50.4961 65.9559 51.9031 67.4259 53.1901C69.2039 54.7471 70.7819 56.4801 72.1259 58.4261C73.2719 60.0951 74.2059 61.8701 74.8579 63.7881C75.3659 65.2821 75.6849 66.8101 75.7659 68.3891C75.8909 70.7871 75.4769 73.0801 74.3889 75.2371C73.3819 77.2361 71.9239 78.8411 70.0929 80.1161C68.7469 81.0531 67.2949 81.7651 65.6959 82.1611C65.1299 82.3031 64.5549 82.4051 63.9739 82.4611C63.8929 82.4691 63.8149 82.4841 63.7369 82.4961C63.6609 82.5391 63.5769 82.5071 63.4969 82.5171C63.4309 82.5261 63.3609 82.4961 63.2979 82.5381C62.8019 82.5381 62.3039 82.5381 61.8079 82.5381C61.7489 82.4951 61.6819 82.5251 61.6189 82.5171C61.5609 82.5171 61.5059 82.5171 61.4489 82.5171C61.4019 82.5171 61.3509 82.5171 61.3049 82.5171C60.0339 82.4761 58.7999 82.2111 57.5699 81.9261C55.4859 81.4401 53.4429 80.8011 51.3699 80.2731C49.6909 79.8471 47.9979 79.5011 46.2749 79.3041C45.0809 79.1671 43.8839 79.1521 42.6899 79.1931C41.7349 79.2251 40.7869 79.3721 39.8479 79.5471C37.9939 79.8961 36.1769 80.3951 34.3589 80.8911C32.4359 81.4191 30.5129 81.9441 28.5439 82.2661C27.7429 82.3951 26.9409 82.5061 26.1269 82.4981C25.9599 82.4961 25.7939 82.5211 25.6249 82.5171C25.4099 82.5051 25.1979 82.5431 24.9859 82.4941Z" />
        <path fill-rule="evenodd" clip-rule="evenodd" d="M61.723 0.0359993C64.403 0.357999 66.45 1.72 68.014 3.868C69.086 5.341 69.76 6.993 70.178 8.759C70.535 10.28 70.67 11.824 70.619 13.386C70.525 16.256 69.851 18.982 68.605 21.568C67.742 23.36 66.628 24.976 65.208 26.37C63.943 27.609 62.512 28.599 60.842 29.216C59.669 29.649 58.463 29.863 57.213 29.789C55.049 29.664 53.212 28.804 51.668 27.302C50.352 26.02 49.455 24.47 48.834 22.754C48.4 21.554 48.129 20.317 47.988 19.052C47.89 18.185 47.851 17.317 47.879 16.449C47.943 14.4 48.311 12.405 48.977 10.468C49.684 8.406 50.686 6.505 52.054 4.805C53.205 3.375 54.55 2.166 56.164 1.273C57.35 0.616 58.613 0.191 59.965 0.0380001C60.006 0.0150001 60.051 0.0249994 60.093 0.0219994C60.136 0.0219994 60.179 0.0219994 60.221 0.0219994C60.283 0.0139994 60.349 0.044 60.404 0C60.699 0 60.989 0 61.282 0C61.339 0.045 61.403 0.0149994 61.465 0.0219994C61.509 0.0219994 61.55 0.0219994 61.594 0.0219994C61.635 0.0229994 61.681 0.0119993 61.723 0.0359993Z" />
        <path fill-rule="evenodd" clip-rule="evenodd" d="M0.0809999 31.6811C0.123 30.8631 0.27 30.0601 0.485 29.2701C0.901 27.7351 1.582 26.3361 2.643 25.1381C3.829 23.8011 5.295 22.9361 7.051 22.5871C8.477 22.3051 9.884 22.4261 11.267 22.8521C12.857 23.3431 14.263 24.1781 15.513 25.2651C17.455 26.9481 18.847 29.0191 19.811 31.3891C20.315 32.6301 20.664 33.9151 20.857 35.2401C20.951 35.8831 20.996 36.5301 21.009 37.1801C21.032 38.4141 20.908 39.6281 20.602 40.8221C20.194 42.4151 19.507 43.8651 18.412 45.1061C17.155 46.5301 15.588 47.4161 13.71 47.7211C12.332 47.9451 10.977 47.7941 9.651 47.3661C7.868 46.7871 6.34 45.7931 4.994 44.5061C3.681 43.2541 2.638 41.8001 1.825 40.1831C1.028 38.5971 0.478 36.9251 0.213 35.1661C0.167 34.8551 0.129 34.5441 0.0869999 34.2341C0.0539999 34.0921 0.067 33.9471 0.033 33.8061C0.017 33.7471 0.0259998 33.6911 0.0229998 33.6301C0.0119998 33.5551 0.046 33.4751 0 33.4001C0 33.0201 0 32.6411 0 32.2601C0.071 32.1561 0.0360001 32.0401 0.0440001 31.9291C0.0500001 31.8461 0.0289999 31.7581 0.0809999 31.6811Z" />
        <path fill-rule="evenodd" clip-rule="evenodd" d="M18.8969 13.395C18.9059 11.132 19.2279 9.091 19.9849 7.127C20.5559 5.642 21.3399 4.284 22.4319 3.115C23.6079 1.853 25.0049 0.948004 26.6899 0.522004C28.3749 0.0940042 30.0309 0.216004 31.6589 0.805004C33.0929 1.325 34.3439 2.145 35.4549 3.18C37.2289 4.83 38.4989 6.82201 39.4039 9.05501C39.9789 10.475 40.3749 11.943 40.6009 13.456C40.7289 14.314 40.8029 15.179 40.8209 16.05C40.8399 17.146 40.7709 18.238 40.5899 19.32C40.2139 21.581 39.4469 23.687 38.0789 25.549C37.2279 26.704 36.1949 27.659 34.9269 28.347C33.5099 29.115 31.9929 29.436 30.3879 29.312C28.9369 29.201 27.5989 28.727 26.3509 27.987C24.7229 27.023 23.4049 25.723 22.3079 24.193C21.0069 22.376 20.1129 20.367 19.5469 18.208C19.2369 17.027 19.0389 15.826 18.9489 14.608C18.9129 14.151 18.8819 13.691 18.8969 13.395Z" />
        <path fill-rule="evenodd" clip-rule="evenodd" d="M89.998 33.007C89.998 33.094 89.998 33.182 89.998 33.27C89.898 35.452 89.314 37.506 88.371 39.465C87.629 41 86.682 42.399 85.51 43.639C84.006 45.233 82.261 46.476 80.186 47.222C78.943 47.669 77.663 47.889 76.34 47.816C74.387 47.706 72.682 46.998 71.248 45.666C70.064 44.565 69.283 43.211 68.791 41.687C68.348 40.321 68.169 38.913 68.214 37.479C68.311 34.326 69.308 31.46 71.035 28.837C71.618 27.949 72.287 27.129 73.037 26.379C74.58 24.842 76.344 23.66 78.433 22.99C79.621 22.612 80.835 22.439 82.079 22.536C83.979 22.683 85.636 23.402 87.026 24.713C88.28 25.896 89.071 27.357 89.549 28.997C89.813 29.903 89.967 30.83 89.998 31.775C89.998 31.863 89.998 31.952 89.998 32.04C89.988 32.362 89.989 32.684 89.998 33.007Z" />
    </symbol>

</svg>