<svg viewBox="0 0 418 399" xmlns="http://www.w3.org/2000/svg">
<path d="M208.4 398.751C160.4 398.751 112.4 398.351 64.5 398.951C37.8 399.351 17.5 389.651 6.20001 365.251C-5.19999 340.451 2.40001 318.051 19.8 299.051C49 267.151 87 249.451 126.9 235.451C157.8 224.651 159.4 219.951 139.8 194.951C110.7 157.851 101.2 116.451 114.4 70.9512C128.3 23.1512 171.4 -5.04875 219.6 0.751246C270.8 6.95125 304.9 43.9513 308.9 97.5513C311.8 136.151 299.5 169.551 275 198.951C259.8 217.251 262.9 224.051 284.4 233.551C315.3 247.151 345.8 262.051 375 278.751C387.2 285.751 397.1 297.951 405.7 309.551C419.6 328.151 421 349.051 409.4 369.651C398.3 389.351 381.1 398.751 358.4 398.751C308.4 398.551 258.4 398.651 208.4 398.751Z" />
</svg>
