<svg width="1366" height="100" viewBox="0 0 1366 100" fill="none" xmlns="http://www.w3.org/2000/svg">
<g clip-path="url(#clip0)">
<rect width="1366" height="100" fill="#F6F7F9"/>
<path d="M986.853 102.673C985.505 103.701 984.675 105.271 984.531 106.909C984.388 108.547 984.931 110.255 985.959 111.602C986.987 112.95 988.557 113.78 990.195 113.924C991.304 114.056 992.527 113.872 993.49 113.417C993.919 113.215 994.404 112.856 994.781 112.547C996.129 111.519 996.96 109.949 997.103 108.311C997.247 106.672 996.704 104.965 995.675 103.617C993.569 100.815 989.554 100.352 986.853 102.673ZM994.834 107.941C994.703 109.05 994.206 109.939 993.343 110.607C992.48 111.276 991.466 111.623 990.464 111.441C989.355 111.31 988.466 110.813 987.798 109.95C987.129 109.087 986.782 108.073 986.964 107.071C987.095 105.962 987.592 105.073 988.455 104.404C988.726 104.146 988.94 104.045 989.261 103.893C990.867 103.136 992.871 103.5 994.057 104.904C994.619 105.817 994.966 106.832 994.834 107.941Z" transform="translate(103.292 -21.2739)" fill="#DDDEE0"/>
<path d="M982.728 104.749C982.16 104.1 981.429 103.66 980.477 103.585C979.633 103.46 978.726 103.757 978.077 104.324C976.673 105.51 976.466 107.571 977.652 108.975C978.63 110.215 980.212 110.517 981.604 109.86C981.818 109.759 982.032 109.658 982.303 109.4C983.6 108.264 983.806 106.204 982.728 104.749ZM981.034 106.987C981.028 107.252 980.865 107.46 980.701 107.668C980.323 107.977 979.794 107.965 979.434 107.48C979.125 107.102 979.137 106.573 979.622 106.213C979.786 106.005 980.051 106.011 980.315 106.017C980.58 106.024 980.788 106.187 980.996 106.351C981.204 106.515 981.04 106.723 981.034 106.987Z" transform="translate(103.292 -21.2739)" fill="#DDDEE0"/>
<path d="M984.257 102.719C984.471 102.618 984.685 102.517 984.956 102.258C986.36 101.073 986.566 99.012 985.381 97.6077C984.195 96.2035 982.134 95.9972 980.73 97.1829C980.081 97.7505 979.641 98.4818 979.566 99.4333C979.441 100.278 979.738 101.185 980.305 101.833C981.39 103.024 982.972 103.325 984.257 102.719ZM982.049 99.7023C982.055 99.4377 982.219 99.2296 982.382 99.0215C982.489 98.9711 982.489 98.9711 982.596 98.9206C982.704 98.8701 982.918 98.7691 983.075 98.8257C983.34 98.8318 983.548 98.9954 983.756 99.1591C984.065 99.5369 984.053 100.066 983.568 100.426C983.19 100.735 982.661 100.723 982.301 100.238C981.986 100.125 981.992 99.8599 982.049 99.7023Z" transform="translate(103.292 -21.2739)" fill="#DDDEE0"/>
<path d="M989.623 99.6647C990.203 99.784 990.788 99.6386 991.324 99.3862C991.538 99.2852 991.859 99.1337 992.023 98.9256C993.427 97.7399 993.633 95.6793 992.448 94.275C991.88 93.6265 991.149 93.186 990.197 93.1111C989.353 92.9857 988.446 93.2826 987.797 93.8502C987.149 94.4178 986.708 95.1491 986.633 96.1006C986.508 96.9451 986.805 97.8522 987.372 98.5008C987.94 99.1494 988.722 99.697 989.623 99.6647ZM989.009 96.4201C989.015 96.1555 989.179 95.9474 989.342 95.7393C989.449 95.6889 989.449 95.6889 989.557 95.6384C989.664 95.5879 989.878 95.4869 990.035 95.5435C990.3 95.5496 990.508 95.7132 990.716 95.8769C991.025 96.2547 991.013 96.784 990.528 97.1436C990.15 97.4526 989.621 97.4404 989.261 96.9555C989.053 96.7919 988.952 96.5777 989.009 96.4201Z" transform="translate(103.292 -21.2739)" fill="#DDDEE0"/>
<path d="M997.502 95.5568C996.658 95.4314 995.751 95.7283 995.102 96.2959C994.454 96.8635 994.013 97.5948 993.938 98.5463C993.813 99.3908 994.11 100.298 994.677 100.946C995.655 102.187 997.237 102.488 998.629 101.832C998.843 101.731 999.057 101.63 999.328 101.371C999.976 100.804 1000.42 100.072 1000.49 99.1209C1000.57 98.1694 1000.32 97.3693 999.753 96.7207C999.135 95.9651 998.403 95.5246 997.502 95.5568ZM997.783 99.4822C997.405 99.7912 996.875 99.779 996.516 99.2941C996.415 99.08 996.314 98.8658 996.32 98.6012C996.326 98.3365 996.49 98.1284 996.653 97.9204C996.761 97.8699 996.761 97.8699 996.868 97.8194C996.975 97.7689 997.189 97.6679 997.346 97.7245C997.611 97.7306 997.819 97.8943 998.027 98.0579C998.28 98.5933 998.16 99.1731 997.783 99.4822Z" transform="translate(103.292 -21.2739)" fill="#DDDEE0"/>
<path d="M1015.59 71.1885C1012.03 67.2405 984.787 79.694 979.326 82.2691C970.438 86.4601 962.395 90.7764 956.43 94.505C948.155 99.7162 947.205 101.866 947.597 103.252L950.397 131.119C950.448 131.226 950.391 131.384 950.442 131.491C951.149 132.99 953.613 134.053 965.778 130.15C974.049 127.427 984.795 123.014 995.932 117.763C1007.07 112.512 1017.2 107.079 1024.67 102.378C1035.53 95.4261 1036.22 93.0059 1035.46 91.3997C1035.41 91.2926 1035.36 91.1855 1035.2 91.1289L1015.59 71.1885ZM980.335 84.4107C998.111 76.0289 1010.59 72.2384 1013.5 72.5701C1012.01 74.972 1001.04 82.2395 983.264 90.6214C965.489 99.0032 953.009 102.794 950.104 102.462C951.747 100.117 962.56 92.7926 980.335 84.4107ZM995.13 115.785C971.465 126.944 955.42 131.5 952.899 130.594L950.314 104.85C952.059 104.943 955.039 104.323 960.375 102.593C967.046 100.363 975.493 96.9034 984.381 92.7125C993.269 88.5216 1001.31 84.2053 1007.28 80.4766C1012.01 77.461 1014.27 75.6067 1015.42 74.1502L1033.64 92.5227C1032.52 95.1449 1018.79 104.626 995.13 115.785Z" transform="translate(103.292 -21.2739)" fill="#DDDEE0"/>
<path d="M1082.3 21.4374C1083.04 19.3131 1082.94 17.004 1081.93 14.972C1080.91 12.9401 1079.25 11.4623 1077.13 10.7234C1075 9.98448 1072.69 10.1692 1070.75 11.1852C1066.87 13.1248 1065.21 17.6505 1066.6 21.5298L1042.21 33.6292C1039.9 30.1195 1035.28 28.734 1031.41 30.6736C1029.37 31.6896 1027.9 33.3521 1027.16 35.4765C1026.42 37.6008 1026.6 39.9098 1027.62 41.8494C1028.63 43.8814 1030.39 45.3592 1032.51 46.0981C1031.78 48.2224 1031.87 50.5315 1032.88 52.5635C1033.9 54.5954 1035.56 56.0732 1037.69 56.8121C1038.52 57.0892 1039.44 57.2739 1040.36 57.2739C1041.66 57.2739 1042.95 56.9969 1044.06 56.3503C1046.09 55.3343 1047.57 53.6718 1048.31 51.5475C1048.95 49.7002 1048.86 47.7606 1048.22 45.9134L1072.51 33.8139C1074.82 37.4161 1079.43 38.7091 1083.31 36.8619C1087.47 34.8299 1089.13 29.75 1087.1 25.5937C1086.18 23.6541 1084.42 22.0839 1082.3 21.4374ZM1082.57 35.1994C1079.34 36.7695 1075.46 35.4765 1073.8 32.2438V32.1514C1073.71 31.9667 1073.52 31.782 1073.25 31.6896C1072.97 31.5972 1072.78 31.5972 1072.51 31.782L1046.65 44.6203C1046.46 44.7127 1046.28 44.9898 1046.18 45.1745C1046.09 45.3592 1046.09 45.7287 1046.28 45.9134C1047.02 47.4835 1047.2 49.2384 1046.65 50.9009C1046.09 52.5635 1044.89 53.8565 1043.32 54.6878C1041.75 55.4267 1040 55.6114 1038.33 55.0572C1036.67 54.5031 1035.38 53.3024 1034.55 51.7322C1033.62 49.885 1033.62 47.7606 1034.55 45.9134C1034.64 45.6363 1034.64 45.3592 1034.55 45.0821C1034.45 44.805 1034.18 44.6203 1033.9 44.6203C1031.87 44.2509 1030.11 42.9578 1029.19 41.1106C1028.45 39.5404 1028.27 37.7855 1028.82 36.123C1029.37 34.4605 1030.57 33.1674 1032.14 32.3361C1033.07 31.8743 1034.08 31.6896 1035.01 31.6896C1035.75 31.6896 1036.39 31.782 1037.13 32.0591C1038.79 32.6132 1040.09 33.8139 1040.92 35.3841C1041.1 35.8459 1041.66 36.0306 1042.12 35.7535L1067.98 22.9152C1068.44 22.7305 1068.63 22.1763 1068.44 21.7145C1066.87 18.4818 1068.17 14.6026 1071.4 12.9401C1072.97 12.2012 1074.72 12.0164 1076.39 12.5706C1078.05 13.1248 1079.34 14.3255 1080.17 15.8957C1081.1 17.7429 1081.1 19.8672 1080.17 21.7145C1080.08 21.9916 1080.08 22.2687 1080.17 22.5457C1080.27 22.8228 1080.54 23.0076 1080.82 23.0076C1082.85 23.377 1084.61 24.6701 1085.53 26.5173C1087.1 29.6576 1085.81 33.6292 1082.57 35.1994Z" transform="translate(103.292 -21.2739)" fill="#DDDEE0"/>
<path d="M191.619 22.297C192.282 20.3897 192.199 18.3165 191.287 16.4921C190.375 14.6677 188.882 13.3409 186.975 12.6775C185.068 12.014 182.994 12.1799 181.253 13.0921C177.77 14.8336 176.277 18.897 177.521 22.38L155.628 33.2434C153.555 30.0922 149.409 28.8483 145.926 30.5898C144.101 31.502 142.775 32.9947 142.111 34.902C141.448 36.8093 141.614 38.8825 142.526 40.624C143.438 42.4484 145.014 43.7752 146.921 44.4386C146.258 46.346 146.341 48.4191 147.253 50.2435C148.165 52.068 149.658 53.3948 151.565 54.0582C152.311 54.307 153.141 54.4728 153.97 54.4728C155.131 54.4728 156.292 54.2241 157.287 53.6436C159.111 52.7314 160.438 51.2387 161.102 49.3314C161.682 47.6728 161.599 45.9313 161.019 44.2728L182.829 33.4093C184.902 36.6435 189.048 37.8045 192.531 36.1459C196.263 34.3215 197.755 29.7605 195.931 26.0288C195.102 24.2873 193.526 22.8775 191.619 22.297ZM191.868 34.6532C188.965 36.063 185.482 34.902 183.99 31.9995V31.9166C183.907 31.7508 183.741 31.5849 183.492 31.502C183.243 31.419 183.077 31.419 182.829 31.5849L159.609 43.1118C159.443 43.1947 159.277 43.4435 159.194 43.6094C159.111 43.7752 159.111 44.1069 159.277 44.2728C159.941 45.6825 160.106 47.2582 159.609 48.7509C159.111 50.2435 158.033 51.4045 156.624 52.1509C155.214 52.8143 153.638 52.9801 152.145 52.4826C150.653 51.985 149.492 50.907 148.745 49.4972C147.916 47.8387 147.916 45.9313 148.745 44.2728C148.828 44.024 148.828 43.7752 148.745 43.5264C148.662 43.2777 148.414 43.1118 148.165 43.1118C146.341 42.7801 144.765 41.6191 143.936 39.9606C143.272 38.5508 143.106 36.9752 143.604 35.4825C144.101 33.9898 145.18 32.8288 146.589 32.0825C147.419 31.6678 148.331 31.502 149.16 31.502C149.823 31.502 150.404 31.5849 151.067 31.8337C152.56 32.3312 153.721 33.4093 154.467 34.8191C154.633 35.2337 155.131 35.3996 155.545 35.1508L178.765 23.6239C179.18 23.458 179.346 22.9605 179.18 22.5458C177.77 19.6434 178.931 16.1604 181.833 14.6677C183.243 14.0043 184.819 13.8385 186.311 14.336C187.804 14.8336 188.965 15.9116 189.712 17.3214C190.541 18.9799 190.541 20.8873 189.712 22.5458C189.629 22.7946 189.629 23.0434 189.712 23.2922C189.794 23.5409 190.043 23.7068 190.292 23.7068C192.116 24.0385 193.692 25.1995 194.521 26.858C195.931 29.6776 194.77 33.2434 191.868 34.6532Z" transform="translate(103.292 -21.2739)" fill="#DDDEE0"/>
<path d="M1144.33 106.96L1183.81 85.0787C1184.42 84.742 1184.6 84.1127 1184.26 83.5052L1161.04 41.5929C1160.81 41.188 1160.44 40.9965 1160.02 40.9623L1134.17 40.8679C1133.75 40.8337 1133.35 41.0581 1133.16 41.4289L1119.53 63.4043C1119.34 63.7751 1119.3 64.191 1119.53 64.5959L1142.76 106.508C1143.04 107.014 1143.82 107.24 1144.33 106.96ZM1153.33 99.3243L1142.95 80.5954C1140.03 75.3311 1141.97 68.5653 1147.24 65.6479C1152.5 62.7304 1159.27 64.6711 1162.19 69.9355L1172.57 88.6644L1153.33 99.3243ZM1121.89 64.0813L1134.78 43.1732L1159.35 43.3224L1181.68 83.615L1174.59 87.5423L1164.21 68.8134C1160.68 62.4354 1152.5 60.0885 1146.12 63.6231C1139.74 67.1577 1137.39 75.3395 1140.93 81.7175L1151.31 100.446L1144.22 104.374L1121.89 64.0813Z" transform="translate(103.292 -21.2739)" fill="#DDDEE0"/>
<path d="M1168.85 35.5987L1131.7 35.4138C1131.28 35.3796 1130.88 35.604 1130.69 35.9748L1111.15 67.5785C1110.81 68.1627 1110.94 68.8823 1111.53 69.2202C1112.11 69.5581 1112.83 69.4239 1113.17 68.8397L1132.31 37.719L1168.79 37.8807C1169.05 37.8698 1169.15 37.8137 1169.36 37.7015C1169.76 37.477 1169.95 37.1062 1169.99 36.6903C1169.97 36.1732 1169.53 35.6218 1168.85 35.5987Z" transform="translate(103.292 -21.2739)" fill="#DDDEE0"/>
<path d="M146.085 90.3582L143.734 91.4297L134.069 76.0536C133.82 75.709 133.379 75.5439 133 75.7168L118.289 82.4225L116.63 78.7828C116.423 78.3278 115.981 78.1628 115.526 78.3702L103.242 83.9698C102.787 84.1772 102.622 84.6188 102.83 85.0737L104.489 88.7134L89.7786 95.4191C89.3995 95.5919 89.2345 96.0335 89.3315 96.4472L94.5986 113.828L92.248 114.9C91.793 115.107 91.628 115.549 91.8354 116.004C92.0428 116.459 92.4844 116.624 92.9393 116.416L95.2899 115.345L104.955 130.721C105.204 131.065 105.645 131.23 106.024 131.058L149.246 111.355C149.625 111.182 149.79 110.741 149.693 110.327L144.426 92.9462L146.776 91.8747C147.231 91.6673 147.396 91.2257 147.189 90.7708C146.981 90.3158 146.54 90.1508 146.085 90.3582ZM104.692 85.1407L115.459 80.2324L116.773 83.1138L106.006 88.0221L104.692 85.1407ZM91.1524 96.6245L133.009 77.5444L142.142 92.1556L96.191 113.102L91.1524 96.6245ZM147.948 110.115L106.016 129.23L96.8823 114.619L142.909 93.6375L147.948 110.115Z" transform="translate(103.292 -21.2739)" fill="#DDDEE0"/>
<path d="M98.2002 96.6173C97.7453 96.8246 97.5802 97.2662 97.7876 97.7212L101.659 106.214C101.866 106.669 102.308 106.834 102.763 106.626C103.218 106.419 103.383 105.977 103.175 105.522L99.3041 97.0299C99.1313 96.6507 98.6552 96.4099 98.2002 96.6173Z" transform="translate(103.292 -21.2739)" fill="#DDDEE0"/>
<path d="M103.356 94.2662C102.902 94.4736 102.736 94.9151 102.944 95.3701L106.815 103.863C107.023 104.318 107.464 104.483 107.919 104.275C108.374 104.068 108.539 103.626 108.332 103.171L104.46 94.6788C104.288 94.2997 103.811 94.0588 103.356 94.2662Z" transform="translate(103.292 -21.2739)" fill="#DDDEE0"/>
<path d="M108.513 91.9161C108.058 92.1235 107.893 92.565 108.1 93.02L111.971 101.513C112.179 101.968 112.62 102.133 113.075 101.925C113.53 101.718 113.695 101.276 113.488 100.821L109.617 92.3287C109.444 91.9496 108.892 91.7433 108.513 91.9161Z" transform="translate(103.292 -21.2739)" fill="#DDDEE0"/>
<path d="M113.593 89.6C113.138 89.8074 112.973 90.249 113.18 90.704L117.052 99.1965C117.259 99.6515 117.701 99.8165 118.156 99.6092C118.611 99.4018 118.776 98.9602 118.568 98.5052L114.697 90.0126C114.524 89.6335 114.048 89.3927 113.593 89.6Z" transform="translate(103.292 -21.2739)" fill="#DDDEE0"/>
<path d="M118.673 87.284C118.218 87.4914 118.053 87.933 118.261 88.3879L122.132 96.8805C122.339 97.3355 122.781 97.5005 123.236 97.2931C123.691 97.0857 123.856 96.6441 123.648 96.1892L119.777 87.6966C119.604 87.3175 119.128 87.0766 118.673 87.284Z" transform="translate(103.292 -21.2739)" fill="#DDDEE0"/>
<path d="M123.829 84.9339C123.374 85.1413 123.209 85.5829 123.417 86.0378L127.288 94.5304C127.495 94.9854 127.937 95.1504 128.392 94.943C128.847 94.7356 129.012 94.294 128.805 93.8391L124.933 85.3465C124.76 84.9674 124.284 84.7265 123.829 84.9339Z" transform="translate(103.292 -21.2739)" fill="#DDDEE0"/>
<path d="M128.986 82.5833C128.531 82.7907 128.366 83.2323 128.573 83.6872L132.444 92.1798C132.652 92.6348 133.093 92.7998 133.548 92.5924C134.003 92.385 134.168 91.9435 133.961 91.4885L130.09 82.9959C129.917 82.6168 129.365 82.4105 128.986 82.5833Z" transform="translate(103.292 -21.2739)" fill="#DDDEE0"/>
<path d="M110.575 123.763C111.03 123.555 111.195 123.114 110.988 122.659L107.116 114.166C106.909 113.711 106.467 113.546 106.012 113.754C105.557 113.961 105.392 114.403 105.6 114.858L109.471 123.35C109.678 123.805 110.196 123.936 110.575 123.763Z" transform="translate(103.292 -21.2739)" fill="#DDDEE0"/>
<path d="M115.731 121.413C116.186 121.205 116.351 120.764 116.144 120.309L112.273 111.816C112.065 111.361 111.624 111.196 111.169 111.404C110.714 111.611 110.549 112.053 110.756 112.508L114.627 121C114.835 121.455 115.276 121.62 115.731 121.413Z" transform="translate(103.292 -21.2739)" fill="#DDDEE0"/>
<path d="M120.888 119.062C121.342 118.854 121.508 118.413 121.3 117.958L117.429 109.465C117.221 109.01 116.78 108.845 116.325 109.053C115.87 109.26 115.705 109.702 115.912 110.156L119.784 118.649C119.991 119.104 120.433 119.269 120.888 119.062Z" transform="translate(103.292 -21.2739)" fill="#DDDEE0"/>
<path d="M125.968 116.746C126.423 116.538 126.588 116.097 126.38 115.642L122.509 107.149C122.302 106.694 121.86 106.529 121.405 106.737C120.95 106.944 120.785 107.386 120.993 107.841L124.864 116.333C125.071 116.788 125.513 116.953 125.968 116.746Z" transform="translate(103.292 -21.2739)" fill="#DDDEE0"/>
<path d="M131.048 114.431C131.503 114.223 131.668 113.782 131.461 113.327L127.589 104.834C127.382 104.379 126.94 104.214 126.486 104.421C126.031 104.629 125.865 105.07 126.073 105.525L129.944 114.018C130.152 114.473 130.669 114.603 131.048 114.431Z" transform="translate(103.292 -21.2739)" fill="#DDDEE0"/>
<path d="M136.204 112.079C136.659 111.872 136.824 111.431 136.617 110.976L132.746 102.483C132.538 102.028 132.097 101.863 131.642 102.07C131.187 102.278 131.022 102.719 131.229 103.174L135.1 111.667C135.308 112.122 135.749 112.287 136.204 112.079Z" transform="translate(103.292 -21.2739)" fill="#DDDEE0"/>
<path d="M141.361 109.729C141.816 109.522 141.981 109.08 141.773 108.625L137.902 100.133C137.695 99.6779 137.253 99.5129 136.798 99.7203C136.343 99.9277 136.178 100.369 136.385 100.824L140.257 109.317C140.464 109.772 140.906 109.937 141.361 109.729Z" transform="translate(103.292 -21.2739)" fill="#DDDEE0"/>
<path d="M28.3497 79.7534C28.5497 80.1702 29.0503 80.3461 29.4671 80.146L70.4301 60.4847C70.8469 60.2847 71.0228 59.7841 70.8227 59.3673L66.4939 50.3485C65.7731 39.8451 60.3902 29.1121 55.9896 21.9412C51.5478 14.7036 47.1815 9.53576 46.5543 8.80568L42.5556 0.474759C42.4596 0.274678 42.2879 0.120198 42.0782 0.0471393C41.8685 -0.0259199 41.6383 -0.0139041 41.4382 0.0821304L0.475208 19.7435C0.0584351 19.9435 -0.117463 20.4441 0.0825789 20.8609L4.08123 29.1918C4.25925 30.1375 5.55936 36.777 8.42773 44.7698C11.2692 52.6891 16.2772 63.603 24.0209 70.7347L28.3497 79.7534ZM29.4973 78.2736L25.8129 70.5973L65.2658 51.6607L68.9503 59.3371L29.4973 78.2736ZM41.4087 1.95421L44.7612 8.93892L5.30753 27.8758L1.95538 20.8919L41.4087 1.95421ZM5.84507 29.4757L45.674 10.3587C48.4715 13.7175 63.3522 32.3548 64.7819 50.0351L24.8487 69.2021C11.9553 57.0334 6.71685 33.7597 5.84507 29.4757Z" transform="translate(103.292 -21.2739)" fill="#DDDEE0"/>
<path d="M40.9048 9.04801C41.3216 8.84797 41.4975 8.34737 41.2975 7.93059L40.165 5.57115C39.9649 5.15437 39.4643 4.97848 39.0476 5.17852C38.6308 5.37856 38.4549 5.87916 38.6549 6.29593L39.7874 8.65538C39.9875 9.07215 40.4881 9.24805 40.9048 9.04801Z" transform="translate(103.292 -21.2739)" fill="#DDDEE0"/>
<path d="M36.7983 11.019C37.215 10.8189 37.3909 10.3183 37.1909 9.90154L36.0584 7.54209C35.8584 7.12532 35.3578 6.94942 34.941 7.14946C34.5242 7.34951 34.3483 7.85011 34.5484 8.26688L35.6809 10.6263C35.8809 11.0431 36.3807 11.2194 36.7983 11.019Z" transform="translate(103.292 -21.2739)" fill="#DDDEE0"/>
<path d="M32.6916 12.99C33.1084 12.79 33.2843 12.2894 33.0842 11.8726L31.9517 9.51316C31.7517 9.09639 31.2511 8.92049 30.8343 9.12053C30.4175 9.32058 30.2416 9.82118 30.4417 10.238L31.5742 12.5974C31.7742 13.0142 32.2748 13.1901 32.6916 12.99Z" transform="translate(103.292 -21.2739)" fill="#DDDEE0"/>
<path d="M28.5839 14.9616C29.0007 14.7615 29.1766 14.2609 28.9765 13.8442L27.8441 11.4847C27.644 11.0679 27.1434 10.892 26.7266 11.0921C26.3099 11.2921 26.134 11.7927 26.334 12.2095L27.4665 14.569C27.6665 14.9857 28.1671 15.1616 28.5839 14.9616Z" transform="translate(103.292 -21.2739)" fill="#DDDEE0"/>
<path d="M24.477 16.9327C24.8938 16.7326 25.0697 16.232 24.8696 15.8152L23.7371 13.4558C23.5371 13.039 23.0365 12.8631 22.6197 13.0632C22.2029 13.2632 22.027 13.7638 22.2271 14.1806L23.3596 16.54C23.5596 16.9568 24.0602 17.1327 24.477 16.9327Z" transform="translate(103.292 -21.2739)" fill="#DDDEE0"/>
<path d="M20.3696 18.904C20.7863 18.7039 20.9622 18.2033 20.7622 17.7866L19.6297 15.4271C19.4297 15.0103 18.9291 14.8344 18.5123 15.0345C18.0955 15.2345 17.9196 15.7351 18.1197 16.1519L19.2521 18.5113C19.4522 18.9281 19.9528 19.104 20.3696 18.904Z" transform="translate(103.292 -21.2739)" fill="#DDDEE0"/>
<path d="M16.2629 20.8752C16.6796 20.6751 16.8555 20.1745 16.6555 19.7577L15.523 17.3983C15.323 16.9815 14.8224 16.8056 14.4056 17.0057C13.9888 17.2057 13.8129 17.7063 14.013 18.1231L15.1455 20.4825C15.3455 20.8993 15.8461 21.0752 16.2629 20.8752Z" transform="translate(103.292 -21.2739)" fill="#DDDEE0"/>
<path d="M12.1561 22.8462C12.5728 22.6462 12.7487 22.1456 12.5487 21.7288L11.4162 19.3694C11.2162 18.9526 10.7156 18.7767 10.2988 18.9767C9.88202 19.1768 9.70612 19.6774 9.90616 20.0942L11.0386 22.4536C11.2387 22.8704 11.7385 23.0466 12.1561 22.8462Z" transform="translate(103.292 -21.2739)" fill="#DDDEE0"/>
<path d="M8.04864 24.8177C8.46541 24.6176 8.64131 24.117 8.44127 23.7002L7.30878 21.3408C7.10874 20.924 6.60814 20.7481 6.19137 20.9482C5.77459 21.1482 5.5987 21.6488 5.79874 22.0656L6.93122 24.425C7.13126 24.8418 7.63186 25.0177 8.04864 24.8177Z" transform="translate(103.292 -21.2739)" fill="#DDDEE0"/>
<path d="M63.0108 55.1033C62.5941 55.3034 62.4182 55.804 62.6182 56.2207L63.7507 58.5802C63.9507 58.997 64.4513 59.1729 64.8681 58.9728C65.2849 58.7728 65.4608 58.2722 65.2607 57.8554L64.1282 55.496C63.9282 55.0792 63.4276 54.9033 63.0108 55.1033Z" transform="translate(103.292 -21.2739)" fill="#DDDEE0"/>
<path d="M58.9041 57.0744C58.4874 57.2744 58.3115 57.775 58.5115 58.1918L59.644 60.5513C59.844 60.968 60.3446 61.1439 60.7614 60.9439C61.1782 60.7438 61.3541 60.2432 61.154 59.8265L60.0216 57.467C59.8215 57.0502 59.3209 56.8743 58.9041 57.0744Z" transform="translate(103.292 -21.2739)" fill="#DDDEE0"/>
<path d="M54.7974 59.0456C54.3807 59.2456 54.2048 59.7462 54.4048 60.163L55.5373 62.5224C55.7373 62.9392 56.2379 63.1151 56.6547 62.9151C57.0715 62.715 57.2474 62.2144 57.0473 61.7977L55.9149 59.4382C55.7148 59.0214 55.2142 58.8455 54.7974 59.0456Z" transform="translate(103.292 -21.2739)" fill="#DDDEE0"/>
<path d="M50.6898 61.0169C50.273 61.2169 50.0971 61.7175 50.2972 62.1343L51.4296 64.4938C51.6297 64.9105 52.1303 65.0864 52.5471 64.8864C52.9638 64.6863 53.1397 64.1857 52.9397 63.769L51.8072 61.4095C51.6072 60.9928 51.1073 60.8165 50.6898 61.0169Z" transform="translate(103.292 -21.2739)" fill="#DDDEE0"/>
<path d="M46.5831 62.988C46.1663 63.188 45.9904 63.6886 46.1905 64.1054L47.3229 66.4648C47.523 66.8816 48.0236 67.0575 48.4404 66.8575C48.8571 66.6574 49.033 66.1568 48.833 65.74L47.7005 63.3806C47.5005 62.9638 46.9999 62.7879 46.5831 62.988Z" transform="translate(103.292 -21.2739)" fill="#DDDEE0"/>
<path d="M42.4754 64.9595C42.0587 65.1596 41.8828 65.6602 42.0828 66.0769L43.2153 68.4364C43.4153 68.8532 43.9159 69.0291 44.3327 68.829C44.7495 68.629 44.9254 68.1284 44.7253 67.7116L43.5928 65.3521C43.3928 64.9354 42.893 64.7591 42.4754 64.9595Z" transform="translate(103.292 -21.2739)" fill="#DDDEE0"/>
<path d="M38.3687 66.9306C37.952 67.1306 37.7761 67.6312 37.9761 68.048L39.1086 70.4075C39.3086 70.8242 39.8092 71.0001 40.226 70.8001C40.6428 70.6 40.8187 70.0994 40.6186 69.6827L39.4862 67.3232C39.2861 66.9064 38.7855 66.7306 38.3687 66.9306Z" transform="translate(103.292 -21.2739)" fill="#DDDEE0"/>
<path d="M34.2622 68.9015C33.8454 69.1016 33.6695 69.6022 33.8695 70.019L35.002 72.3784C35.2021 72.7952 35.7027 72.9711 36.1194 72.771C36.5362 72.571 36.7121 72.0704 36.5121 71.6536L35.3796 69.2942C35.1795 68.8774 34.6789 68.7015 34.2622 68.9015Z" transform="translate(103.292 -21.2739)" fill="#DDDEE0"/>
<path d="M30.1545 70.8731C29.7377 71.0731 29.5618 71.5737 29.7619 71.9905L30.8944 74.35C31.0944 74.7667 31.595 74.9426 32.0118 74.7426C32.4285 74.5426 32.6044 74.0419 32.4044 73.6252L31.2719 71.2657C31.0719 70.849 30.5713 70.6731 30.1545 70.8731Z" transform="translate(103.292 -21.2739)" fill="#DDDEE0"/>
<path d="M21.881 50.2171C23.0443 52.6408 25.9629 53.6663 28.3866 52.503C30.5557 51.4619 31.6044 49.0151 30.9591 46.7572L43.6888 40.6472C45.0349 42.5576 47.6087 43.2768 49.7839 42.2328C52.2075 41.0695 53.2331 38.1508 52.0698 35.7272C51.544 34.6316 50.6558 33.7973 49.5596 33.3425C49.8908 32.2035 49.795 30.9879 49.2696 29.8931C48.1063 27.4695 45.1876 26.4439 42.764 27.6072C40.5971 28.6473 39.5481 31.0895 40.1806 33.3266L27.4449 39.4395C26.0944 37.547 23.5328 36.8378 21.3666 37.8775C18.943 39.0407 17.9175 41.9594 19.0807 44.3831C19.6066 45.4786 20.4951 46.3137 21.5906 46.767C21.2594 47.906 21.3551 49.1216 21.881 50.2171ZM22.8651 45.4102C21.8602 45.2135 21.0307 44.5749 20.5904 43.6575C19.8269 42.0667 20.5002 40.1503 22.0911 39.3868C23.6819 38.6232 25.5983 39.2965 26.3618 40.8874C26.5619 41.3042 27.0625 41.4801 27.4792 41.28L41.5944 34.5051C42.0112 34.305 42.1871 33.8044 41.987 33.3876C41.2235 31.7968 41.8968 29.8804 43.4876 29.1169C45.0785 28.3533 46.9948 29.0267 47.7584 30.6175C48.1984 31.5341 48.1785 32.5804 47.7031 33.4886C47.5805 33.7229 47.5757 34.0012 47.6902 34.2398C47.8043 34.4776 48.0248 34.6486 48.284 34.6989C49.2899 34.896 50.119 35.5357 50.5586 36.4516C51.3222 38.0424 50.6488 39.9588 49.058 40.7223C47.4672 41.4859 45.5508 40.8125 44.7872 39.2217L44.7753 39.1968C44.5752 38.78 44.0746 38.6041 43.6579 38.8042L29.5427 45.5791C29.1259 45.7792 28.962 46.3047 29.1624 46.7222C29.926 48.313 29.2526 50.2294 27.6618 50.993C26.0709 51.7565 24.1546 51.0832 23.391 49.4923C22.9511 48.5757 22.9706 47.5287 23.4464 46.6213C23.5693 46.3877 23.5738 46.1087 23.4596 45.8708C23.3447 45.6315 23.1246 45.4612 22.8651 45.4102Z" transform="translate(103.292 -21.2739)" fill="#DDDEE0"/>
<path d="M542.158 133.012C544.53 131.662 545.524 128.81 544.613 126.307L558.532 118.382C560.207 120.437 563.175 121.046 565.554 119.692C568.204 118.183 569.132 114.799 567.623 112.149C566.941 110.951 565.87 110.077 564.594 109.65C564.877 108.335 564.673 106.967 563.992 105.77C562.483 103.12 559.099 102.191 556.448 103.7C554.08 105.048 553.087 107.895 553.98 110.376L540.055 118.304C538.377 116.27 535.422 115.671 533.053 117.02C530.403 118.529 529.474 121.913 530.983 124.563C531.665 125.761 532.737 126.635 534.012 127.061C533.729 128.376 533.933 129.744 534.615 130.942C536.124 133.592 539.508 134.521 542.158 133.012ZM535.347 125.425C534.194 125.282 533.205 124.625 532.634 123.622C531.643 121.882 532.253 119.66 533.993 118.67C535.732 117.68 537.954 118.289 538.945 120.029C539.204 120.485 539.784 120.644 540.24 120.384L555.674 111.597C556.131 111.337 556.289 110.757 556.03 110.301C555.04 108.562 555.648 106.34 557.388 105.35C559.128 104.36 561.349 104.969 562.34 106.709C562.91 107.711 562.972 108.898 562.505 109.962C562.385 110.237 562.402 110.552 562.55 110.813C562.698 111.073 562.961 111.249 563.259 111.286C564.412 111.429 565.401 112.086 565.972 113.088C566.962 114.828 566.352 117.05 564.613 118.04C562.873 119.03 560.652 118.42 559.662 116.681L559.646 116.653C559.387 116.198 558.807 116.038 558.351 116.298L542.917 125.085C542.46 125.345 542.317 125.952 542.577 126.408C543.567 128.148 542.957 130.37 541.218 131.36C539.478 132.35 537.256 131.741 536.266 130.001C535.695 128.999 535.634 127.813 536.1 126.748C536.221 126.474 536.204 126.158 536.056 125.898C535.907 125.637 535.645 125.462 535.347 125.425Z" transform="translate(103.292 -21.2739)" fill="#DDDEE0"/>
<path d="M520.252 120.932L541.312 157.921C541.38 158.044 543.01 160.955 546.2 161.857C548.21 162.424 550.352 162.074 552.564 160.815L584.152 142.83C586.365 141.57 587.759 139.909 588.296 137.89C589.149 134.686 587.477 131.798 587.414 131.69L566.347 94.6881C564.125 90.7848 560.096 90.0449 557.35 90.0459C558.508 88.2828 558.666 85.9495 557.553 83.9945L554.626 78.8536C553.045 76.0771 549.5 75.1044 546.723 76.6856L514.787 94.8681C512.011 96.4489 511.037 99.9942 512.618 102.771L515.545 107.912C516.653 109.858 518.728 110.914 520.826 110.828C519.436 113.183 518.028 117.024 520.252 120.932ZM517.196 106.97L514.269 101.829C513.207 99.9634 513.861 97.5808 515.728 96.518L547.664 78.3355C549.53 77.2727 551.913 77.9265 552.975 79.7924L555.902 84.9333C556.964 86.7991 556.311 89.1817 554.444 90.2445L522.507 108.427C520.641 109.49 518.259 108.836 517.196 106.97ZM523.862 109.843L554.898 92.1725C555.062 92.1368 561.893 90.7074 564.695 95.6287L585.768 132.641C585.781 132.664 587.11 134.991 586.456 137.419C586.051 138.92 584.959 140.186 583.211 141.181L551.625 159.164C549.877 160.159 548.232 160.452 546.734 160.035C544.312 159.358 542.99 157.028 542.971 156.994L521.903 119.992C519.164 115.179 523.46 110.283 523.862 109.843Z" transform="translate(103.292 -21.2739)" fill="#DDDEE0"/>
<path d="M522.515 106.255C522.972 105.995 523.13 105.415 522.871 104.959L519.083 98.3067C518.824 97.8509 518.244 97.6912 517.788 97.9511C517.331 98.2111 517.173 98.791 517.432 99.2467L521.22 105.899C521.479 106.355 522.059 106.515 522.515 106.255Z" transform="translate(103.292 -21.2739)" fill="#DDDEE0"/>
<path d="M526.809 103.811C527.265 103.551 527.424 102.971 527.164 102.515L523.377 95.8627C523.117 95.407 522.537 95.2472 522.081 95.5071C521.624 95.7671 521.466 96.3471 521.725 96.8028L525.513 103.455C525.772 103.911 526.352 104.071 526.809 103.811Z" transform="translate(103.292 -21.2739)" fill="#DDDEE0"/>
<path d="M531.102 101.366C531.558 101.106 531.717 100.526 531.457 100.07L527.67 93.4179C527.41 92.9621 526.831 92.8024 526.374 93.0623C525.918 93.3223 525.759 93.9022 526.019 94.3579L529.806 101.01C530.066 101.466 530.646 101.625 531.102 101.366Z" transform="translate(103.292 -21.2739)" fill="#DDDEE0"/>
<path d="M535.396 98.9214C535.852 98.6615 536.011 98.0815 535.752 97.6258L531.964 90.9733C531.704 90.5176 531.125 90.3578 530.668 90.6177C530.212 90.8777 530.053 91.4576 530.313 91.9134L534.1 98.5659C534.36 99.0216 534.94 99.1809 535.396 98.9214Z" transform="translate(103.292 -21.2739)" fill="#DDDEE0"/>
<path d="M539.691 96.4764C540.148 96.2164 540.306 95.6365 540.047 95.1808L536.259 88.5282C536 88.0725 535.42 87.9127 534.963 88.1727C534.507 88.4326 534.348 89.0126 534.608 89.4683L538.395 96.1208C538.655 96.5766 539.234 96.7363 539.691 96.4764Z" transform="translate(103.292 -21.2739)" fill="#DDDEE0"/>
<path d="M543.984 94.0322C544.44 93.7722 544.599 93.1923 544.339 92.7365L540.552 86.084C540.292 85.6283 539.713 85.4685 539.256 85.7285C538.8 85.9884 538.641 86.5684 538.901 87.0241L542.688 93.6766C542.948 94.1323 543.527 94.2921 543.984 94.0322Z" transform="translate(103.292 -21.2739)" fill="#DDDEE0"/>
<path d="M548.278 91.5873C548.735 91.3274 548.893 90.7474 548.634 90.2917L544.846 83.6392C544.587 83.1835 544.007 83.0237 543.55 83.2836C543.094 83.5436 542.935 84.1235 543.195 84.5793L546.982 91.2318C547.242 91.6875 547.821 91.8473 548.278 91.5873Z" transform="translate(103.292 -21.2739)" fill="#DDDEE0"/>
<path d="M552.571 89.1428C553.028 88.8828 553.186 88.3029 552.927 87.8471L549.139 81.1946C548.88 80.7389 548.3 80.5791 547.844 80.8391C547.387 81.099 547.229 81.679 547.488 82.1347L551.276 88.7872C551.535 89.2429 552.115 89.4027 552.571 89.1428Z" transform="translate(103.292 -21.2739)" fill="#DDDEE0"/>
<path d="M571.2 123.762L542.777 139.945C542.321 140.204 542.162 140.784 542.422 141.24L547.717 150.54C547.976 150.996 548.556 151.156 549.012 150.896L577.435 134.714C577.891 134.454 578.05 133.874 577.79 133.418L572.495 124.118C572.236 123.662 571.656 123.503 571.2 123.762ZM575.669 133.533L548.898 148.775L544.543 141.126L571.314 125.884L575.669 133.533Z" transform="translate(103.292 -21.2739)" fill="#DDDEE0"/>
</g>
<defs>
<clipPath id="clip0">
<rect width="1366" height="100" fill="white"/>
</clipPath>
</defs>
</svg>
