<svg width="1366" height="30" viewBox="0 0 1366 30" fill="none" xmlns="http://www.w3.org/2000/svg">
<g clip-path="url(#clip0)">
<rect width="1366" height="30" fill="white"/>
<rect x="-5" y="-3" width="1381" height="87" fill="url(#paint0_linear)"/>
<path d="M450.353 23H452.726L449.513 14.852L452.726 8.3H450.416L447.392 14.705V8.3H445.082V23H447.392V18.485L448.106 17.141L450.353 23ZM465.201 8.3H461.82L459.468 23H461.589L461.988 20.333H464.823L465.222 23H467.553L465.201 8.3ZM463.395 10.904L464.508 18.338H462.282L463.395 10.904ZM480.2 23H482.573L479.36 14.852L482.573 8.3H480.263L477.239 14.705V8.3H474.929V23H477.239V18.485L477.953 17.141L480.2 23ZM501.795 10.4H504.42V23H506.772V8.3H499.485V23H501.795V10.4ZM516.868 11.681C516.868 10.631 517.33 10.232 518.065 10.232C518.8 10.232 519.262 10.631 519.262 11.681V19.619C519.262 20.669 518.8 21.068 518.065 21.068C517.33 21.068 516.868 20.669 516.868 19.619V11.681ZM514.558 19.472C514.558 21.824 515.797 23.168 518.065 23.168C520.333 23.168 521.572 21.824 521.572 19.472V11.828C521.572 9.476 520.333 8.132 518.065 8.132C515.797 8.132 514.558 9.476 514.558 11.828V19.472ZM528.722 23.021H529.079C531.389 23.021 532.355 21.971 532.439 19.283L532.691 10.4H534.707V23H537.059V8.3H530.528L530.15 19.409C530.108 20.774 529.772 20.921 528.722 20.921V23.021ZM552.729 8.3H550.314L549.264 13.34L548.718 16.763L548.004 13.319L546.744 8.3H544.455L547.647 19.64L547.626 19.766C547.437 20.837 546.765 21.047 545.589 20.963V23.021C548.802 23.231 549.705 21.908 550.251 19.262L552.729 8.3ZM564.703 8.3V14.264C564.703 15.251 564.241 15.776 563.506 15.776C562.771 15.776 562.162 15.314 562.162 14.327V8.3H559.852V14.516C559.852 16.532 560.839 17.897 562.729 17.897C563.359 17.897 564.199 17.624 564.703 17.078V23H567.013V8.3H564.703ZM579.32 16.259L580.265 12.647V23H582.344V8.3H579.803L577.913 14.369L577.073 17.603V8.3H575.015V23H577.388L579.32 16.259ZM589.605 10.4H592.02V23H594.33V10.4H596.745V8.3H589.605V10.4ZM607.465 23C609.775 23 610.909 21.719 610.909 19.367V17.456C610.909 15.104 609.775 13.823 607.465 13.823H606.373V8.3H604.063V23H607.465ZM606.373 20.9V15.923H607.465C608.2 15.923 608.599 16.259 608.599 17.309V19.514C608.599 20.564 608.2 20.9 607.465 20.9H606.373ZM631.822 23C634.132 23 635.308 21.719 635.308 19.367V17.792C635.308 15.44 634.132 14.159 631.822 14.159H630.478V10.4H634.636V8.3H628.168V23H631.822ZM630.478 20.9V16.259H631.822C632.557 16.259 632.998 16.595 632.998 17.645V19.514C632.998 20.564 632.557 20.9 631.822 20.9H630.478ZM645.473 10.4H649.463V8.3H643.163V23H649.463V20.9H645.473V16.595H648.644V14.495H645.473V10.4ZM661.709 17.519V19.619C661.709 20.669 661.247 21.047 660.512 21.047C659.777 21.047 659.315 20.669 659.315 19.619V11.681C659.315 10.631 659.777 10.232 660.512 10.232C661.247 10.232 661.709 10.631 661.709 11.681V13.256H663.893V11.828C663.893 9.476 662.717 8.132 660.449 8.132C658.181 8.132 657.005 9.476 657.005 11.828V19.472C657.005 21.824 658.181 23.168 660.449 23.168C662.717 23.168 663.893 21.824 663.893 19.472V17.519H661.709ZM673.905 10.4H676.53V23H678.882V8.3H671.595V23H673.905V10.4ZM686.206 23.021H686.563C688.873 23.021 689.839 21.971 689.923 19.283L690.175 10.4H692.191V23H694.543V8.3H688.012L687.634 19.409C687.592 20.774 687.256 20.921 686.206 20.921V23.021ZM707.735 8.3H704.354L702.002 23H704.123L704.522 20.333H707.357L707.756 23H710.087L707.735 8.3ZM705.929 10.904L707.042 18.338H704.816L705.929 10.904ZM716.791 10.4H719.206V23H721.516V10.4H723.931V8.3H716.791V10.4ZM733.558 16.7H736.183V23H738.535V8.3H736.183V14.6H733.558V8.3H731.248V23H733.558V16.7ZM754.112 8.3H751.697L750.647 13.34L750.101 16.763L749.387 13.319L748.127 8.3H745.838L749.03 19.64L749.009 19.766C748.82 20.837 748.148 21.047 746.972 20.963V23.021C750.185 23.231 751.088 21.908 751.634 19.262L754.112 8.3ZM765.414 19.472C765.414 21.824 766.653 23.168 768.921 23.168C771.189 23.168 772.428 21.824 772.428 19.472V11.828C772.428 9.476 771.189 8.132 768.921 8.132C766.653 8.132 765.414 9.476 765.414 11.828V14.6H763.692V8.3H761.382V23H763.692V16.7H765.414V19.472ZM767.724 11.681C767.724 10.631 768.186 10.232 768.921 10.232C769.656 10.232 770.118 10.631 770.118 11.681V19.619C770.118 20.669 769.656 21.068 768.921 21.068C768.186 21.068 767.724 20.669 767.724 19.619V11.681ZM798.781 24.974V20.942H797.773V8.3H791.305L790.78 19.031C790.738 19.892 790.612 20.438 790.213 20.942H789.31V24.974H791.557V23H796.492V24.974H798.781ZM793.468 10.4H795.421V20.942H792.397C792.775 20.585 792.985 20.102 793.048 18.989L793.468 10.4ZM808.489 11.681C808.489 10.631 808.951 10.232 809.686 10.232C810.421 10.232 810.883 10.631 810.883 11.681V19.619C810.883 20.669 810.421 21.068 809.686 21.068C808.951 21.068 808.489 20.669 808.489 19.619V11.681ZM806.179 19.472C806.179 21.824 807.418 23.168 809.686 23.168C811.954 23.168 813.193 21.824 813.193 19.472V11.828C813.193 9.476 811.954 8.132 809.686 8.132C807.418 8.132 806.179 9.476 806.179 11.828V19.472ZM825.509 17.519V19.619C825.509 20.669 825.047 21.047 824.312 21.047C823.577 21.047 823.115 20.669 823.115 19.619V11.681C823.115 10.631 823.577 10.232 824.312 10.232C825.047 10.232 825.509 10.631 825.509 11.681V13.256H827.693V11.828C827.693 9.476 826.517 8.132 824.249 8.132C821.981 8.132 820.805 9.476 820.805 11.828V19.472C820.805 21.824 821.981 23.168 824.249 23.168C826.517 23.168 827.693 21.824 827.693 19.472V17.519H825.509ZM834.723 10.4H837.138V23H839.448V10.4H841.863V8.3H834.723V10.4ZM854.304 8.3H850.923L848.571 23H850.692L851.091 20.333H853.926L854.325 23H856.656L854.304 8.3ZM852.498 10.904L853.611 18.338H851.385L852.498 10.904ZM867.518 8.3H864.032V23H867.665C869.975 23 871.172 21.782 871.172 19.514V18.317C871.172 16.763 870.689 15.65 869.45 15.167C870.479 14.684 870.941 13.718 870.941 12.206V11.681C870.941 9.413 869.912 8.3 867.518 8.3ZM867.371 16.385C868.421 16.385 868.862 16.805 868.862 18.17V19.451C868.862 20.543 868.442 20.9 867.665 20.9H866.342V16.385H867.371ZM867.455 10.4C868.274 10.4 868.631 10.862 868.631 11.912V12.731C868.631 13.907 868.106 14.285 867.245 14.285H866.342V10.4H867.455ZM884.134 23H886.507L883.294 14.852L886.507 8.3H884.197L881.173 14.705V8.3H878.863V23H881.173V18.485L881.887 17.141L884.134 23ZM901.46 8.3H899.045L897.995 13.34L897.449 16.763L896.735 13.319L895.475 8.3H893.186L896.378 19.64L896.357 19.766C896.168 20.837 895.496 21.047 894.32 20.963V23.021C897.533 23.231 898.436 21.908 898.982 19.262L901.46 8.3ZM912.469 19.745C912.406 19.472 912.385 19.199 912.385 18.926C912.385 16.238 915.115 15.65 915.115 11.828C915.115 9.476 913.96 8.132 911.713 8.132C909.466 8.132 908.311 9.476 908.311 11.828V13.277H910.495V11.681C910.495 10.631 910.915 10.232 911.65 10.232C912.385 10.232 912.805 10.631 912.805 11.681C912.805 15.335 910.285 15.629 910.285 18.842C910.285 19.22 910.327 19.493 910.411 19.745H912.469ZM910.306 20.774V23H912.532V20.774H910.306Z" fill="white"/>
<rect x="951" y="4" width="138" height="22" rx="6" fill="#FF3E14"/>
<path d="M966.364 12.25V8.42969H968.528V12.25C968.528 12.6979 968.606 13.0703 968.762 13.3672C968.919 13.6641 969.174 13.8828 969.528 14.0234C969.882 14.1641 970.351 14.2188 970.934 14.1875C971.518 14.1562 972.239 14.0417 973.098 13.8438V8.42969H975.27V20H973.098V15.3672C972.473 15.5234 971.874 15.638 971.302 15.7109C970.729 15.7839 970.192 15.8073 969.692 15.7812C969.197 15.7552 968.744 15.6745 968.333 15.5391C967.921 15.3984 967.57 15.1875 967.278 14.9062C966.986 14.6198 966.76 14.2604 966.598 13.8281C966.442 13.3958 966.364 12.8698 966.364 12.25ZM979.003 20.0078V11.7969H980.98V16.5938C980.98 16.7188 980.972 16.8542 980.956 17C980.946 17.1458 980.93 17.2917 980.909 17.4375C981.029 17.1771 981.146 16.9609 981.261 16.7891C981.266 16.7786 981.316 16.7083 981.409 16.5781C981.508 16.4427 981.633 16.2682 981.784 16.0547C981.935 15.8411 982.107 15.6016 982.3 15.3359C982.493 15.0651 982.688 14.7891 982.886 14.5078C983.349 13.8516 983.876 13.1094 984.464 12.2812C984.537 12.1615 984.636 12.0495 984.761 11.9453C984.886 11.8411 985.024 11.7891 985.175 11.7891H986.378V20H984.402V15.2109C984.402 15.0859 984.407 14.9531 984.417 14.8125C984.428 14.6667 984.446 14.5182 984.472 14.3672C984.415 14.4922 984.357 14.6094 984.3 14.7188C984.243 14.8281 984.183 14.9245 984.12 15.0078C984.11 15.0182 984.055 15.0911 983.956 15.2266C983.862 15.362 983.74 15.5365 983.589 15.75C983.438 15.9635 983.266 16.2057 983.073 16.4766C982.881 16.7474 982.685 17.0208 982.487 17.2969C982.024 17.9531 981.501 18.6953 980.917 19.5234C980.844 19.638 980.745 19.7474 980.62 19.8516C980.501 19.9557 980.365 20.0078 980.214 20.0078H979.003ZM989.15 13.2578V11.7891H996.97V13.2578H994.041V20H992.064V13.2578H989.15ZM999.148 17.9062C999.148 17.599 999.229 17.2943 999.391 16.9922C999.557 16.6901 999.828 16.4167 1000.2 16.1719C1000.58 15.9271 1001.09 15.7266 1001.72 15.5703C1002.35 15.4089 1003.13 15.3177 1004.07 15.2969V14.8125C1004.07 14.2656 1003.95 13.862 1003.72 13.6016C1003.48 13.3359 1003.15 13.2031 1002.7 13.2031C1002.39 13.2031 1002.12 13.2396 1001.91 13.3125C1001.69 13.3854 1001.51 13.4688 1001.34 13.5625C1001.19 13.6562 1001.04 13.7422 1000.91 13.8203C1000.78 13.8932 1000.64 13.9297 1000.48 13.9297C1000.34 13.9297 1000.22 13.8932 1000.12 13.8203C1000.03 13.7474 999.953 13.6641 999.891 13.5703L999.539 12.9375C1000.48 12.0729 1001.62 11.6406 1002.95 11.6406C1003.43 11.6406 1003.86 11.7188 1004.23 11.875C1004.61 12.0312 1004.93 12.25 1005.2 12.5312C1005.46 12.8125 1005.65 13.1484 1005.79 13.5391C1005.93 13.9245 1006 14.349 1006 14.8125V20H1005.1C1004.91 20 1004.77 19.9714 1004.66 19.9141C1004.57 19.8568 1004.49 19.7448 1004.43 19.5781L1004.25 18.9922C1004.04 19.1797 1003.84 19.3438 1003.64 19.4844C1003.45 19.625 1003.24 19.7448 1003.03 19.8438C1002.82 19.9375 1002.59 20.0078 1002.34 20.0547C1002.1 20.1016 1001.84 20.125 1001.54 20.125C1001.19 20.125 1000.87 20.0807 1000.58 19.9922C1000.29 19.8984 1000.03 19.7578 999.82 19.5703C999.607 19.3828 999.44 19.151 999.32 18.875C999.206 18.5938 999.148 18.2708 999.148 17.9062ZM1001.04 17.7969C1001.04 18.1458 1001.14 18.3958 1001.34 18.5469C1001.55 18.6927 1001.82 18.7656 1002.15 18.7656C1002.55 18.7656 1002.91 18.6927 1003.2 18.5469C1003.5 18.401 1003.79 18.1797 1004.07 17.8828V16.4922C1003.49 16.5182 1003.01 16.5677 1002.62 16.6406C1002.24 16.7135 1001.93 16.8073 1001.7 16.9219C1001.46 17.0312 1001.29 17.1615 1001.19 17.3125C1001.09 17.4635 1001.04 17.625 1001.04 17.7969ZM1009.46 20.0078V11.7969H1011.44V16.5938C1011.44 16.7188 1011.43 16.8542 1011.41 17C1011.4 17.1458 1011.39 17.2917 1011.37 17.4375C1011.49 17.1771 1011.6 16.9609 1011.72 16.7891C1011.72 16.7786 1011.77 16.7083 1011.87 16.5781C1011.96 16.4427 1012.09 16.2682 1012.24 16.0547C1012.39 15.8411 1012.56 15.6016 1012.76 15.3359C1012.95 15.0651 1013.14 14.7891 1013.34 14.5078C1013.81 13.8516 1014.33 13.1094 1014.92 12.2812C1014.99 12.1615 1015.09 12.0495 1015.22 11.9453C1015.34 11.8411 1015.48 11.7891 1015.63 11.7891H1016.83V20H1014.86V15.2109C1014.86 15.0859 1014.86 14.9531 1014.87 14.8125C1014.88 14.6667 1014.9 14.5182 1014.93 14.3672C1014.87 14.4922 1014.81 14.6094 1014.76 14.7188C1014.7 14.8281 1014.64 14.9245 1014.58 15.0078C1014.57 15.0182 1014.51 15.0911 1014.41 15.2266C1014.32 15.362 1014.2 15.5365 1014.05 15.75C1013.89 15.9635 1013.72 16.2057 1013.53 16.4766C1013.34 16.7474 1013.14 17.0208 1012.94 17.2969C1012.48 17.9531 1011.96 18.6953 1011.37 19.5234C1011.3 19.638 1011.2 19.7474 1011.08 19.8516C1010.96 19.9557 1010.82 20.0078 1010.67 20.0078H1009.46ZM1010.65 8.98438C1010.65 8.84375 1010.69 8.71615 1010.75 8.60156C1010.82 8.48698 1010.92 8.42969 1011.06 8.42969H1012.23C1012.23 8.66927 1012.25 8.8724 1012.28 9.03906C1012.31 9.20573 1012.37 9.33854 1012.44 9.4375C1012.53 9.53646 1012.63 9.60677 1012.76 9.64844C1012.89 9.6901 1013.06 9.71094 1013.26 9.71094C1013.46 9.71094 1013.63 9.6901 1013.76 9.64844C1013.89 9.60677 1014 9.53646 1014.08 9.4375C1014.15 9.33854 1014.21 9.20573 1014.24 9.03906C1014.28 8.8724 1014.3 8.66927 1014.3 8.42969H1015.46C1015.6 8.42969 1015.7 8.48698 1015.76 8.60156C1015.83 8.71615 1015.87 8.84375 1015.87 8.98438C1015.87 9.25521 1015.8 9.5026 1015.68 9.72656C1015.56 9.94531 1015.38 10.1328 1015.15 10.2891C1014.93 10.4401 1014.65 10.5573 1014.33 10.6406C1014.01 10.7188 1013.65 10.7578 1013.26 10.7578C1012.87 10.7578 1012.51 10.7188 1012.19 10.6406C1011.87 10.5573 1011.59 10.4401 1011.37 10.2891C1011.14 10.1328 1010.96 9.94531 1010.83 9.72656C1010.71 9.5026 1010.65 9.25521 1010.65 8.98438ZM1019.61 13.2578V11.7891H1027.43V13.2578H1024.5V20H1022.52V13.2578H1019.61ZM1029.51 15.7188C1029.51 15.1562 1029.6 14.6302 1029.78 14.1406C1029.96 13.6458 1030.22 13.2161 1030.56 12.8516C1030.9 12.487 1031.31 12.1979 1031.79 11.9844C1032.28 11.7708 1032.83 11.6641 1033.45 11.6641C1033.96 11.6641 1034.44 11.7474 1034.88 11.9141C1035.32 12.0755 1035.7 12.3151 1036.01 12.6328C1036.33 12.9505 1036.58 13.3411 1036.75 13.8047C1036.93 14.263 1037.02 14.7891 1037.02 15.3828C1037.02 15.6797 1036.99 15.8802 1036.93 15.9844C1036.86 16.0885 1036.74 16.1406 1036.56 16.1406H1031.47C1031.5 16.5625 1031.58 16.9271 1031.7 17.2344C1031.82 17.5417 1031.97 17.7969 1032.16 18C1032.35 18.1979 1032.58 18.3464 1032.85 18.4453C1033.11 18.5443 1033.4 18.5938 1033.72 18.5938C1034.04 18.5938 1034.32 18.5573 1034.55 18.4844C1034.78 18.4062 1034.99 18.3229 1035.16 18.2344C1035.33 18.1406 1035.48 18.0573 1035.61 17.9844C1035.74 17.9115 1035.87 17.875 1036 17.875C1036.16 17.875 1036.28 17.9349 1036.36 18.0547L1036.93 18.7734C1036.71 19.0286 1036.47 19.2448 1036.19 19.4219C1035.92 19.5938 1035.64 19.7318 1035.34 19.8359C1035.05 19.9401 1034.75 20.013 1034.44 20.0547C1034.13 20.0964 1033.84 20.1172 1033.55 20.1172C1032.98 20.1172 1032.45 20.0234 1031.96 19.8359C1031.47 19.6484 1031.04 19.3698 1030.68 19C1030.31 18.625 1030.02 18.1641 1029.82 17.6172C1029.61 17.0703 1029.51 16.4375 1029.51 15.7188ZM1031.52 14.9531H1035.25C1035.25 14.6979 1035.21 14.4583 1035.14 14.2344C1035.06 14.0052 1034.95 13.8047 1034.81 13.6328C1034.67 13.4609 1034.48 13.3255 1034.26 13.2266C1034.04 13.1276 1033.79 13.0781 1033.5 13.0781C1032.92 13.0781 1032.46 13.2422 1032.14 13.5703C1031.81 13.8932 1031.61 14.3542 1031.52 14.9531ZM1044.81 13.2578V11.7891H1052.63V13.2578H1049.7V20H1047.73V13.2578H1044.81ZM1054.47 11.7891H1056.2C1056.36 11.7891 1056.48 11.8281 1056.57 11.9062C1056.66 11.9792 1056.72 12.0625 1056.76 12.1562L1058.51 16.4141C1058.61 16.7057 1058.7 16.9974 1058.77 17.2891C1058.81 17.138 1058.86 16.9896 1058.91 16.8438C1058.96 16.6979 1059.02 16.5521 1059.08 16.4062L1060.72 12.1562C1060.77 12.0521 1060.84 11.9661 1060.94 11.8984C1061.03 11.8255 1061.15 11.7891 1061.27 11.7891H1062.85L1058.38 22.2578C1058.32 22.3984 1058.25 22.5026 1058.15 22.5703C1058.06 22.6432 1057.92 22.6797 1057.72 22.6797H1056.25L1057.79 19.3906L1054.47 11.7891ZM1064.65 13.2578V11.7891H1072.47V13.2578H1069.54V20H1067.57V13.2578H1064.65Z" fill="white"/>
<path d="M365.513 15.4688L371.02 14.707L373.247 9.02344C373.833 7.50001 375.298 6.56251 377.114 6.56251H383.501C384.028 6.56251 384.497 6.91407 384.556 7.44141L386.665 19.1016C386.782 19.6289 387.192 19.9805 387.72 19.9805H415.728C416.255 19.9805 416.724 20.332 416.782 20.8594L417.368 24.1992C417.485 24.8438 416.958 25.4883 416.313 25.4883H414.028C414.263 28.0078 412.505 30 409.985 30C407.466 30 404.946 28.0078 404.302 25.4883H378.813C379.048 28.0078 377.29 30 374.77 30C372.192 30 369.731 28.0078 369.087 25.4883H366.333C365.806 25.4883 365.337 25.1367 365.278 24.6094L364.048 17.6367C363.813 16.5234 364.458 15.5859 365.513 15.4688ZM406.528 25.0781C406.763 26.4844 408.11 27.6563 409.575 27.6563C410.981 27.6563 411.978 26.4844 411.685 25.0781C411.45 23.6719 410.103 22.5 408.638 22.5C407.231 22.5 406.235 23.6719 406.528 25.0781ZM382.329 14.5313L381.45 9.60938H377.7C377.056 9.60938 376.47 9.96094 376.235 10.5469L374.653 14.5313H382.329ZM371.313 25.0781C371.548 26.4844 372.895 27.6563 374.36 27.6563C375.825 27.6563 376.763 26.4844 376.47 25.0781C376.235 23.6719 374.888 22.5 373.423 22.5C371.958 22.5 371.079 23.6719 371.313 25.0781Z" fill="white"/>
<path d="M387.954 17.5195L385.083 1.28906C384.966 0.644532 385.493 0 386.138 0H414.087C415.083 0 415.903 0.820313 415.903 1.81641C415.903 2.8125 415.083 3.63281 414.087 3.63281H411.04C410.044 3.63281 409.224 4.45312 409.224 5.44922C409.224 6.44531 410.044 7.26562 411.04 7.26562H415.962C416.958 7.26562 417.778 8.08594 417.778 9.08203C417.778 10.0781 416.958 10.8984 415.962 10.8984H412.915C411.919 10.8984 411.099 11.7187 411.099 12.7148C411.099 13.7109 411.919 14.5312 412.915 14.5898H417.837C418.833 14.5898 419.653 15.4102 419.653 16.4062C419.653 17.4023 418.833 18.2227 417.837 18.2227H389.067C388.481 18.457 388.013 18.0469 387.954 17.5195Z" fill="white"/>
</g>
<defs>
<linearGradient id="paint0_linear" x1="1365.5" y1="-0.000277732" x2="0.49996" y2="0.000102366" gradientUnits="userSpaceOnUse">
<stop stop-color="#61A3B4" stop-opacity="0"/>
<stop offset="0.513812" stop-color="#61A3B4"/>
<stop offset="1" stop-color="#61A3B4" stop-opacity="0"/>
</linearGradient>
<clipPath id="clip0">
<rect width="1366" height="30" fill="white"/>
</clipPath>
</defs>
</svg>
