<svg width="42" height="42" viewBox="0 0 42 42" fill="none" xmlns="http://www.w3.org/2000/svg">
<path fill-rule="evenodd" clip-rule="evenodd" d="M13.0508 14.3911C13.0508 18.0615 10.1294 21.0369 6.52539 21.0369C2.92163 21.0369 0 18.0615 0 14.3911C0 10.7207 2.92163 7.74536 6.52539 7.74536C10.1294 7.74536 13.0508 10.7207 13.0508 14.3911ZM9.49121 12.4578C9.49121 14.1262 8.16333 15.4785 6.52515 15.4785C4.88696 15.4785 3.55908 14.1262 3.55908 12.4578C3.55908 10.7896 4.88696 9.43701 6.52515 9.43701C8.16333 9.43701 9.49121 10.7896 9.49121 12.4578Z" fill="#CDCDE5"/>
<path fill-rule="evenodd" clip-rule="evenodd" d="M42 14.3911C42 18.0615 39.0786 21.0369 35.4746 21.0369C31.8708 21.0369 28.9492 18.0615 28.9492 14.3911C28.9492 10.7207 31.8708 7.74536 35.4746 7.74536C39.0786 7.74536 42 10.7207 42 14.3911ZM38.4407 12.4578C38.4407 14.1262 37.1128 15.4785 35.4746 15.4785C33.8364 15.4785 32.5085 14.1262 32.5085 12.4578C32.5085 10.7896 33.8364 9.43701 35.4746 9.43701C37.1128 9.43701 38.4407 10.7896 38.4407 12.4578Z" fill="#CDCDE5"/>
<path d="M2.21106 4.45378C2.10136 4.06748 2.28355 3.65726 2.64083 3.48608L9.36324 0.265283C10.4339 -0.247701 11.6278 0.680876 11.4238 1.8679C11.3259 2.43727 10.9131 2.89734 10.3651 3.04775L3.19188 5.01649C2.76899 5.13255 2.33274 4.88227 2.21106 4.45378Z" fill="#CDCDE5"/>
<path d="M39.5814 4.33293C39.6911 3.94663 39.5089 3.53641 39.1517 3.36523L32.4293 0.144433C31.3586 -0.36855 30.1646 0.560027 30.3687 1.74705C30.4665 2.31642 30.8794 2.77649 31.4274 2.9269L38.6006 4.89564C39.0235 5.0117 39.4598 4.76142 39.5814 4.33293Z" fill="#CDCDE5"/>
<path d="M15.9133 24.9363H25.592C28.0691 24.9363 30.0774 26.9666 30.0774 29.4708C30.0774 31.9752 28.0691 34.0054 25.592 34.0054H21.8979V37.4747C22.3962 37.4517 22.9443 37.4381 23.553 37.4896C24.8369 37.5985 26.2444 37.984 28.1504 38.9547C28.8887 39.3304 29.1824 40.2337 28.8064 40.972C28.4304 41.71 27.5273 42.0037 26.7891 41.628C25.1475 40.7921 24.1162 40.5482 23.2996 40.4788C22.874 40.4427 22.4692 40.451 22.0005 40.473L21.697 40.4883L21.6892 40.4888L21.6772 40.4896C21.2949 40.5093 20.8577 40.5321 20.3979 40.5321H20.3748C19.915 40.5321 19.4778 40.5093 19.0955 40.4896L19.0835 40.4888L19.0757 40.4883L18.7722 40.473C18.3035 40.451 17.8987 40.4427 17.4731 40.4788C16.6565 40.5482 15.6252 40.7921 13.9836 41.628C13.2454 42.0037 12.3423 41.71 11.9663 40.972C11.5903 40.2337 11.884 39.3304 12.6223 38.9547C14.5283 37.984 15.9358 37.5985 17.2197 37.4896C17.8284 37.4381 18.3765 37.4517 18.8748 37.4747V34.0054H15.9133C13.4363 34.0054 11.4282 31.9752 11.4282 29.4708C11.4282 26.9666 13.4363 24.9363 15.9133 24.9363Z" fill="#CDCDE5"/>
</svg>
