<svg width="76" height="76" viewBox="0 0 76 76" fill="none" xmlns="http://www.w3.org/2000/svg">
<path fill-rule="evenodd" clip-rule="evenodd" d="M38 76C58.9868 76 76 58.9868 76 38C76 17.0132 58.9868 0 38 0C17.0132 0 0 17.0132 0 38C0 58.9868 17.0132 76 38 76ZM31.6376 66V54.45H43.4126V66H31.6376ZM30.5876 29.7H19.5626C19.6126 27 20.0626 24.5249 20.9126 22.2749C21.8126 20.0249 23.0376 18.075 24.5876 16.425C26.1876 14.7749 28.0876 13.5 30.2876 12.6001C32.5376 11.6499 35.0376 11.175 37.7876 11.175C41.3376 11.175 44.2876 11.675 46.6376 12.675C49.0376 13.625 50.9626 14.825 52.4126 16.2749C53.8626 17.7251 54.8876 19.3 55.4876 21C56.1376 22.6499 56.4626 24.2 56.4626 25.6499C56.4626 28.05 56.1376 30.0249 55.4876 31.575C54.8876 33.125 54.1126 34.45 53.1626 35.55C52.2626 36.6499 51.2376 37.6001 50.0876 38.3999C48.9876 39.1499 47.9376 39.925 46.9376 40.7251C45.9376 41.4751 45.0376 42.3501 44.2376 43.3501C43.4876 44.3501 43.0126 45.6001 42.8126 47.1001V49.95H32.6876V46.575C32.8376 44.425 33.2376 42.625 33.8876 41.175C34.5876 39.7251 35.3876 38.5 36.2876 37.5C37.1876 36.45 38.1376 35.55 39.1376 34.8C40.1376 34.05 41.0626 33.3 41.9126 32.55C42.7626 31.8 43.4376 30.9751 43.9376 30.075C44.4876 29.175 44.7376 28.05 44.6876 26.7C44.6876 24.3999 44.1126 22.7 42.9626 21.6001C41.8626 20.5 40.3126 19.95 38.3126 19.95C36.9626 19.95 35.7876 20.2251 34.7876 20.7749C33.8376 21.2749 33.0376 21.9751 32.3876 22.875C31.7876 23.7251 31.3376 24.75 31.0376 25.95C30.7376 27.1001 30.5876 28.3501 30.5876 29.7Z" fill="black"/>
</svg>
